spectral-semibolditalic.ufo
<glyph name="exclam" format="2">
  <advance width="252.57142857142856"/>
  <unicode hex="0021"/>
  <outline>
    <contour>
      <point x="97.14285714285714" y="212.85714285714286" type="line"/>
      <point x="122.42857142857143" y="212.85714285714286" type="line"/>
      <point x="250.42857142857144" y="660.0" type="line"/>
      <point x="126.0" y="660.0" type="line"/>
    </contour>
    <contour>
      <point x="75.42857142857143" y="-5.0" type="curve" smooth="yes"/>
      <point x="116.71428571428571" y="-5.0"/>
      <point x="143.71428571428572" y="28.142857142857142"/>
      <point x="143.71428571428572" y="68.14285714285714" type="curve" smooth="yes"/>
      <point x="143.71428571428572" y="100.57142857142857"/>
      <point x="127.0" y="124.14285714285714"/>
      <point x="89.71428571428571" y="124.14285714285714" type="curve" smooth="yes"/>
      <point x="49.42857142857143" y="124.14285714285714"/>
      <point x="21.428571428571427" y="88.85714285714286"/>
      <point x="21.428571428571427" y="51.0" type="curve" smooth="yes"/>
      <point x="21.428571428571427" y="18.57142857142857"/>
      <point x="38.14285714285714" y="-5.0"/>
    </contour>
  </outline>
</glyph>
<glyph name="numbersign" format="2">
  <advance width="542.8571428571429"/>
  <unicode hex="0023"/>
  <outline>
    <contour>
      <point x="32.0" y="0.0" type="line"/>
      <point x="79.85714285714286" y="0.0" type="line"/>
      <point x="348.85714285714283" y="660.0" type="line"/>
      <point x="301.0" y="660.0" type="line"/>
    </contour>
    <contour>
      <point x="241.85714285714286" y="0.0" type="line"/>
      <point x="510.85714285714283" y="660.0" type="line"/>
      <point x="463.0" y="660.0" type="line"/>
      <point x="194.0" y="0.0" type="line"/>
    </contour>
    <contour>
      <point x="104.42857142857143" y="407.57142857142856" type="line"/>
      <point x="497.42857142857144" y="407.57142857142856" type="line"/>
      <point x="504.42857142857144" y="450.42857142857144" type="line"/>
      <point x="111.42857142857143" y="450.42857142857144" type="line"/>
    </contour>
    <contour>
      <point x="430.42857142857144" y="207.57142857142858" type="line"/>
      <point x="437.42857142857144" y="250.42857142857142" type="line"/>
      <point x="44.42857142857143" y="250.42857142857142" type="line"/>
      <point x="37.42857142857143" y="207.57142857142858" type="line"/>
    </contour>
  </outline>
</glyph>
<glyph name="dollar" format="2">
  <advance width="542.8571428571429"/>
  <unicode hex="0024"/>
  <outline>
    <contour>
      <point x="230.42857142857142" y="-10.0" type="curve" smooth="yes"/>
      <point x="369.24378352042856" y="-10.0"/>
      <point x="475.7142857142857" y="74.0"/>
      <point x="475.7142857142857" y="199.85714285714286" type="curve" smooth="yes"/>
      <point x="475.7142857142857" y="278.0"/>
      <point x="436.57142857142856" y="326.2857142857143"/>
      <point x="337.1428571428571" y="382.57142857142856" type="curve" smooth="yes"/>
      <point x="242.63134927428572" y="436.2317605567143"/>
      <point x="211.57142857142856" y="462.2857142857143"/>
      <point x="211.57142857142856" y="513.5714285714286" type="curve" smooth="yes"/>
      <point x="211.57142857142856" y="583.1428571428571"/>
      <point x="270.3596059112857" y="622.2857142857143"/>
      <point x="337.2857142857143" y="622.2857142857143" type="curve" smooth="yes"/>
      <point x="409.4478764477143" y="622.2857142857143"/>
      <point x="446.7703689452857" y="593.8171351627143"/>
      <point x="437.42857142857144" y="538.0" type="curve" smooth="yes"/>
      <point x="433.0" y="511.0" type="line"/>
      <point x="437.42857142857144" y="507.0" type="line"/>
      <point x="477.7142857142857" y="507.0" type="line" smooth="yes"/>
      <point x="502.0" y="507.0"/>
      <point x="520.8571428571429" y="523.1428571428571"/>
      <point x="520.8571428571429" y="554.7142857142857" type="curve" smooth="yes"/>
      <point x="520.8571428571429" y="579.7142857142857"/>
      <point x="507.0" y="604.7142857142857"/>
      <point x="483.0" y="626.4285714285714" type="curve" smooth="yes"/>
      <point x="455.09437088914285" y="651.1118337831429"/>
      <point x="417.86980108514285" y="670.0"/>
      <point x="350.14285714285717" y="670.0" type="curve" smooth="yes"/>
      <point x="226.85714285714286" y="670.0"/>
      <point x="115.57142857142857" y="581.0"/>
      <point x="115.57142857142857" y="467.85714285714283" type="curve" smooth="yes"/>
      <point x="115.57142857142857" y="393.85714285714283"/>
      <point x="151.42857142857142" y="349.57142857142856"/>
      <point x="217.57142857142858" y="311.2857142857143" type="curve" smooth="yes"/>
      <point x="334.16497769299997" y="241.85752696928571"/>
      <point x="374.2857142857143" y="218.0"/>
      <point x="374.2857142857143" y="156.14285714285714" type="curve" smooth="yes"/>
      <point x="374.2857142857143" y="87.0"/>
      <point x="320.14617940200003" y="36.57142857142857"/>
      <point x="231.28571428571428" y="36.57142857142857" type="curve" smooth="yes"/>
      <point x="165.36734693857142" y="36.57142857142857"/>
      <point x="133.07137736742857" y="78.98543778518571"/>
      <point x="143.28571428571428" y="141.0" type="curve" smooth="yes"/>
      <point x="147.71428571428572" y="168.0" type="line"/>
      <point x="142.71428571428572" y="172.0" type="line"/>
      <point x="104.14285714285714" y="172.0" type="line" smooth="yes"/>
      <point x="79.42857142857143" y="172.0"/>
      <point x="59.857142857142854" y="155.74087464857143"/>
      <point x="59.857142857142854" y="122.42857142857143" type="curve" smooth="yes"/>
      <point x="59.857142857142854" y="96.42857142855715"/>
      <point x="71.28571428571428" y="69.57142857142857"/>
      <point x="92.71428571428572" y="45.57142857142857" type="curve" smooth="yes"/>
      <point x="116.42857142857143" y="19.714285714285715"/>
      <point x="167.17021276614287" y="-10.0"/>
    </contour>
    <contour>
      <point x="155.14285714285714" y="-80.0" type="line"/>
      <point x="193.85714285714286" y="-80.0" type="line"/>
      <point x="333.2857142857143" y="740.0" type="line"/>
      <point x="294.57142857142856" y="740.0" type="line"/>
    </contour>
    <contour>
      <point x="249.28571428571428" y="-80.0" type="line"/>
      <point x="288.0" y="-80.0" type="line"/>
      <point x="427.42857142857144" y="740.0" type="line"/>
      <point x="389.2857142857143" y="740.0" type="line"/>
    </contour>
  </outline>
</glyph>
<glyph name="ampersand" format="2">
  <advance width="770.7142857142857"/>
  <unicode hex="0026"/>
  <outline>
    <contour>
      <point x="577.7142857142857" y="-10.0" type="curve" smooth="yes"/>
      <point x="633.1428571428571" y="-10.0"/>
      <point x="688.1428571428571" y="16.57142857142857"/>
      <point x="722.5714285714286" y="66.71428571428572" type="curve"/>
      <point x="712.2857142857142" y="79.0" type="line"/>
      <point x="709.8571428571429" y="79.0" type="line"/>
      <point x="691.4285714285714" y="64.28571428571428"/>
      <point x="672.5714285714286" y="58.14285714285714"/>
      <point x="648.7142857142857" y="58.14285714285714" type="curve" smooth="yes"/>
      <point x="595.4285714285714" y="58.14285714285714"/>
      <point x="544.5714285714286" y="95.14285714285714"/>
      <point x="484.85714285714283" y="174.42857142857142" type="curve"/>
      <point x="339.57142857142856" y="364.14285714285717" type="line" smooth="yes"/>
      <point x="278.85714285714283" y="443.57142857142856"/>
      <point x="254.85714285714286" y="488.42857142857144"/>
      <point x="254.85714285714286" y="534.4285714285714" type="curve" smooth="yes"/>
      <point x="254.85714285714286" y="591.4285714285714"/>
      <point x="290.0" y="629.0"/>
      <point x="338.42857142857144" y="629.0" type="curve" smooth="yes"/>
      <point x="385.57142857142856" y="629.0"/>
      <point x="410.2857142857143" y="597.7142857142857"/>
      <point x="410.2857142857143" y="553.1428571428571" type="curve" smooth="yes"/>
      <point x="410.2857142857143" y="499.85714285714283"/>
      <point x="379.0" y="442.14285714285717"/>
      <point x="299.2857142857143" y="398.42857142857144" type="curve"/>
      <point x="313.85714285714283" y="377.7142857142857" type="line"/>
      <point x="458.8571428571429" y="429.14285714285717"/>
      <point x="515.7142857142857" y="475.2857142857143"/>
      <point x="515.7142857142857" y="546.1428571428571" type="curve" smooth="yes"/>
      <point x="515.7142857142857" y="619.7142857142857"/>
      <point x="445.85714285714283" y="670.0"/>
      <point x="347.85714285714283" y="670.0" type="curve" smooth="yes"/>
      <point x="229.28571428571428" y="670.0"/>
      <point x="150.14285714285714" y="602.7142857142857"/>
      <point x="150.14285714285714" y="490.57142857142856" type="curve" smooth="yes"/>
      <point x="150.14285714285714" y="427.57142857142856"/>
      <point x="178.71428571428572" y="381.85714285714283"/>
      <point x="232.14285714285714" y="311.2857142857143" type="curve" smooth="yes"/>
      <point x="381.57142857142856" y="114.42857142857143" type="line"/>
      <point x="443.14285714285717" y="34.0"/>
      <point x="494.0" y="-10.0"/>
    </contour>
    <contour>
      <point x="211.85714285714286" y="-10.0" type="curve" smooth="yes"/>
      <point x="389.57142857142856" y="-10.0"/>
      <point x="510.0" y="129.14285714285714"/>
      <point x="643.4285714285714" y="350.0" type="curve"/>
      <point x="609.8571428571429" y="325.0" type="line"/>
      <point x="721.8571428571429" y="372.0" type="line"/>
      <point x="724.8571428571429" y="388.0" type="line"/>
      <point x="493.2857142857143" y="388.0" type="line"/>
      <point x="490.2857142857143" y="372.0" type="line"/>
      <point x="576.8571428571429" y="333.0" type="line"/>
      <point x="486.57142857142856" y="151.0"/>
      <point x="379.7142857142857" y="48.14285714285714"/>
      <point x="265.0" y="48.14285714285714" type="curve" smooth="yes"/>
      <point x="186.14285714285714" y="48.14285714285714"/>
      <point x="141.14285714285714" y="102.46611053180396"/>
      <point x="141.14285714285714" y="179.14285714285714" type="curve" smooth="yes"/>
      <point x="141.14285714285714" y="249.5135135135135"/>
      <point x="173.55176440807207" y="302.133918886786"/>
      <point x="237.42857142857142" y="339.42857142857144" type="curve"/>
      <point x="220.57142857142858" y="358.0" type="line"/>
      <point x="99.41597399751466" y="305.8541059764417"/>
      <point x="29.571428571428573" y="248.66806722689074"/>
      <point x="29.571428571428573" y="144.57142857142856" type="curve" smooth="yes"/>
      <point x="29.571428571428573" y="50.62637362637363"/>
      <point x="101.14285714285714" y="-10.0"/>
    </contour>
  </outline>
</glyph>
<glyph name="parenleft" format="2">
  <advance width="265.0"/>
  <unicode hex="0028"/>
  <outline>
    <contour>
      <point x="167.14285714285714" y="-150.0" type="curve"/>
      <point x="187.14285714285714" y="-150.0" type="line"/>
      <point x="187.14285714285714" y="-147.0" type="line"/>
      <point x="145.71428571428572" y="-47.714285714285715"/>
      <point x="130.57142857142856" y="52.57142857142857"/>
      <point x="130.57142857142856" y="174.28571428571428" type="curve" smooth="yes"/>
      <point x="130.57142857142856" y="383.57142857142856"/>
      <point x="210.57142857142856" y="574.8571428571429"/>
      <point x="335.14285714285717" y="737.0" type="curve"/>
      <point x="335.14285714285717" y="740.0" type="line"/>
      <point x="315.14285714285717" y="740.0" type="line"/>
      <point x="168.85714285714286" y="603.2857142857143"/>
      <point x="67.85714285714286" y="411.14285714285717"/>
      <point x="67.85714285714286" y="203.57142857142856" type="curve" smooth="yes"/>
      <point x="67.85714285714286" y="74.57142857142857"/>
      <point x="100.14285714285714" y="-44.0"/>
    </contour>
  </outline>
</glyph>
<glyph name="parenright" format="2">
  <advance width="265.0"/>
  <unicode hex="0029"/>
  <outline>
    <contour>
      <point x="-69.28571428571429" y="-149.42857142857142" type="line"/>
      <point x="-49.285714285714285" y="-149.42857142857142" type="line"/>
      <point x="97.0" y="-12.714285714285714"/>
      <point x="198.0" y="179.42857142857144"/>
      <point x="198.0" y="387.0" type="curve" smooth="yes"/>
      <point x="198.0" y="516.0"/>
      <point x="165.71428571428572" y="634.5714285714286"/>
      <point x="98.71428571428571" y="740.5714285714286" type="curve"/>
      <point x="78.71428571428572" y="740.5714285714286" type="line"/>
      <point x="78.71428571428572" y="737.5714285714286" type="line"/>
      <point x="120.14285714285714" y="638.2857142857143"/>
      <point x="135.28571428571428" y="538.0"/>
      <point x="135.28571428571428" y="416.2857142857143" type="curve" smooth="yes"/>
      <point x="135.28571428571428" y="207.0"/>
      <point x="55.285714285714285" y="15.714285714285715"/>
      <point x="-69.28571428571429" y="-146.42857142857142" type="curve"/>
    </contour>
  </outline>
</glyph>
<glyph name="asterisk" format="2">
  <advance width="364.85714285714283"/>
  <unicode hex="002A"/>
  <outline>
    <contour>
      <point x="80.42857142857143" y="472.2857142857143" type="line"/>
      <point x="132.57142857142856" y="429.0" type="line"/>
      <point x="216.28571428571428" y="554.7142857142857" type="line"/>
      <point x="256.85714285714283" y="429.85714285714283" type="line"/>
      <point x="323.0" y="470.57142857142856" type="line"/>
      <point x="239.0" y="573.5714285714286" type="line"/>
      <point x="381.0" y="594.4285714285714" type="line"/>
      <point x="369.0" y="663.2857142857143" type="line"/>
      <point x="235.0" y="599.2857142857143" type="line"/>
      <point x="283.42857142857144" y="740.0" type="line"/>
      <point x="212.28571428571428" y="740.0" type="line"/>
      <point x="212.42857142857142" y="599.2857142857143" type="line"/>
      <point x="99.28571428571428" y="663.2857142857143" type="line"/>
      <point x="66.42857142857143" y="594.4285714285714" type="line"/>
      <point x="199.57142857142858" y="573.5714285714286" type="line"/>
    </contour>
  </outline>
</glyph>
<glyph name="plus" format="2">
  <advance width="542.8571428571429"/>
  <unicode hex="002B"/>
  <outline>
    <contour>
      <point x="468.57142857142856" y="246.85714285714286" type="line"/>
      <point x="477.42857142857144" y="297.14285714285717" type="line"/>
      <point x="58.57142857142857" y="297.14285714285717" type="line"/>
      <point x="49.714285714285715" y="246.85714285714286" type="line"/>
    </contour>
    <contour>
      <point x="273.57142857142856" y="482.0" type="line"/>
      <point x="199.57142857142858" y="62.0" type="line"/>
      <point x="254.14285714285714" y="62.0" type="line"/>
      <point x="328.14285714285717" y="482.0" type="line"/>
    </contour>
  </outline>
</glyph>
<glyph name="comma" format="2">
  <advance width="247.14285714285714"/>
  <unicode hex="002C"/>
  <outline>
    <contour>
      <point x="-4.142857142857143" y="-192.85714285714286" type="line"/>
      <point x="117.14285714285714" y="-138.28571428571428"/>
      <point x="170.42857142857142" y="-68.0"/>
      <point x="170.42857142857142" y="1.5714285714285694" type="curve" smooth="yes"/>
      <point x="170.42857142857142" y="42.71428571428571"/>
      <point x="154.42857142857144" y="78.42857142857143"/>
      <point x="118.42857142857143" y="101.42857142857142" type="curve" smooth="yes"/>
      <point x="109.0" y="107.42857142857143"/>
      <point x="103.0" y="110.42857142857143"/>
      <point x="96.42857142857143" y="110.42857142857143" type="curve" smooth="yes"/>
      <point x="87.57142857142857" y="110.42857142857143"/>
      <point x="82.42857142857143" y="105.57142857142857"/>
      <point x="69.71428571428572" y="89.28571428571428" type="curve" smooth="yes"/>
      <point x="32.857142857142854" y="41.714285714285715" type="line"/>
      <point x="33.714285714285715" y="30.428571428571427" type="line"/>
      <point x="62.285714285714285" y="12.285714285714285" type="line" smooth="yes"/>
      <point x="85.71428571428572" y="-2.7142857142857144"/>
      <point x="97.42857142857143" y="-22.0"/>
      <point x="97.42857142857143" y="-51.857142857142854" type="curve" smooth="yes"/>
      <point x="97.42857142857143" y="-95.42857142857143"/>
      <point x="70.28571428571428" y="-131.14285714285714"/>
      <point x="-4.142857142857143" y="-168.85714285714286" type="curve"/>
    </contour>
  </outline>
</glyph>
<glyph name="hyphen" format="2">
  <advance width="353.0"/>
  <unicode hex="002D"/>
  <outline>
    <contour>
      <point x="37.857142857142854" y="226.0" type="line"/>
      <point x="304.2857142857143" y="226.0" type="line"/>
      <point x="315.14285714285717" y="288.0" type="line"/>
      <point x="48.714285714285715" y="288.0" type="line"/>
    </contour>
  </outline>
</glyph>
<glyph name="period" format="2">
  <advance width="247.14285714285714"/>
  <unicode hex="002E"/>
  <outline>
    <contour>
      <point x="86.85714285714286" y="-5.0" type="curve" smooth="yes"/>
      <point x="128.14285714285714" y="-5.0"/>
      <point x="155.14285714285714" y="30.285714285714285"/>
      <point x="155.14285714285714" y="68.14285714285714" type="curve" smooth="yes"/>
      <point x="155.14285714285714" y="100.57142857142857"/>
      <point x="138.42857142857142" y="124.14285714285714"/>
      <point x="101.14285714285714" y="124.14285714285714" type="curve" smooth="yes"/>
      <point x="60.857142857142854" y="124.14285714285714"/>
      <point x="32.857142857142854" y="88.85714285714286"/>
      <point x="32.857142857142854" y="51.0" type="curve" smooth="yes"/>
      <point x="32.857142857142854" y="18.57142857142857"/>
      <point x="49.57142857142857" y="-5.0"/>
    </contour>
  </outline>
</glyph>
<glyph name="slash" format="2">
  <advance width="284.0"/>
  <unicode hex="002F"/>
  <outline>
    <contour>
      <point x="-60.0" y="-120.0" type="line"/>
      <point x="-9.0" y="-120.0" type="line"/>
      <point x="344.0" y="750.0" type="line"/>
      <point x="293.0" y="750.0" type="line"/>
    </contour>
  </outline>
</glyph>
<glyph name="zero" format="2">
  <advance width="542.8571428571429"/>
  <unicode hex="0030"/>
  <outline>
    <contour>
      <point x="211.85714285714286" y="-10.0" type="curve" smooth="yes"/>
      <point x="371.0" y="-10.0"/>
      <point x="500.0" y="206.14285714285714"/>
      <point x="500.0" y="438.14285714285717" type="curve" smooth="yes"/>
      <point x="500.0" y="583.8571428571429"/>
      <point x="439.85714285714283" y="670.0"/>
      <point x="330.42857142857144" y="670.0" type="curve" smooth="yes"/>
      <point x="171.28571428571428" y="670.0"/>
      <point x="42.714285714285715" y="453.85714285714283"/>
      <point x="42.714285714285715" y="221.28571428571428" type="curve" smooth="yes"/>
      <point x="42.714285714285715" y="76.14285714285714"/>
      <point x="102.85714285714286" y="-10.0"/>
    </contour>
    <contour>
      <point x="231.0" y="36.57142857142857" type="curve" smooth="yes"/>
      <point x="185.0" y="36.57142857142857"/>
      <point x="167.28571428571428" y="94.57142857142857"/>
      <point x="167.28571428571428" y="193.71428571428572" type="curve" smooth="yes"/>
      <point x="167.28571428571428" y="390.57142857142856"/>
      <point x="229.42857142857144" y="623.4285714285714"/>
      <point x="312.14285714285717" y="623.4285714285714" type="curve" smooth="yes"/>
      <point x="358.57142857142856" y="623.4285714285714"/>
      <point x="376.2857142857143" y="565.8571428571429"/>
      <point x="376.2857142857143" y="467.0" type="curve" smooth="yes"/>
      <point x="376.2857142857143" y="270.7142857142857"/>
      <point x="313.2857142857143" y="36.57142857142857"/>
    </contour>
  </outline>
</glyph>
<glyph name="one" format="2">
  <advance width="542.8571428571429"/>
  <unicode hex="0031"/>
  <outline>
    <contour>
      <point x="88.0" y="0.0" type="line"/>
      <point x="375.1428571428571" y="0.0" type="line"/>
      <point x="378.1428571428571" y="16.0" type="line"/>
      <point x="302.1428571428571" y="56.857142857142854" type="line"/>
      <point x="407.85714285714283" y="660.0" type="line"/>
      <point x="354.0" y="660.0" type="line"/>
      <point x="114.14285714285714" y="510.0" type="line"/>
      <point x="106.71428571428571" y="470.2857142857143" type="line"/>
      <point x="272.14285714285717" y="549.7142857142857" type="line"/>
      <point x="185.28571428571428" y="56.857142857142854" type="line"/>
      <point x="91.57142857142857" y="16.0" type="line"/>
    </contour>
  </outline>
</glyph>
<glyph name="two" format="2">
  <advance width="542.8571428571429"/>
  <unicode hex="0032"/>
  <outline>
    <contour>
      <point x="9.285714285714285" y="0.0" type="line"/>
      <point x="419.2857142857143" y="0.0" type="line"/>
      <point x="462.42857142857144" y="202.14285714285714" type="line"/>
      <point x="446.42857142857144" y="202.14285714285714" type="line"/>
      <point x="375.7142857142857" y="98.28571428571428" type="line"/>
      <point x="104.42857142857142" y="98.28571428571428" type="line"/>
      <point x="89.42857142857142" y="55.42857142857143" type="line"/>
      <point x="426.57142857142856" y="341.14285714285717"/>
      <point x="498.85714285714283" y="414.42857142857144"/>
      <point x="498.85714285714283" y="523.4285714285714" type="curve" smooth="yes"/>
      <point x="498.85714285714283" y="610.2857142857143"/>
      <point x="429.42857142857144" y="670.0"/>
      <point x="337.0" y="670.0" type="curve" smooth="yes"/>
      <point x="253.0" y="670.0"/>
      <point x="216.14285714285714" y="643.7142857142857"/>
      <point x="165.71428571428572" y="609.2857142857143" type="curve" smooth="yes"/>
      <point x="112.42857142857143" y="572.8571428571429"/>
      <point x="92.42857142857143" y="532.4285714285714"/>
      <point x="85.57142857142857" y="494.42857142857144" type="curve" smooth="yes"/>
      <point x="79.42857142857143" y="457.42857142857144"/>
      <point x="92.14285714285714" y="457.0"/>
      <point x="116.71428571428571" y="457.0" type="curve" smooth="yes"/>
      <point x="168.14285714285714" y="457.0" type="line"/>
      <point x="178.42857142857142" y="468.2857142857143" type="line"/>
      <point x="184.85714285714286" y="507.42857142857144" type="line" smooth="yes"/>
      <point x="197.0" y="580.0"/>
      <point x="228.28571428571428" y="619.5714285714286"/>
      <point x="287.42857142857144" y="619.5714285714286" type="curve" smooth="yes"/>
      <point x="339.0" y="619.5714285714286"/>
      <point x="376.2857142857143" y="581.7142857142857"/>
      <point x="376.2857142857143" y="525.0" type="curve" smooth="yes"/>
      <point x="376.2857142857143" y="420.7142857142857"/>
      <point x="338.0" y="351.85714285714283"/>
      <point x="16.0" y="33.57142857142857" type="curve"/>
    </contour>
  </outline>
</glyph>
<glyph name="three" format="2">
  <advance width="542.8571428571429"/>
  <unicode hex="0033"/>
  <outline>
    <contour>
      <point x="200.42857142857142" y="-10.0" type="curve" smooth="yes"/>
      <point x="341.85714285714283" y="-10.0"/>
      <point x="463.57142857142856" y="92.14285714285714"/>
      <point x="463.57142857142856" y="202.57142857142856" type="curve" smooth="yes"/>
      <point x="463.57142857142856" y="300.42857142857144"/>
      <point x="381.2857142857143" y="363.0"/>
      <point x="235.0" y="363.0" type="curve"/>
      <point x="229.14285714285714" y="351.42857142857144" type="line"/>
      <point x="231.57142857142856" y="351.42857142857144"/>
      <point x="233.57142857142856" y="351.42857142857144"/>
      <point x="236.0" y="351.42857142857144" type="curve" smooth="yes"/>
      <point x="375.57142857142856" y="351.42857142857144"/>
      <point x="486.85714285714283" y="432.0"/>
      <point x="486.85714285714283" y="530.2857142857143" type="curve" smooth="yes"/>
      <point x="486.85714285714283" y="606.0"/>
      <point x="419.85714285714283" y="670.0"/>
      <point x="314.0" y="670.0" type="curve" smooth="yes"/>
      <point x="251.14285714285714" y="670.0"/>
      <point x="208.14285714285714" y="652.4285714285714"/>
      <point x="164.0" y="621.2857142857143" type="curve" smooth="yes"/>
      <point x="115.0" y="588.4285714285714"/>
      <point x="90.57142857142857" y="548.4285714285714"/>
      <point x="90.57142857142857" y="512.8571428571429" type="curve" smooth="yes"/>
      <point x="90.57142857142857" y="492.14285714285717"/>
      <point x="101.57142857142857" y="488.7142857142857"/>
      <point x="122.14285714285714" y="488.7142857142857" type="curve" smooth="yes"/>
      <point x="175.85714285714286" y="488.7142857142857" type="line"/>
      <point x="186.14285714285714" y="498.85714285714283" type="line"/>
      <point x="192.57142857142856" y="540.8571428571429" type="line" smooth="yes"/>
      <point x="201.57142857142856" y="599.7142857142857"/>
      <point x="238.28571428571428" y="627.8571428571429"/>
      <point x="289.0" y="627.8571428571429" type="curve" smooth="yes"/>
      <point x="337.42857142857144" y="627.8571428571429"/>
      <point x="364.0" y="591.2857142857143"/>
      <point x="364.0" y="535.2857142857143" type="curve" smooth="yes"/>
      <point x="364.0" y="441.2857142857143"/>
      <point x="292.85714285714283" y="364.85714285714283"/>
      <point x="188.14285714285714" y="364.85714285714283" type="curve" smooth="yes"/>
      <point x="158.57142857142858" y="364.85714285714283" type="line"/>
      <point x="150.0" y="318.2857142857143" type="line"/>
      <point x="209.71428571428572" y="318.2857142857143" type="line" smooth="yes"/>
      <point x="293.57142857142856" y="318.2857142857143"/>
      <point x="339.2857142857143" y="272.2857142857143"/>
      <point x="339.2857142857143" y="200.14285714285714" type="curve" smooth="yes"/>
      <point x="339.2857142857143" y="100.0"/>
      <point x="282.2857142857143" y="32.14285714285714"/>
      <point x="200.85714285714286" y="32.14285714285714" type="curve" smooth="yes"/>
      <point x="134.28571428571428" y="32.14285714285714"/>
      <point x="105.85714285714286" y="59.42857142857143"/>
      <point x="114.57142857142857" y="111.0" type="curve" smooth="yes"/>
      <point x="120.0" y="145.28571428571428" type="line"/>
      <point x="113.71428571428571" y="154.85714285714286" type="line"/>
      <point x="53.14285714285714" y="154.85714285714286" type="line" smooth="yes"/>
      <point x="30.285714285714285" y="154.85714285714286"/>
      <point x="16.0" y="142.85714285714286"/>
      <point x="16.0" y="104.0" type="curve" smooth="yes"/>
      <point x="16.0" y="77.57142857142857"/>
      <point x="28.285714285714285" y="56.42857142857143"/>
      <point x="52.0" y="36.0" type="curve" smooth="yes"/>
      <point x="81.28571428571428" y="10.0"/>
      <point x="130.42857142857142" y="-10.0"/>
    </contour>
  </outline>
</glyph>
<glyph name="four" format="2">
  <advance width="542.8571428571429"/>
  <unicode hex="0034"/>
  <outline>
    <contour>
      <point x="224.14285714285714" y="0.0" type="line"/>
      <point x="341.85714285714283" y="0.0" type="line"/>
      <point x="457.57142857142856" y="660.0" type="line"/>
      <point x="408.0" y="660.0" type="line"/>
      <point x="6.571428571428571" y="208.28571428571428" type="line"/>
      <point x="1.4285714285714288" y="180.14285714285714" type="line"/>
      <point x="484.7142857142857" y="180.14285714285714" type="line"/>
      <point x="496.42857142857144" y="251.71428571428572" type="line"/>
      <point x="49.285714285714285" y="251.71428571428572" type="line"/>
      <point x="68.57142857142857" y="212.28571428571428" type="line"/>
      <point x="382.42857142857144" y="573.1428571428571" type="line"/>
      <point x="322.14285714285717" y="556.0" type="line"/>
    </contour>
  </outline>
</glyph>
<glyph name="five" format="2">
  <advance width="542.8571428571429"/>
  <unicode hex="0035"/>
  <outline>
    <contour>
      <point x="176.85714285714286" y="-10.0" type="curve" smooth="yes"/>
      <point x="337.42857142857144" y="-10.0"/>
      <point x="456.8571428571429" y="112.42857142857143"/>
      <point x="456.8571428571429" y="244.14285714285714" type="curve" smooth="yes"/>
      <point x="456.8571428571429" y="355.85714285714283"/>
      <point x="382.85714285714283" y="432.14285714285717"/>
      <point x="233.14285714285714" y="432.14285714285717" type="curve" smooth="yes"/>
      <point x="200.42857142857142" y="432.14285714285717"/>
      <point x="176.14285714285714" y="430.2857142857143"/>
      <point x="152.14285714285714" y="428.2857142857143" type="curve"/>
      <point x="154.28571428571428" y="402.0" type="line"/>
      <point x="194.57142857142856" y="626.0" type="line"/>
      <point x="169.85714285714286" y="565.8571428571429" type="line"/>
      <point x="461.85714285714283" y="565.8571428571429" type="line"/>
      <point x="479.7142857142857" y="660.0" type="line"/>
      <point x="153.14285714285714" y="660.0" type="line"/>
      <point x="90.0" y="315.42857142857144" type="line"/>
      <point x="125.14285714285714" y="321.0"/>
      <point x="152.28571428571428" y="324.42857142857144"/>
      <point x="181.28571428571428" y="324.42857142857144" type="curve" smooth="yes"/>
      <point x="292.8571428571429" y="324.42857142857144"/>
      <point x="344.8571428571429" y="275.0238095237143"/>
      <point x="344.8571428571429" y="190.0" type="curve" smooth="yes"/>
      <point x="344.8571428571429" y="93.81218781218571"/>
      <point x="284.94259012" y="37.42857142857143"/>
      <point x="209.14285714285714" y="37.42857142857143" type="curve" smooth="yes"/>
      <point x="154.71262458485714" y="37.42857142857143"/>
      <point x="129.80347221714285" y="62.732440490914286"/>
      <point x="115.85714285714286" y="102.85714285714286" type="curve" smooth="yes"/>
      <point x="106.85714285714286" y="127.57142857142857" type="line"/>
      <point x="94.85714285714286" y="127.57142857142857" type="line"/>
      <point x="42.714285714285715" y="91.57142857142857" type="line" smooth="yes"/>
      <point x="28.142857142857142" y="82.0"/>
      <point x="20.857142857142858" y="71.85714285714286"/>
      <point x="20.42857142857143" y="61.714285714285715" type="curve" smooth="yes"/>
      <point x="18.714748593885716" y="27.861193053557145"/>
      <point x="71.28571428571429" y="-10.0"/>
    </contour>
  </outline>
</glyph>
<glyph name="six" format="2">
  <advance width="542.8571428571429"/>
  <unicode hex="0036"/>
  <outline>
    <contour>
      <point x="229.42857142857142" y="-10.0" type="curve" smooth="yes"/>
      <point x="360.57142857142856" y="-10.0"/>
      <point x="472.8571428571429" y="83.28571428571429"/>
      <point x="472.8571428571429" y="230.57142857142858" type="curve" smooth="yes"/>
      <point x="472.8571428571429" y="324.7142857142857"/>
      <point x="425.2857142857143" y="392.2857142857143"/>
      <point x="326.2857142857143" y="392.2857142857143" type="curve" smooth="yes"/>
      <point x="240.85714285714286" y="392.2857142857143"/>
      <point x="171.85714285714286" y="331.2857142857143"/>
      <point x="133.71428571428572" y="238.71428571428572" type="curve"/>
      <point x="136.85714285714286" y="205.14285714285714" type="line"/>
      <point x="163.14285714285714" y="279.0"/>
      <point x="221.28571428571428" y="323.0"/>
      <point x="279.57142857142856" y="323.0" type="curve" smooth="yes"/>
      <point x="330.0" y="323.0"/>
      <point x="355.42857142857144" y="287.85714285714283"/>
      <point x="355.42857142857144" y="217.28571428571428" type="curve" smooth="yes"/>
      <point x="355.42857142857144" y="107.0"/>
      <point x="303.85714285714283" y="34.857142857142854"/>
      <point x="236.0" y="34.857142857142854" type="curve" smooth="yes"/>
      <point x="186.14285714285714" y="34.857142857142854"/>
      <point x="154.42857142857142" y="75.14285714285714"/>
      <point x="154.42857142857142" y="163.85714285714286" type="curve" smooth="yes"/>
      <point x="154.42857142857142" y="348.7142857142857"/>
      <point x="246.28571428571428" y="557.7142857142857"/>
      <point x="491.7142857142857" y="638.4285714285714" type="curve"/>
      <point x="498.14285714285717" y="670.0" type="line"/>
      <point x="200.42857142857142" y="602.4285714285714"/>
      <point x="33.57142857142857" y="405.57142857142856"/>
      <point x="33.57142857142857" y="194.28571428571428" type="curve" smooth="yes"/>
      <point x="33.57142857142857" y="71.0"/>
      <point x="102.42857142857143" y="-10.0"/>
    </contour>
  </outline>
</glyph>
<glyph name="seven" format="2">
  <advance width="542.8571428571429"/>
  <unicode hex="0037"/>
  <outline>
    <contour>
      <point x="69.57142857142857" y="0.0" type="curve"/>
      <point x="188.57142857142856" y="0.0" type="line"/>
      <point x="284.2857142857143" y="269.7142857142857"/>
      <point x="406.1428571428571" y="446.42857142857144"/>
      <point x="527.7142857142857" y="627.1428571428571" type="curve"/>
      <point x="533.2857142857143" y="660.0" type="line"/>
      <point x="118.28571428571428" y="660.0" type="line"/>
      <point x="98.14285714285714" y="547.4285714285714" type="line"/>
      <point x="457.14285714285717" y="547.4285714285714" type="line"/>
      <point x="485.42857142857144" y="626.0" type="line"/>
      <point x="242.85714285714286" y="293.7142857142857"/>
      <point x="160.85714285714286" y="158.42857142857142"/>
    </contour>
  </outline>
</glyph>
<glyph name="eight" format="2">
  <advance width="542.8571428571429"/>
  <unicode hex="0038"/>
  <outline>
    <contour>
      <point x="219.57142857142856" y="-10.0" type="curve" smooth="yes"/>
      <point x="354.4827586208571" y="-10.0"/>
      <point x="459.1428571428571" y="74.57142857142857"/>
      <point x="459.1428571428571" y="185.57142857142858" type="curve" smooth="yes"/>
      <point x="459.1428571428571" y="255.0"/>
      <point x="429.61030101157144" y="310.8549257532857"/>
      <point x="319.0" y="379.85714285714283" type="curve" smooth="yes"/>
      <point x="231.651975769" y="434.62000772514284"/>
      <point x="216.14285714285714" y="477.023809524"/>
      <point x="216.14285714285714" y="521.4285714285714" type="curve" smooth="yes"/>
      <point x="216.14285714285714" y="578.857142857"/>
      <point x="248.28571428571428" y="626.2857142857143"/>
      <point x="314.85714285714283" y="626.2857142857143" type="curve" smooth="yes"/>
      <point x="370.0" y="626.2857142857143"/>
      <point x="403.85714285714283" y="592.1428571428571"/>
      <point x="403.85714285714283" y="527.8571428571429" type="curve" smooth="yes"/>
      <point x="403.85714285714283" y="461.2857142857143"/>
      <point x="380.04046191142857" y="429.5050342628571"/>
      <point x="297.85714285714283" y="378.0" type="curve"/>
      <point x="316.2857142857143" y="348.0" type="line"/>
      <point x="438.7142857142857" y="399.42857142857144"/>
      <point x="497.85714285714283" y="452.14285714285717"/>
      <point x="497.85714285714283" y="523.2857142857143" type="curve" smooth="yes"/>
      <point x="497.85714285714283" y="606.7142857142857"/>
      <point x="428.2857142857143" y="670.0"/>
      <point x="323.14285714285717" y="670.0" type="curve" smooth="yes"/>
      <point x="200.0" y="670.0"/>
      <point x="101.71428571428572" y="582.5154343145714"/>
      <point x="101.71428571428572" y="477.14285714285717" type="curve" smooth="yes"/>
      <point x="101.71428571428572" y="411.58499600942855"/>
      <point x="131.10912503942856" y="365.80333926"/>
      <point x="219.14285714285714" y="307.42857142857144" type="curve" smooth="yes"/>
      <point x="313.08891133414284" y="246.92657327314285"/>
      <point x="347.14285714285717" y="213.46254355414285"/>
      <point x="347.14285714285717" y="146.71428571428572" type="curve" smooth="yes"/>
      <point x="347.14285714285717" y="78.67236024842857"/>
      <point x="302.02431610928573" y="33.14285714285714"/>
      <point x="230.71428571428572" y="33.14285714285714" type="curve" smooth="yes"/>
      <point x="163.28571428571428" y="33.14285714285714"/>
      <point x="122.0" y="73.84555984557143"/>
      <point x="122.0" y="144.71428571428572" type="curve" smooth="yes"/>
      <point x="122.0" y="217.36263736257143"/>
      <point x="143.0886577487143" y="249.65827272228572"/>
      <point x="229.42857142857142" y="312.14285714285717" type="curve"/>
      <point x="216.28571428571428" y="341.14285714285717" type="line"/>
      <point x="95.8840420297143" y="283.90728173185715"/>
      <point x="23.0" y="224.86381842471428"/>
      <point x="23.0" y="135.57142857142858" type="curve" smooth="yes"/>
      <point x="23.0" y="46.415966386557145"/>
      <point x="104.54072096128571" y="-10.0"/>
    </contour>
  </outline>
</glyph>
<glyph name="nine" format="2">
  <advance width="542.8571428571429"/>
  <unicode hex="0039"/>
  <outline>
    <contour>
      <point x="36.57142857142857" y="-10.0" type="line"/>
      <point x="332.57142857142856" y="58.42857142857143"/>
      <point x="501.14285714285717" y="254.42857142857142"/>
      <point x="501.14285714285717" y="465.7142857142857" type="curve" smooth="yes"/>
      <point x="501.14285714285717" y="589.0"/>
      <point x="432.2857142857143" y="670.0"/>
      <point x="305.2857142857143" y="670.0" type="curve" smooth="yes"/>
      <point x="174.14285714285714" y="670.0"/>
      <point x="61.85714285714286" y="576.7142857142857"/>
      <point x="61.85714285714286" y="429.42857142857144" type="curve" smooth="yes"/>
      <point x="61.85714285714286" y="335.2857142857143"/>
      <point x="109.42857142857143" y="267.7142857142857"/>
      <point x="208.42857142857144" y="267.7142857142857" type="curve" smooth="yes"/>
      <point x="293.8571428571429" y="267.7142857142857"/>
      <point x="362.8571428571429" y="328.7142857142857"/>
      <point x="401.0" y="421.2857142857143" type="curve"/>
      <point x="397.85714285714283" y="454.85714285714283" type="line"/>
      <point x="371.57142857142856" y="381.0"/>
      <point x="313.42857142857144" y="337.0"/>
      <point x="255.14285714285714" y="337.0" type="curve" smooth="yes"/>
      <point x="204.71428571428572" y="337.0"/>
      <point x="179.28571428571428" y="372.14285714285717"/>
      <point x="179.28571428571428" y="442.7142857142857" type="curve" smooth="yes"/>
      <point x="179.28571428571428" y="553.0"/>
      <point x="230.85714285714286" y="625.1428571428571"/>
      <point x="298.7142857142857" y="625.1428571428571" type="curve" smooth="yes"/>
      <point x="348.57142857142856" y="625.1428571428571"/>
      <point x="380.2857142857143" y="584.8571428571429"/>
      <point x="380.2857142857143" y="496.14285714285717" type="curve" smooth="yes"/>
      <point x="380.2857142857143" y="311.2857142857143"/>
      <point x="288.42857142857144" y="102.28571428571429"/>
      <point x="43.0" y="21.57142857142857" type="curve"/>
    </contour>
  </outline>
</glyph>
<glyph name="less" format="2">
  <advance width="542.8571428571429"/>
  <unicode hex="003C"/>
  <outline>
    <contour>
      <point x="431.57142857142856" y="62.0" type="line"/>
      <point x="440.85714285714283" y="114.57142857142857" type="line"/>
      <point x="81.71428571428572" y="286.57142857142856" type="line"/>
      <point x="75.14285714285714" y="252.0" type="line"/>
      <point x="495.14285714285717" y="424.0" type="line"/>
      <point x="505.0" y="482.0" type="line"/>
      <point x="53.0" y="297.0" type="line"/>
      <point x="45.0" y="247.0" type="line"/>
    </contour>
  </outline>
</glyph>
<glyph name="equal" format="2">
  <advance width="542.8571428571429"/>
  <unicode hex="003D"/>
  <outline>
    <contour>
      <point x="453.42857142857144" y="144.85714285714286" type="line"/>
      <point x="462.2857142857143" y="195.14285714285714" type="line"/>
      <point x="43.42857142857143" y="195.14285714285714" type="line"/>
      <point x="34.57142857142857" y="144.85714285714286" type="line"/>
    </contour>
    <contour>
      <point x="489.42857142857144" y="348.85714285714283" type="line"/>
      <point x="498.2857142857143" y="399.14285714285717" type="line"/>
      <point x="79.42857142857143" y="399.14285714285717" type="line"/>
      <point x="70.57142857142857" y="348.85714285714283" type="line"/>
    </contour>
  </outline>
</glyph>
<glyph name="greater" format="2">
  <advance width="542.8571428571429"/>
  <unicode hex="003E"/>
  <outline>
    <contour>
      <point x="95.57142857142857" y="482.0" type="line"/>
      <point x="86.28571428571428" y="429.42857142857144" type="line"/>
      <point x="445.42857142857144" y="257.42857142857144" type="line"/>
      <point x="452.0" y="292.0" type="line"/>
      <point x="32.0" y="120.0" type="line"/>
      <point x="22.142857142857142" y="62.0" type="line"/>
      <point x="474.14285714285717" y="247.0" type="line"/>
      <point x="482.14285714285717" y="297.0" type="line"/>
    </contour>
  </outline>
</glyph>
<glyph name="question" format="2">
  <advance width="399.2857142857143"/>
  <unicode hex="003F"/>
  <outline>
    <contour>
      <point x="159.14285714285714" y="207.71428571428572" type="curve"/>
      <point x="181.57142857142858" y="214.57142857142858" type="line"/>
      <point x="169.14285714285714" y="230.28571428571428"/>
      <point x="161.71428571428572" y="246.0"/>
      <point x="161.71428571428572" y="267.8571428571429" type="curve" smooth="yes"/>
      <point x="161.71428571428572" y="385.14285714285717"/>
      <point x="375.7142857142857" y="327.2857142857143"/>
      <point x="375.7142857142857" y="488.2857142857143" type="curve" smooth="yes"/>
      <point x="375.7142857142857" y="587.7142857142857"/>
      <point x="246.71428571428572" y="670.0"/>
      <point x="150.0" y="670.0" type="curve" smooth="yes"/>
      <point x="102.0" y="670.0"/>
      <point x="89.0" y="659.0"/>
      <point x="89.0" y="644.0" type="curve" smooth="yes"/>
      <point x="89.0" y="639.0"/>
      <point x="90.42857142857143" y="632.5714285714286"/>
      <point x="94.0" y="625.0" type="curve" smooth="yes"/>
      <point x="117.28571428571428" y="571.0" type="line"/>
      <point x="131.14285714285714" y="565.5714285714286" type="line"/>
      <point x="172.57142857142856" y="574.1428571428571" type="line" smooth="yes"/>
      <point x="188.28571428571428" y="577.7142857142857"/>
      <point x="212.42857142857142" y="579.1428571428571"/>
      <point x="225.57142857142856" y="579.1428571428571" type="curve" smooth="yes"/>
      <point x="279.14285714285717" y="579.1428571428571"/>
      <point x="331.0" y="560.2857142857143"/>
      <point x="331.0" y="516.5714285714286" type="curve" smooth="yes"/>
      <point x="331.0" y="432.85714285714283"/>
      <point x="104.42857142857143" y="468.7142857142857"/>
      <point x="104.42857142857143" y="318.7142857142857" type="curve" smooth="yes"/>
      <point x="104.42857142857143" y="278.14285714285717"/>
      <point x="124.71428571428571" y="242.0"/>
    </contour>
    <contour>
      <point x="129.71428571428572" y="-5.0" type="curve" smooth="yes"/>
      <point x="171.0" y="-5.0"/>
      <point x="198.0" y="30.285714285714285"/>
      <point x="198.0" y="68.14285714285714" type="curve" smooth="yes"/>
      <point x="198.0" y="100.57142857142857"/>
      <point x="181.28571428571428" y="124.14285714285714"/>
      <point x="144.0" y="124.14285714285714" type="curve" smooth="yes"/>
      <point x="103.71428571428571" y="124.14285714285714"/>
      <point x="75.71428571428571" y="88.85714285714286"/>
      <point x="75.71428571428571" y="51.0" type="curve" smooth="yes"/>
      <point x="75.71428571428571" y="18.57142857142857"/>
      <point x="92.42857142857143" y="-5.0"/>
    </contour>
  </outline>
</glyph>
<glyph name="at" format="2">
  <advance width="797.7142857142857"/>
  <unicode hex="0040"/>
  <outline>
    <contour>
      <point x="365.42857142857144" y="-118.0" type="curve" smooth="yes"/>
      <point x="467.85714285714283" y="-118.0"/>
      <point x="540.7142857142857" y="-92.85714285714286"/>
      <point x="610.7142857142857" y="-48.857142857142854" type="curve"/>
      <point x="600.4285714285714" y="-27.0" type="line"/>
      <point x="542.7142857142857" y="-66.42857142857143"/>
      <point x="479.42857142857144" y="-87.14285714285714"/>
      <point x="392.42857142857144" y="-87.14285714285714" type="curve" smooth="yes"/>
      <point x="234.85714285714286" y="-87.14285714285714"/>
      <point x="125.42857142857143" y="13.571428571428571"/>
      <point x="125.42857142857143" y="186.0" type="curve" smooth="yes"/>
      <point x="125.42857142857143" y="378.2857142857143"/>
      <point x="245.85714285714286" y="533.0"/>
      <point x="431.42857142857144" y="533.0" type="curve" smooth="yes"/>
      <point x="591.1428571428571" y="533.0"/>
      <point x="695.0" y="422.2857142857143"/>
      <point x="695.0" y="281.0" type="curve" smooth="yes"/>
      <point x="695.0" y="170.71428571428572"/>
      <point x="632.5714285714286" y="67.57142857142857"/>
      <point x="565.2857142857143" y="67.57142857142857" type="curve" smooth="yes"/>
      <point x="536.5714285714286" y="67.57142857142857"/>
      <point x="532.4285714285714" y="83.85714285714286"/>
      <point x="541.1428571428571" y="133.0" type="curve" smooth="yes"/>
      <point x="593.2857142857143" y="425.14285714285717" type="line"/>
      <point x="573.0" y="425.14285714285717" type="line"/>
      <point x="513.8571428571429" y="399.14285714285717" type="line"/>
      <point x="548.4285714285714" y="394.85714285714283" type="line"/>
      <point x="530.8571428571429" y="415.0"/>
      <point x="496.42857142857144" y="429.0"/>
      <point x="456.42857142857144" y="429.0" type="curve" smooth="yes"/>
      <point x="337.2857142857143" y="429.0"/>
      <point x="215.0" y="293.0"/>
      <point x="215.0" y="135.0" type="curve" smooth="yes"/>
      <point x="215.0" y="60.57142857142857"/>
      <point x="249.57142857142858" y="21.0"/>
      <point x="296.0" y="21.0" type="curve" smooth="yes"/>
      <point x="354.7142857142857" y="21.0"/>
      <point x="400.7142857142857" y="62.0"/>
      <point x="452.85714285714283" y="142.85714285714286" type="curve"/>
      <point x="462.42857142857144" y="186.71428571428572" type="line"/>
      <point x="435.57142857142856" y="143.71428571428572"/>
      <point x="397.0" y="93.57142857142857"/>
      <point x="358.0" y="93.57142857142857" type="curve" smooth="yes"/>
      <point x="326.42857142857144" y="93.57142857142857"/>
      <point x="316.7142857142857" y="119.85714285714286"/>
      <point x="316.7142857142857" y="177.57142857142856" type="curve" smooth="yes"/>
      <point x="316.7142857142857" y="287.7142857142857"/>
      <point x="362.0" y="391.14285714285717"/>
      <point x="427.57142857142856" y="391.14285714285717" type="curve" smooth="yes"/>
      <point x="454.42857142857144" y="391.14285714285717"/>
      <point x="471.42857142857144" y="378.14285714285717"/>
      <point x="489.0" y="355.0" type="curve"/>
      <point x="484.85714285714283" y="373.0" type="line"/>
      <point x="442.2857142857143" y="128.42857142857142" type="line" smooth="yes"/>
      <point x="430.2857142857143" y="59.14285714285714"/>
      <point x="454.0" y="21.0"/>
      <point x="516.4285714285714" y="21.0" type="curve" smooth="yes"/>
      <point x="656.5714285714286" y="21.0"/>
      <point x="742.0" y="156.0"/>
      <point x="742.0" y="284.0" type="curve" smooth="yes"/>
      <point x="742.0" y="445.0"/>
      <point x="630.5714285714286" y="562.0"/>
      <point x="453.42857142857144" y="562.0" type="curve" smooth="yes"/>
      <point x="232.85714285714286" y="562.0"/>
      <point x="55.714285714285715" y="381.42857142857144"/>
      <point x="55.714285714285715" y="167.85714285714286" type="curve" smooth="yes"/>
      <point x="55.714285714285715" y="-4.571428571428571"/>
      <point x="181.42857142857142" y="-118.0"/>
    </contour>
  </outline>
</glyph>
<glyph name="A" format="2">
  <advance width="716.7142857142857"/>
  <unicode hex="0041"/>
  <anchor x="426.1428571428571" y="710.0" name="top"/>
  <anchor x="527.4285714285714" y="0.0" name="right"/>
  <anchor x="270.2857142857143" y="0.0" name="bottom"/>
  <outline>
    <contour>
      <point x="-27.857142857142854" y="0.0" type="line"/>
      <point x="169.57142857142858" y="0.0" type="line"/>
      <point x="173.0" y="16.0" type="line"/>
      <point x="88.28571428571428" y="52.57142857142857" type="line"/>
      <point x="84.85714285714286" y="28.0" type="line"/>
      <point x="389.85714285714283" y="573.2857142857143" type="line"/>
      <point x="351.57142857142856" y="573.2857142857143" type="line"/>
      <point x="460.0" y="28.0" type="line"/>
      <point x="475.85714285714283" y="59.71428571428571" type="line"/>
      <point x="367.0" y="16.0" type="line"/>
      <point x="364.0" y="0.0" type="line"/>
      <point x="638.2857142857142" y="0.0" type="line"/>
      <point x="641.8571428571429" y="16.0" type="line"/>
      <point x="554.0" y="68.85714285714286" type="line"/>
      <point x="588.1428571428571" y="28.0" type="line"/>
      <point x="453.85714285714283" y="665.0" type="line"/>
      <point x="385.14285714285717" y="665.0" type="line"/>
      <point x="22.857142857142858" y="28.0" type="line"/>
      <point x="64.42857142857143" y="63.57142857142857" type="line"/>
      <point x="-24.285714285714285" y="16.0" type="line"/>
    </contour>
    <contour>
      <point x="164.14285714285714" y="224.71428571428572" type="line"/>
      <point x="488.2857142857143" y="224.71428571428572" type="line"/>
      <point x="498.7142857142857" y="276.85714285714283" type="line"/>
      <point x="174.57142857142858" y="276.85714285714283" type="line"/>
    </contour>
  </outline>
</glyph>
<glyph name="B" format="2">
  <advance width="648.2857142857142"/>
  <unicode hex="0042"/>
  <outline>
    <contour>
      <point x="-7.142857142857142" y="0.0" type="line"/>
      <point x="192.42857142857142" y="0.0" type="line"/>
      <point x="308.42857142857144" y="660.0" type="line"/>
      <point x="108.85714285714286" y="660.0" type="line"/>
      <point x="105.85714285714286" y="644.0" type="line"/>
      <point x="176.57142857142858" y="603.1428571428571" type="line"/>
      <point x="80.57142857142857" y="56.857142857142854" type="line"/>
      <point x="-4.142857142857142" y="16.0" type="line"/>
    </contour>
    <contour>
      <point x="300.42857142857144" y="0.0" type="line" smooth="yes"/>
      <point x="492.1428571428571" y="0.0"/>
      <point x="590.4285714285714" y="102.57142857142857"/>
      <point x="590.4285714285714" y="203.0" type="curve" smooth="yes"/>
      <point x="590.4285714285714" y="300.57142857142856"/>
      <point x="510.8571428571429" y="360.14285714285717"/>
      <point x="352.8571428571429" y="360.14285714285717" type="curve"/>
      <point x="345.8571428571429" y="345.14285714285717" type="line"/>
      <point x="495.2857142857143" y="345.14285714285717"/>
      <point x="587.5714285714286" y="432.85714285714283"/>
      <point x="587.5714285714286" y="521.2857142857143" type="curve" smooth="yes"/>
      <point x="587.5714285714286" y="614.4285714285714"/>
      <point x="499.1428571428571" y="660.0"/>
      <point x="367.2857142857143" y="660.0" type="curve" smooth="yes"/>
      <point x="248.14285714285714" y="660.0" type="line"/>
      <point x="238.28571428571428" y="607.8571428571429" type="line"/>
      <point x="340.2857142857143" y="607.8571428571429" type="line" smooth="yes"/>
      <point x="426.7142857142857" y="607.8571428571429"/>
      <point x="459.0" y="570.4285714285714"/>
      <point x="459.0" y="500.85714285714283" type="curve" smooth="yes"/>
      <point x="459.0" y="423.57142857142856"/>
      <point x="405.2857142857143" y="364.14285714285717"/>
      <point x="302.42857142857144" y="364.14285714285717" type="curve" smooth="yes"/>
      <point x="201.14285714285714" y="364.14285714285717" type="line"/>
      <point x="191.71428571428572" y="316.2857142857143" type="line"/>
      <point x="317.42857142857144" y="316.2857142857143" type="line" smooth="yes"/>
      <point x="416.2857142857143" y="316.2857142857143"/>
      <point x="458.2857142857143" y="280.0"/>
      <point x="458.2857142857143" y="202.14285714285714" type="curve" smooth="yes"/>
      <point x="458.2857142857143" y="118.0"/>
      <point x="405.1428571428571" y="52.14285714285714"/>
      <point x="290.1428571428571" y="52.14285714285714" type="curve" smooth="yes"/>
      <point x="157.0" y="52.14285714285714" type="line"/>
      <point x="147.57142857142856" y="0.0" type="line"/>
    </contour>
  </outline>
</glyph>
<glyph name="C" format="2">
  <advance width="666.0"/>
  <unicode hex="0043"/>
  <anchor x="446.57142857142856" y="710.0" name="top"/>
  <anchor x="327.7142857142857" y="0.0" name="bottom"/>
  <outline>
    <contour>
      <point x="323.85714285714283" y="-10.0" type="curve" smooth="yes"/>
      <point x="420.57142857142856" y="-10.0"/>
      <point x="491.0" y="9.428571428571429"/>
      <point x="548.8571428571429" y="41.142857142857146" type="curve"/>
      <point x="588.5714285714286" y="207.0" type="line"/>
      <point x="571.7142857142857" y="207.0" type="line"/>
      <point x="471.14285714285717" y="78.28571428571428" type="line"/>
      <point x="435.57142857142856" y="57.14285714285714"/>
      <point x="394.7142857142857" y="39.0"/>
      <point x="349.14285714285717" y="39.0" type="curve" smooth="yes"/>
      <point x="247.14285714285714" y="39.0"/>
      <point x="180.42857142857144" y="124.14285714285714"/>
      <point x="180.42857142857144" y="263.7142857142857" type="curve" smooth="yes"/>
      <point x="180.42857142857144" y="459.57142857142856"/>
      <point x="278.57142857142856" y="623.1428571428571"/>
      <point x="434.7142857142857" y="623.1428571428571" type="curve" smooth="yes"/>
      <point x="477.14285714285717" y="623.1428571428571"/>
      <point x="502.0" y="611.1428571428571"/>
      <point x="528.1428571428571" y="586.4285714285714" type="curve"/>
      <point x="585.2857142857143" y="438.8571428571429" type="line"/>
      <point x="602.1428571428571" y="438.8571428571429" type="line"/>
      <point x="624.2857142857143" y="622.0" type="line"/>
      <point x="568.8571428571429" y="653.5714285714286"/>
      <point x="526.1428571428571" y="670.0"/>
      <point x="448.0" y="670.0" type="curve" smooth="yes"/>
      <point x="231.42857142857142" y="670.0"/>
      <point x="51.42857142857143" y="481.0"/>
      <point x="51.42857142857143" y="259.42857142857144" type="curve" smooth="yes"/>
      <point x="51.42857142857143" y="102.28571428571428"/>
      <point x="153.14285714285714" y="-10.0"/>
    </contour>
  </outline>
</glyph>
<glyph name="D" format="2">
  <advance width="742.7142857142857"/>
  <unicode hex="0044"/>
  <anchor x="402.42857142857144" y="710.0" name="top"/>
  <anchor x="313.0" y="0.0" name="bottom"/>
  <outline>
    <contour>
      <point x="-7.142857142857142" y="0.0" type="line"/>
      <point x="190.71428571428572" y="0.0" type="line"/>
      <point x="307.7142857142857" y="660.0" type="line"/>
      <point x="108.85714285714286" y="660.0" type="line"/>
      <point x="105.85714285714286" y="644.0" type="line"/>
      <point x="174.85714285714286" y="604.0" type="line"/>
      <point x="78.85714285714286" y="56.0" type="line"/>
      <point x="-4.142857142857142" y="16.0" type="line"/>
    </contour>
    <contour>
      <point x="283.2857142857143" y="0.0" type="line" smooth="yes"/>
      <point x="546.4285714285714" y="0.0"/>
      <point x="697.0" y="200.0"/>
      <point x="697.0" y="384.7142857142857" type="curve" smooth="yes"/>
      <point x="697.0" y="547.5714285714286"/>
      <point x="589.161038961" y="660.0"/>
      <point x="359.0" y="660.0" type="curve" smooth="yes"/>
      <point x="260.57142857142856" y="660.0" type="line"/>
      <point x="251.57142857142856" y="608.7142857142857" type="line"/>
      <point x="339.42857142857144" y="608.7142857142857" type="line" smooth="yes"/>
      <point x="492.14285714285717" y="608.7142857142857"/>
      <point x="568.4285714285714" y="521.8571428571429"/>
      <point x="568.4285714285714" y="383.0" type="curve" smooth="yes"/>
      <point x="568.4285714285714" y="182.57142857142858"/>
      <point x="463.57142857142856" y="49.14285714285714"/>
      <point x="293.42857142857144" y="49.14285714285714" type="curve" smooth="yes"/>
      <point x="163.42857142857144" y="49.14285714285714" type="line"/>
      <point x="152.71428571428572" y="0.0" type="line"/>
    </contour>
  </outline>
</glyph>
<glyph name="E" format="2">
  <advance width="622.2857142857142"/>
  <unicode hex="0045"/>
  <anchor x="393.0" y="710.0" name="top"/>
  <anchor x="440.57142857142856" y="0.0" name="right"/>
  <anchor x="289.0" y="0.0" name="bottom"/>
  <outline>
    <contour>
      <point x="-7.142857142857142" y="0.0" type="line"/>
      <point x="192.42857142857142" y="0.0" type="line"/>
      <point x="309.0" y="660.0" type="line"/>
      <point x="108.85714285714286" y="660.0" type="line"/>
      <point x="105.85714285714286" y="644.0" type="line"/>
      <point x="176.57142857142858" y="603.1428571428571" type="line"/>
      <point x="80.57142857142857" y="56.857142857142854" type="line"/>
      <point x="-4.142857142857142" y="16.0" type="line"/>
    </contour>
    <contour>
      <point x="549.7142857142857" y="487.14285714285717" type="line"/>
      <point x="565.2857142857142" y="487.14285714285717" type="line"/>
      <point x="595.8571428571429" y="660.0" type="line"/>
      <point x="240.42857142857142" y="660.0" type="line"/>
      <point x="231.0" y="607.8571428571429" type="line"/>
      <point x="505.85714285714283" y="607.8571428571429" type="line"/>
    </contour>
    <contour>
      <point x="430.2857142857143" y="232.0" type="line"/>
      <point x="446.2857142857143" y="232.0" type="line"/>
      <point x="485.2857142857143" y="451.0" type="line"/>
      <point x="469.2857142857143" y="451.0" type="line"/>
      <point x="400.42857142857144" y="364.7142857142857" type="line"/>
      <point x="200.28571428571428" y="364.7142857142857" type="line"/>
      <point x="191.71428571428572" y="316.85714285714283" type="line"/>
      <point x="392.42857142857144" y="316.85714285714283" type="line"/>
    </contour>
    <contour>
      <point x="514.4285714285714" y="0.0" type="line"/>
      <point x="549.4285714285714" y="197.85714285714286" type="line"/>
      <point x="533.4285714285714" y="197.85714285714286" type="line"/>
      <point x="440.1428571428571" y="52.14285714285714" type="line"/>
      <point x="158.71428571428572" y="52.14285714285714" type="line"/>
      <point x="150.57142857142856" y="0.0" type="line"/>
    </contour>
  </outline>
</glyph>
<glyph name="F" format="2">
  <advance width="601.7142857142857"/>
  <unicode hex="0046"/>
  <outline>
    <contour>
      <point x="-7.142857142857142" y="0.0" type="line"/>
      <point x="294.0" y="0.0" type="line"/>
      <point x="297.0" y="16.0" type="line"/>
      <point x="202.42857142857142" y="56.857142857142854" type="line"/>
      <point x="309.0" y="660.0" type="line"/>
      <point x="108.85714285714286" y="660.0" type="line"/>
      <point x="105.85714285714286" y="644.0" type="line"/>
      <point x="176.57142857142858" y="603.1428571428571" type="line"/>
      <point x="80.57142857142857" y="56.857142857142854" type="line"/>
      <point x="-4.142857142857142" y="16.0" type="line"/>
    </contour>
    <contour>
      <point x="545.2857142857143" y="487.14285714285717" type="line"/>
      <point x="561.2857142857142" y="487.14285714285717" type="line"/>
      <point x="591.2857142857142" y="660.0" type="line"/>
      <point x="235.28571428571428" y="660.0" type="line"/>
      <point x="225.28571428571428" y="607.8571428571429" type="line"/>
      <point x="501.2857142857143" y="607.8571428571429" type="line"/>
    </contour>
    <contour>
      <point x="422.85714285714283" y="232.0" type="line"/>
      <point x="438.85714285714283" y="232.0" type="line"/>
      <point x="477.85714285714283" y="451.0" type="line"/>
      <point x="461.8571428571429" y="451.0" type="line"/>
      <point x="393.0" y="364.7142857142857" type="line"/>
      <point x="192.85714285714286" y="364.7142857142857" type="line"/>
      <point x="184.28571428571428" y="316.85714285714283" type="line"/>
      <point x="385.0" y="316.85714285714283" type="line"/>
    </contour>
  </outline>
</glyph>
<glyph name="G" format="2">
  <advance width="718.0"/>
  <unicode hex="0047"/>
  <anchor x="456.1428571428571" y="710.0" name="top"/>
  <anchor x="324.7142857142857" y="0.0" name="bottom"/>
  <outline>
    <contour>
      <point x="313.57142857142856" y="-10.0" type="curve" smooth="yes"/>
      <point x="393.42857142857144" y="-10.0"/>
      <point x="498.1428571428571" y="23.0"/>
      <point x="563.8571428571429" y="74.0" type="curve"/>
      <point x="591.7142857142857" y="234.42857142857144" type="line"/>
      <point x="667.7142857142857" y="281.2857142857143" type="line"/>
      <point x="670.7142857142857" y="297.2857142857143" type="line"/>
      <point x="398.42857142857144" y="297.2857142857143" type="line"/>
      <point x="394.85714285714283" y="281.2857142857143" type="line"/>
      <point x="469.8571428571429" y="236.14285714285714" type="line"/>
      <point x="436.42857142857144" y="44.285714285714285" type="line"/>
      <point x="502.14285714285717" y="82.42857142857143" type="line"/>
      <point x="449.7142857142857" y="55.57142857142857"/>
      <point x="395.42857142857144" y="46.714285714285715"/>
      <point x="350.57142857142856" y="46.714285714285715" type="curve" smooth="yes"/>
      <point x="249.85714285714286" y="46.714285714285715"/>
      <point x="179.42857142857144" y="126.0"/>
      <point x="179.42857142857144" y="261.85714285714283" type="curve" smooth="yes"/>
      <point x="179.42857142857144" y="449.7142857142857"/>
      <point x="285.8571428571429" y="623.1428571428571"/>
      <point x="449.0" y="623.1428571428571" type="curve" smooth="yes"/>
      <point x="497.2857142857143" y="623.1428571428571"/>
      <point x="526.1428571428571" y="612.8571428571429"/>
      <point x="557.0" y="586.0" type="curve"/>
      <point x="613.7142857142857" y="449.2857142857143" type="line"/>
      <point x="629.7142857142857" y="449.2857142857143" type="line"/>
      <point x="652.7142857142857" y="622.0" type="line"/>
      <point x="593.1428571428571" y="655.7142857142857"/>
      <point x="545.7142857142857" y="670.5714285714286"/>
      <point x="456.2857142857143" y="670.5714285714286" type="curve" smooth="yes"/>
      <point x="247.57142857142856" y="670.5714285714286"/>
      <point x="51.42857142857143" y="484.85714285714283"/>
      <point x="51.42857142857143" y="258.57142857142856" type="curve" smooth="yes"/>
      <point x="51.42857142857143" y="101.85714285714286"/>
      <point x="152.71428571428572" y="-10.0"/>
    </contour>
  </outline>
</glyph>
<glyph name="I" format="2">
  <advance width="374.42857142857144"/>
  <unicode hex="0049"/>
  <anchor x="252.0" y="710.0" name="top"/>
  <anchor x="148.0" y="0.0" name="right"/>
  <anchor x="127.0" y="0.0" name="bottom"/>
  <outline>
    <contour>
      <point x="-7.142857142857139" y="0.0" type="line"/>
      <point x="270.7142857142857" y="0.0" type="line"/>
      <point x="273.7142857142857" y="16.0" type="line"/>
      <point x="198.42857142857144" y="56.857142857142854" type="line"/>
      <point x="295.0" y="603.1428571428571" type="line"/>
      <point x="378.57142857142856" y="644.0" type="line"/>
      <point x="381.57142857142856" y="660.0" type="line"/>
      <point x="103.71428571428572" y="660.0" type="line"/>
      <point x="100.71428571428572" y="644.0" type="line"/>
      <point x="173.14285714285714" y="603.1428571428571" type="line"/>
      <point x="76.57142857142857" y="56.857142857142854" type="line"/>
      <point x="-4.142857142857139" y="16.0" type="line"/>
    </contour>
  </outline>
</glyph>
<glyph name="J" format="2">
  <advance width="384.42857142857144"/>
  <unicode hex="004A"/>
  <anchor x="268.7142857142857" y="710.0" name="top"/>
  <outline>
    <contour>
      <point x="-37.857142857142854" y="-173.0" type="curve" smooth="yes"/>
      <point x="6.0" y="-173.0"/>
      <point x="24.71428571428571" y="-157.28571428571428"/>
      <point x="95.28571428571428" y="-87.85714285714286" type="curve" smooth="yes"/>
      <point x="162.71428571428572" y="-22.142857142857146"/>
      <point x="219.71428571428572" y="89.14285714285714"/>
      <point x="245.71428571428572" y="235.28571428571428" type="curve" smooth="yes"/>
      <point x="312.42857142857144" y="603.1428571428571" type="line"/>
      <point x="392.7142857142857" y="644.0" type="line"/>
      <point x="395.2857142857143" y="660.0" type="line"/>
      <point x="117.57142857142857" y="660.0" type="line"/>
      <point x="115.0" y="644.0" type="line"/>
      <point x="190.0" y="603.1428571428571" type="line"/>
      <point x="95.0" y="66.42857142857143" type="line" smooth="yes"/>
      <point x="71.57142857142857" y="-67.57142857142857"/>
      <point x="45.142857142857146" y="-84.57142857142857"/>
      <point x="2.428571428571429" y="-84.57142857142857" type="curve" smooth="yes"/>
      <point x="-14.571428571428571" y="-84.57142857142857"/>
      <point x="-25.714285714285715" y="-81.57142857142857"/>
      <point x="-44.42857142857143" y="-75.57142857142857" type="curve"/>
      <point x="-50.42857142857143" y="-75.57142857142857" type="line"/>
      <point x="-67.28571428571428" y="-126.57142857142857" type="line" smooth="yes"/>
      <point x="-78.09560371404285" y="-158.63531260971428"/>
      <point x="-62.904761904761905" y="-173.0"/>
    </contour>
  </outline>
</glyph>
<glyph name="L" format="2">
  <advance width="586.0"/>
  <unicode hex="004C"/>
  <anchor x="256.57142857142856" y="710.0" name="top"/>
  <anchor x="512.2857142857142" y="660.0" name="right"/>
  <anchor x="487.42857142857144" y="350.42857142857144" name="mid"/>
  <anchor x="263.0" y="0.0" name="bottom"/>
  <outline>
    <contour>
      <point x="-7.142857142857142" y="0.0" type="line"/>
      <point x="485.0" y="0.0" type="line"/>
      <point x="527.0" y="231.85714285714286" type="line"/>
      <point x="511.0" y="231.85714285714286" type="line"/>
      <point x="404.7142857142857" y="52.14285714285714" type="line"/>
      <point x="202.0" y="52.14285714285714" type="line"/>
      <point x="299.0" y="603.1428571428571" type="line"/>
      <point x="393.1428571428571" y="644.0" type="line"/>
      <point x="396.1428571428571" y="660.0" type="line"/>
      <point x="108.85714285714286" y="660.0" type="line"/>
      <point x="105.85714285714286" y="644.0" type="line"/>
      <point x="176.57142857142858" y="603.1428571428571" type="line"/>
      <point x="80.57142857142857" y="56.857142857142854" type="line"/>
      <point x="-4.142857142857142" y="16.0" type="line"/>
    </contour>
  </outline>
</glyph>
<glyph name="M" format="2">
  <advance width="930.1428571428571"/>
  <unicode hex="004D"/>
  <anchor x="391.42857142857144" y="0.0" name="bottom"/>
  <outline>
    <contour>
      <point x="-7.142857142857142" y="0.0" type="line"/>
      <point x="211.57142857142856" y="0.0" type="line"/>
      <point x="215.0" y="16.0" type="line"/>
      <point x="142.0" y="55.857142857142854" type="line"/>
      <point x="261.0" y="635.1428571428571" type="line"/>
      <point x="203.57142857142858" y="635.1428571428571" type="line"/>
      <point x="80.0" y="56.857142857142854" type="line"/>
      <point x="-4.142857142857142" y="16.0" type="line"/>
    </contour>
    <contour>
      <point x="366.85714285714283" y="-5.0" type="line"/>
      <point x="415.2857142857143" y="-5.0" type="line"/>
      <point x="747.2857142857143" y="594.1428571428571" type="line"/>
      <point x="816.1428571428571" y="594.1428571428571" type="line"/>
      <point x="920.8571428571429" y="644.0" type="line"/>
      <point x="924.4285714285714" y="660.0" type="line"/>
      <point x="720.8571428571429" y="660.0" type="line"/>
      <point x="424.57142857142856" y="121.57142857142857" type="line"/>
      <point x="463.2857142857143" y="121.57142857142857" type="line"/>
      <point x="334.7142857142857" y="660.0" type="line"/>
      <point x="119.0" y="660.0" type="line"/>
      <point x="115.42857142857143" y="644.0" type="line"/>
      <point x="214.57142857142858" y="594.1428571428571" type="line"/>
      <point x="226.28571428571428" y="594.1428571428571" type="line"/>
    </contour>
    <contour>
      <point x="571.1428571428571" y="0.0" type="line"/>
      <point x="833.2857142857142" y="0.0" type="line"/>
      <point x="836.2857142857142" y="16.0" type="line"/>
      <point x="773.7142857142857" y="56.857142857142854" type="line"/>
      <point x="840.2857142857143" y="635.1428571428571" type="line"/>
      <point x="721.5714285714286" y="635.1428571428571" type="line"/>
      <point x="652.8571428571429" y="55.857142857142854" type="line"/>
      <point x="574.1428571428571" y="16.0" type="line"/>
    </contour>
  </outline>
</glyph>
<glyph name="N" format="2">
  <advance width="765.2857142857142"/>
  <unicode hex="004E"/>
  <anchor x="463.0" y="710.0" name="top"/>
  <anchor x="343.57142857142856" y="0.0" name="bottom"/>
  <outline>
    <contour>
      <point x="-5.0" y="0.0" type="line"/>
      <point x="243.14285714285714" y="0.0" type="line"/>
      <point x="246.71428571428572" y="16.0" type="line"/>
      <point x="149.57142857142856" y="56.285714285714285" type="line"/>
      <point x="233.42857142857142" y="532.7142857142858" type="line"/>
      <point x="206.0" y="532.7142857142858" type="line"/>
      <point x="526.2857142857143" y="-5.0" type="line"/>
      <point x="580.8571428571429" y="-5.0" type="line"/>
      <point x="687.8571428571429" y="603.7142857142857" type="line"/>
      <point x="772.2857142857142" y="644.0" type="line"/>
      <point x="775.2857142857142" y="660.0" type="line"/>
      <point x="528.5714285714286" y="660.0" type="line"/>
      <point x="525.0" y="644.0" type="line"/>
      <point x="622.1428571428571" y="604.2857142857143" type="line"/>
      <point x="538.5714285714286" y="129.71428571428572" type="line"/>
      <point x="586.2857142857142" y="129.71428571428572" type="line"/>
      <point x="275.1428571428571" y="660.0" type="line"/>
      <point x="111.57142857142857" y="660.0" type="line"/>
      <point x="108.57142857142857" y="644.0" type="line"/>
      <point x="179.85714285714286" y="602.0" type="line"/>
      <point x="83.85714285714286" y="56.857142857142854" type="line"/>
      <point x="-2.0" y="16.0" type="line"/>
    </contour>
  </outline>
</glyph>
<glyph name="P" format="2">
  <advance width="631.7142857142857"/>
  <unicode hex="0050"/>
  <outline>
    <contour>
      <point x="-7.142857142857139" y="0.0" type="line"/>
      <point x="284.85714285714283" y="0.0" type="line"/>
      <point x="287.85714285714283" y="16.0" type="line"/>
      <point x="202.42857142857144" y="56.857142857142854" type="line"/>
      <point x="299.1428571428571" y="607.8571428571429" type="line"/>
      <point x="340.85714285714283" y="607.8571428571429" type="line" smooth="yes"/>
      <point x="431.0" y="607.8571428571429"/>
      <point x="481.57142857142856" y="570.5714285714286"/>
      <point x="481.57142857142856" y="493.85714285714283" type="curve" smooth="yes"/>
      <point x="481.57142857142856" y="407.42857142857144"/>
      <point x="431.2857142857143" y="342.1428571428571"/>
      <point x="321.7142857142857" y="342.1428571428571" type="curve" smooth="yes"/>
      <point x="193.57142857142856" y="342.1428571428571" type="line"/>
      <point x="183.57142857142856" y="294.2857142857143" type="line"/>
      <point x="303.0" y="294.2857142857143" type="line" smooth="yes"/>
      <point x="505.1428571428571" y="294.2857142857143"/>
      <point x="612.4285714285714" y="390.7142857142857"/>
      <point x="612.4285714285714" y="500.0" type="curve" smooth="yes"/>
      <point x="612.4285714285714" y="608.2857142857143"/>
      <point x="522.5714285714286" y="660.0"/>
      <point x="361.2857142857143" y="660.0" type="curve" smooth="yes"/>
      <point x="108.85714285714286" y="660.0" type="line"/>
      <point x="105.85714285714286" y="644.0" type="line"/>
      <point x="176.57142857142858" y="603.1428571428571" type="line"/>
      <point x="80.57142857142857" y="56.857142857142854" type="line"/>
      <point x="-4.142857142857139" y="16.0" type="line"/>
    </contour>
  </outline>
</glyph>
<glyph name="Q" format="2">
  <advance width="771.5714285714286"/>
  <unicode hex="0051"/>
  <outline>
    <contour>
      <point x="335.0" y="-10.0" type="curve" smooth="yes"/>
      <point x="561.2857142857142" y="-10.0"/>
      <point x="720.1428571428571" y="175.14285714285714"/>
      <point x="720.1428571428571" y="383.14285714285717" type="curve" smooth="yes"/>
      <point x="720.1428571428571" y="552.7142857142857"/>
      <point x="612.5714285714286" y="670.5714285714286"/>
      <point x="435.57142857142856" y="670.5714285714286" type="curve" smooth="yes"/>
      <point x="217.28571428571428" y="670.5714285714286"/>
      <point x="51.42857142857143" y="487.7142857142857"/>
      <point x="51.42857142857143" y="277.2857142857143" type="curve" smooth="yes"/>
      <point x="51.42857142857143" y="107.28571428571428"/>
      <point x="158.14285714285714" y="-10.0"/>
    </contour>
    <contour>
      <point x="357.57142857142856" y="39.71428571428571" type="curve" smooth="yes"/>
      <point x="248.14285714285714" y="39.71428571428571"/>
      <point x="181.0" y="134.71428571428572"/>
      <point x="181.0" y="271.85714285714283" type="curve" smooth="yes"/>
      <point x="181.0" y="463.85714285714283"/>
      <point x="281.0" y="621.5714285714286"/>
      <point x="416.7142857142857" y="621.5714285714286" type="curve" smooth="yes"/>
      <point x="528.8571428571429" y="621.5714285714286"/>
      <point x="591.1428571428571" y="527.0"/>
      <point x="591.1428571428571" y="389.7142857142857" type="curve" smooth="yes"/>
      <point x="591.1428571428571" y="200.28571428571428"/>
      <point x="496.1428571428571" y="39.71428571428571"/>
    </contour>
    <contour>
      <point x="606.2857142857143" y="-149.0" type="curve" smooth="yes"/>
      <point x="655.0" y="-149.0"/>
      <point x="699.2857142857142" y="-137.42857142857142"/>
      <point x="729.2857142857143" y="-122.0" type="curve"/>
      <point x="734.8571428571429" y="-100.42857142857143" type="line"/>
      <point x="722.0" y="-105.42857142857143"/>
      <point x="702.0" y="-109.28571428571429"/>
      <point x="681.4285714285714" y="-109.28571428571429" type="curve" smooth="yes"/>
      <point x="613.4285714285714" y="-109.28571428571429"/>
      <point x="565.1428571428571" y="-87.85714285714286"/>
      <point x="442.0" y="16.0" type="curve"/>
      <point x="282.85714285714283" y="16.0" type="line"/>
      <point x="416.57142857142856" y="-121.28571428571429"/>
      <point x="527.2857142857143" y="-149.0"/>
    </contour>
  </outline>
</glyph>
<glyph name="R" format="2">
  <advance width="667.2857142857142"/>
  <unicode hex="0052"/>
  <anchor x="355.85714285714283" y="710.0" name="top"/>
  <anchor x="297.7142857142857" y="0.0" name="bottom"/>
  <outline>
    <contour>
      <point x="-7.142857142857139" y="0.0" type="line"/>
      <point x="267.42857142857144" y="0.0" type="line"/>
      <point x="270.42857142857144" y="16.0" type="line"/>
      <point x="202.0" y="57.42857142857143" type="line"/>
      <point x="308.1428571428571" y="660.0" type="line"/>
      <point x="108.42857142857143" y="660.0" type="line"/>
      <point x="105.42857142857143" y="644.0" type="line"/>
      <point x="176.14285714285714" y="603.1428571428571" type="line"/>
      <point x="80.14285714285714" y="56.857142857142854" type="line"/>
      <point x="-4.571428571428569" y="16.0" type="line"/>
    </contour>
    <contour>
      <point x="583.8571428571429" y="509.2857142857143" type="curve" smooth="yes"/>
      <point x="583.8571428571429" y="604.5714285714286"/>
      <point x="497.8571428571429" y="660.0"/>
      <point x="353.1428571428571" y="660.0" type="curve" smooth="yes"/>
      <point x="258.85714285714283" y="660.0" type="line"/>
      <point x="249.42857142857142" y="607.8571428571429" type="line"/>
      <point x="334.42857142857144" y="607.8571428571429" type="line" smooth="yes"/>
      <point x="413.0" y="607.8571428571429"/>
      <point x="457.42857142857144" y="568.1428571428571"/>
      <point x="457.42857142857144" y="496.14285714285717" type="curve" smooth="yes"/>
      <point x="457.42857142857144" y="420.14285714285717"/>
      <point x="405.1428571428571" y="354.7142857142857"/>
      <point x="316.2857142857143" y="354.7142857142857" type="curve"/>
      <point x="215.14285714285714" y="354.7142857142857" type="line"/>
      <point x="206.0" y="306.85714285714283" type="line"/>
      <point x="385.1428571428571" y="306.85714285714283" type="line"/>
      <point x="385.1428571428571" y="321.2857142857143" type="line"/>
      <point x="502.42857142857144" y="348.2857142857143"/>
      <point x="583.8571428571429" y="414.57142857142856"/>
    </contour>
    <contour>
      <point x="445.0" y="0.0" type="line"/>
      <point x="613.1428571428571" y="0.0" type="line"/>
      <point x="615.7142857142857" y="16.0" type="line"/>
      <point x="556.5714285714286" y="55.0" type="line"/>
      <point x="423.0" y="345.2857142857143" type="line"/>
      <point x="301.85714285714283" y="345.2857142857143" type="line"/>
    </contour>
  </outline>
</glyph>
<glyph name="S" format="2">
  <advance width="525.0"/>
  <unicode hex="0053"/>
  <anchor x="344.57142857142856" y="710.0" name="top"/>
  <anchor x="203.28571428571428" y="0.0" name="bottom"/>
  <outline>
    <contour>
      <point x="197.57142857142858" y="-10.0" type="curve" smooth="yes"/>
      <point x="338.0" y="-10.0"/>
      <point x="450.85714285714283" y="83.57142857142857"/>
      <point x="450.85714285714283" y="205.85714285714286" type="curve" smooth="yes"/>
      <point x="450.85714285714283" y="285.42857142857144"/>
      <point x="410.14285714285717" y="324.85714285714283"/>
      <point x="311.85714285714283" y="382.42857142857144" type="curve" smooth="yes"/>
      <point x="234.85714285714283" y="428.0"/>
      <point x="211.28571428571428" y="457.2857142857143"/>
      <point x="211.28571428571428" y="504.42857142857144" type="curve" smooth="yes"/>
      <point x="211.28571428571428" y="573.0"/>
      <point x="262.0" y="621.7142857142857"/>
      <point x="323.14285714285717" y="621.7142857142857" type="curve" smooth="yes"/>
      <point x="365.7142857142857" y="621.7142857142857"/>
      <point x="390.7142857142857" y="604.7142857142857"/>
      <point x="412.0" y="584.4285714285714" type="curve"/>
      <point x="458.85714285714283" y="465.42857142857144" type="line"/>
      <point x="475.7142857142857" y="465.42857142857144" type="line"/>
      <point x="492.85714285714283" y="625.4285714285714" type="line"/>
      <point x="448.57142857142856" y="653.7142857142857"/>
      <point x="397.2857142857143" y="670.0"/>
      <point x="336.1428571428571" y="670.0" type="curve" smooth="yes"/>
      <point x="210.0" y="670.0"/>
      <point x="100.57142857142857" y="579.2857142857143"/>
      <point x="100.57142857142857" y="463.2857142857143" type="curve" smooth="yes"/>
      <point x="100.57142857142857" y="392.57142857142856"/>
      <point x="132.71428571428572" y="351.42857142857144"/>
      <point x="207.71428571428572" y="306.85714285714283" type="curve" smooth="yes"/>
      <point x="306.57142857142856" y="248.57142857142858"/>
      <point x="337.42857142857144" y="221.28571428571428"/>
      <point x="337.42857142857144" y="165.14285714285714" type="curve" smooth="yes"/>
      <point x="337.42857142857144" y="88.28571428571429"/>
      <point x="284.14285714285717" y="36.71428571428571"/>
      <point x="200.42857142857142" y="36.71428571428571" type="curve" smooth="yes"/>
      <point x="158.85714285714286" y="36.71428571428571"/>
      <point x="125.42857142857143" y="53.0"/>
      <point x="96.71428571428571" y="80.0" type="curve"/>
      <point x="48.285714285714285" y="207.28571428571428" type="line"/>
      <point x="31.42857142857143" y="207.28571428571428" type="line"/>
      <point x="12.857142857142858" y="39.42857142857143" type="line"/>
      <point x="66.0" y="7.571428571428571"/>
      <point x="117.42857142857143" y="-10.0"/>
    </contour>
  </outline>
</glyph>
<glyph name="T" format="2">
  <advance width="641.1428571428571"/>
  <unicode hex="0054"/>
  <anchor x="392.14285714285717" y="710.0" name="top"/>
  <anchor x="266.57142857142856" y="0.0" name="bottom"/>
  <outline>
    <contour>
      <point x="109.85714285714286" y="0.0" type="line"/>
      <point x="425.7142857142857" y="0.0" type="line"/>
      <point x="428.7142857142857" y="16.0" type="line"/>
      <point x="338.57142857142856" y="56.857142857142854" type="line"/>
      <point x="437.1428571428571" y="607.8571428571429" type="line"/>
      <point x="574.1428571428571" y="607.8571428571429" type="line"/>
      <point x="616.4285714285714" y="445.57142857142856" type="line"/>
      <point x="632.4285714285714" y="445.57142857142856" type="line"/>
      <point x="669.7142857142857" y="660.0" type="line"/>
      <point x="98.85714285714286" y="660.0" type="line"/>
      <point x="62.142857142857146" y="445.57142857142856" type="line"/>
      <point x="78.14285714285714" y="445.57142857142856" type="line"/>
      <point x="176.0" y="607.8571428571429" type="line"/>
      <point x="314.7142857142857" y="607.8571428571429" type="line"/>
      <point x="216.14285714285714" y="56.857142857142854" type="line"/>
      <point x="113.42857142857143" y="16.0" type="line"/>
    </contour>
  </outline>
</glyph>
<glyph name="U" format="2">
  <advance width="767.5714285714286"/>
  <unicode hex="0055"/>
  <anchor x="479.42857142857144" y="710.0" name="top"/>
  <anchor x="363.2857142857143" y="0.0" name="right"/>
  <anchor x="341.2857142857143" y="0.0" name="bottom"/>
  <outline>
    <contour>
      <point x="345.0" y="-10.0" type="curve" smooth="yes"/>
      <point x="494.57142857142856" y="-10.0"/>
      <point x="602.5714285714286" y="65.85714285714286"/>
      <point x="639.0" y="275.7142857142857" type="curve" smooth="yes"/>
      <point x="696.1428571428571" y="604.1428571428571" type="line"/>
      <point x="780.7142857142857" y="644.0" type="line"/>
      <point x="783.7142857142857" y="660.0" type="line"/>
      <point x="552.8571428571429" y="660.0" type="line"/>
      <point x="549.2857142857143" y="644.0" type="line"/>
      <point x="631.8571428571429" y="605.1428571428571" type="line"/>
      <point x="569.0" y="244.14285714285714" type="line" smooth="yes"/>
      <point x="546.4285714285714" y="114.14285714285714"/>
      <point x="465.2857142857143" y="57.57142857142857"/>
      <point x="383.42857142857144" y="57.57142857142857" type="curve" smooth="yes"/>
      <point x="292.57142857142856" y="57.57142857142857"/>
      <point x="233.85714285714286" y="99.14285714285714"/>
      <point x="233.85714285714286" y="207.57142857142858" type="curve" smooth="yes"/>
      <point x="233.85714285714286" y="228.14285714285714"/>
      <point x="237.0" y="253.57142857142858"/>
      <point x="241.57142857142856" y="279.14285714285717" type="curve" smooth="yes"/>
      <point x="298.42857142857144" y="603.1428571428571" type="line"/>
      <point x="383.0" y="644.0" type="line"/>
      <point x="386.57142857142856" y="660.0" type="line"/>
      <point x="107.85714285714286" y="660.0" type="line"/>
      <point x="104.85714285714286" y="644.0" type="line"/>
      <point x="176.0" y="603.1428571428571" type="line"/>
      <point x="118.85714285714286" y="275.7142857142857" type="line" smooth="yes"/>
      <point x="114.0" y="246.85714285714286"/>
      <point x="111.0" y="220.85714285714286"/>
      <point x="111.0" y="196.71428571428572" type="curve" smooth="yes"/>
      <point x="111.0" y="48.714285714285715"/>
      <point x="205.0" y="-10.0"/>
    </contour>
  </outline>
</glyph>
<glyph name="V" format="2">
  <advance width="693.1428571428571"/>
  <unicode hex="0056"/>
  <outline>
    <contour>
      <point x="270.2857142857143" y="-5.0" type="line"/>
      <point x="333.0" y="-5.0" type="line"/>
      <point x="686.1428571428571" y="632.0" type="line"/>
      <point x="637.1428571428571" y="591.0" type="line"/>
      <point x="732.8571428571429" y="644.0" type="line"/>
      <point x="736.8571428571429" y="660.0" type="line"/>
      <point x="539.0" y="660.0" type="line"/>
      <point x="536.0" y="644.0" type="line"/>
      <point x="619.1428571428571" y="606.0" type="line"/>
      <point x="624.1428571428571" y="632.0" type="line"/>
      <point x="328.7142857142857" y="86.71428571428572" type="line"/>
      <point x="390.7142857142857" y="156.28571428571428" type="line"/>
      <point x="336.2857142857143" y="156.28571428571428" type="line"/>
      <point x="374.42857142857144" y="86.71428571428572" type="line"/>
      <point x="256.7142857142857" y="632.0" type="line"/>
      <point x="239.71428571428572" y="600.7142857142857" type="line"/>
      <point x="345.1428571428571" y="644.0" type="line"/>
      <point x="348.57142857142856" y="660.0" type="line"/>
      <point x="80.28571428571429" y="660.0" type="line"/>
      <point x="76.28571428571429" y="644.0" type="line"/>
      <point x="170.14285714285714" y="587.5714285714286" type="line"/>
      <point x="130.0" y="632.0" type="line"/>
    </contour>
  </outline>
</glyph>
<glyph name="W" format="2">
  <advance width="950.0"/>
  <unicode hex="0057"/>
  <anchor x="584.2857142857142" y="710.0" name="top"/>
  <outline>
    <contour>
      <point x="211.42857142857142" y="-5.0" type="line"/>
      <point x="270.14285714285717" y="-5.0" type="line"/>
      <point x="540.1428571428571" y="526.7142857142858" type="line"/>
      <point x="487.57142857142856" y="469.57142857142856" type="line"/>
      <point x="541.5714285714286" y="469.57142857142856" type="line"/>
      <point x="507.14285714285717" y="526.7142857142858" type="line"/>
      <point x="601.8571428571429" y="-5.0" type="line"/>
      <point x="660.0" y="-5.0" type="line"/>
      <point x="944.4285714285714" y="632.0" type="line"/>
      <point x="905.0" y="596.1428571428571" type="line"/>
      <point x="1002.1428571428571" y="644.0" type="line"/>
      <point x="1005.1428571428571" y="660.0" type="line"/>
      <point x="797.7142857142857" y="660.0" type="line"/>
      <point x="794.7142857142857" y="644.0" type="line"/>
      <point x="890.1428571428571" y="601.7142857142857" type="line"/>
      <point x="881.8571428571429" y="632.0" type="line"/>
      <point x="667.4285714285714" y="134.14285714285714" type="line"/>
      <point x="715.5714285714286" y="192.85714285714283" type="line"/>
      <point x="665.8571428571429" y="192.85714285714283" type="line"/>
      <point x="697.1428571428571" y="134.14285714285714" type="line"/>
      <point x="606.2857142857142" y="665.0" type="line"/>
      <point x="548.5714285714286" y="665.0" type="line"/>
      <point x="282.42857142857144" y="130.14285714285714" type="line"/>
      <point x="335.1428571428571" y="191.0" type="line"/>
      <point x="284.1428571428571" y="191.0" type="line"/>
      <point x="312.85714285714283" y="130.14285714285714" type="line"/>
      <point x="259.85714285714283" y="632.0" type="line"/>
      <point x="231.57142857142856" y="594.7142857142857" type="line"/>
      <point x="350.0" y="644.0" type="line"/>
      <point x="353.0" y="660.0" type="line"/>
      <point x="79.85714285714286" y="660.0" type="line"/>
      <point x="76.28571428571429" y="644.0" type="line"/>
      <point x="163.28571428571428" y="594.7142857142857" type="line"/>
      <point x="138.0" y="632.0" type="line"/>
    </contour>
  </outline>
</glyph>
<glyph name="X" format="2">
  <advance width="710.1428571428571"/>
  <unicode hex="0058"/>
  <outline>
    <contour>
      <point x="359.0" y="0.0" type="line"/>
      <point x="638.2857142857142" y="0.0" type="line"/>
      <point x="641.2857142857142" y="16.0" type="line"/>
      <point x="546.1428571428571" y="75.85714285714286" type="line"/>
      <point x="598.2857142857142" y="22.57142857142857" type="line"/>
      <point x="280.85714285714283" y="604.7142857142857" type="line"/>
      <point x="281.42857142857144" y="609.7142857142857" type="line"/>
      <point x="368.85714285714283" y="644.0" type="line"/>
      <point x="371.85714285714283" y="660.0" type="line"/>
      <point x="97.14285714285714" y="660.0" type="line"/>
      <point x="94.14285714285714" y="644.0" type="line"/>
      <point x="189.14285714285714" y="585.0" type="line"/>
      <point x="136.57142857142858" y="632.0" type="line"/>
      <point x="443.57142857142856" y="54.85714285714286" type="line"/>
      <point x="443.0" y="50.85714285714286" type="line"/>
      <point x="362.0" y="16.0" type="line"/>
    </contour>
    <contour>
      <point x="-34.0" y="0.0" type="line"/>
      <point x="188.28571428571428" y="0.0" type="line"/>
      <point x="191.28571428571428" y="16.0" type="line"/>
      <point x="119.28571428571429" y="52.14285714285714" type="line"/>
      <point x="121.0" y="56.14285714285714" type="line"/>
      <point x="351.7142857142857" y="308.42857142857144" type="line"/>
      <point x="320.0" y="348.57142857142856" type="line"/>
      <point x="30.714285714285715" y="36.857142857142854" type="line"/>
      <point x="76.28571428571429" y="67.57142857142857" type="line"/>
      <point x="-30.42857142857143" y="16.0" type="line"/>
    </contour>
    <contour>
      <point x="728.1428571428571" y="644.0" type="line"/>
      <point x="731.1428571428571" y="660.0" type="line"/>
      <point x="520.1428571428571" y="660.0" type="line"/>
      <point x="517.1428571428571" y="644.0" type="line"/>
      <point x="586.1428571428571" y="608.7142857142857" type="line"/>
      <point x="585.7142857142857" y="604.7142857142857" type="line"/>
      <point x="373.2857142857143" y="370.7142857142857" type="line"/>
      <point x="400.0" y="327.2857142857143" type="line"/>
      <point x="683.0" y="631.1428571428571" type="line"/>
      <point x="607.1428571428571" y="581.0" type="line"/>
    </contour>
  </outline>
</glyph>
<glyph name="Y" format="2">
  <advance width="683.7142857142857"/>
  <unicode hex="0059"/>
  <anchor x="440.2857142857143" y="710.0" name="top"/>
  <anchor x="298.0" y="0.0" name="bottom"/>
  <outline>
    <contour>
      <point x="152.71428571428572" y="0.0" type="line"/>
      <point x="440.85714285714283" y="0.0" type="line"/>
      <point x="443.85714285714283" y="16.0" type="line"/>
      <point x="367.42857142857144" y="56.857142857142854" type="line"/>
      <point x="417.7142857142857" y="341.42857142857144" type="line"/>
      <point x="375.42857142857144" y="265.2857142857143" type="line"/>
      <point x="683.5714285714286" y="632.0" type="line"/>
      <point x="610.5714285714286" y="585.4285714285714" type="line"/>
      <point x="731.5714285714286" y="644.0" type="line"/>
      <point x="734.5714285714286" y="660.0" type="line"/>
      <point x="525.5714285714286" y="660.0" type="line"/>
      <point x="521.5714285714286" y="644.0" type="line"/>
      <point x="590.7142857142857" y="609.1428571428571" type="line"/>
      <point x="589.7142857142857" y="605.1428571428571" type="line"/>
      <point x="372.0" y="335.85714285714283" type="line"/>
      <point x="403.7142857142857" y="335.85714285714283" type="line"/>
      <point x="260.85714285714283" y="606.2857142857143" type="line"/>
      <point x="261.85714285714283" y="610.2857142857143" type="line"/>
      <point x="342.0" y="644.0" type="line"/>
      <point x="346.0" y="660.0" type="line"/>
      <point x="83.14285714285714" y="660.0" type="line"/>
      <point x="79.14285714285714" y="644.0" type="line"/>
      <point x="162.14285714285714" y="590.0" type="line"/>
      <point x="120.14285714285714" y="632.0" type="line"/>
      <point x="311.14285714285717" y="266.0" type="line"/>
      <point x="295.85714285714283" y="341.42857142857144" type="line"/>
      <point x="245.57142857142858" y="56.857142857142854" type="line"/>
      <point x="155.71428571428572" y="16.0" type="line"/>
    </contour>
  </outline>
</glyph>
<glyph name="Z" format="2">
  <advance width="612.8571428571429"/>
  <unicode hex="005A"/>
  <anchor x="378.14285714285717" y="710.0" name="top"/>
  <anchor x="266.42857142857144" y="0.0" name="bottom"/>
  <outline>
    <contour>
      <point x="15.714285714285715" y="0.0" type="line"/>
      <point x="490.7142857142857" y="0.0" type="line"/>
      <point x="528.5714285714286" y="207.85714285714286" type="line"/>
      <point x="512.5714285714286" y="207.85714285714286" type="line"/>
      <point x="416.0" y="56.42857142857143" type="line"/>
      <point x="139.0" y="56.42857142857143" type="line"/>
      <point x="141.28571428571428" y="16.0" type="line"/>
      <point x="588.5714285714286" y="624.1428571428571" type="line"/>
      <point x="594.5714285714286" y="660.0" type="line"/>
      <point x="140.57142857142858" y="660.0" type="line"/>
      <point x="104.71428571428572" y="462.14285714285717" type="line"/>
      <point x="120.71428571428572" y="462.14285714285717" type="line"/>
      <point x="215.0" y="607.8571428571429" type="line"/>
      <point x="467.0" y="607.8571428571429" type="line"/>
      <point x="465.2857142857143" y="640.7142857142857" type="line"/>
      <point x="21.714285714285715" y="35.85714285714286" type="line"/>
    </contour>
  </outline>
</glyph>
<glyph name="bracketleft" format="2">
  <advance width="265.0"/>
  <unicode hex="005B"/>
  <outline>
    <contour>
      <point x="13.571428571428571" y="-150.0" type="line"/>
      <point x="76.71428571428571" y="-150.0" type="line"/>
      <point x="228.14285714285714" y="740.0" type="line"/>
      <point x="165.57142857142858" y="740.0" type="line"/>
    </contour>
    <contour>
      <point x="167.57142857142858" y="740.0" type="line"/>
      <point x="163.57142857142858" y="717.0" type="line"/>
      <point x="332.1428571428571" y="717.0" type="line"/>
      <point x="336.14285714285717" y="740.0" type="line"/>
    </contour>
    <contour>
      <point x="15.571428571428573" y="-150.0" type="line"/>
      <point x="184.14285714285714" y="-150.0" type="line"/>
      <point x="188.14285714285714" y="-127.0" type="line"/>
      <point x="19.571428571428573" y="-127.0" type="line"/>
    </contour>
  </outline>
</glyph>
<glyph name="bracketright" format="2">
  <advance width="265.0"/>
  <unicode hex="005D"/>
  <outline>
    <contour>
      <point x="47.714285714285715" y="-150.0" type="line"/>
      <point x="110.28571428571428" y="-150.0" type="line"/>
      <point x="262.2857142857143" y="740.0" type="line"/>
      <point x="199.14285714285714" y="740.0" type="line"/>
    </contour>
    <contour>
      <point x="-60.285714285714285" y="-150.0" type="line"/>
      <point x="108.28571428571428" y="-150.0" type="line"/>
      <point x="112.28571428571428" y="-127.0" type="line"/>
      <point x="-56.285714285714285" y="-127.0" type="line"/>
    </contour>
    <contour>
      <point x="87.71428571428571" y="717.0" type="line"/>
      <point x="256.2857142857143" y="717.0" type="line"/>
      <point x="260.2857142857143" y="740.0" type="line"/>
      <point x="91.71428571428571" y="740.0" type="line"/>
    </contour>
  </outline>
</glyph>
<glyph name="asciicircum" format="2">
  <advance width="542.8571428571429"/>
  <unicode hex="005E"/>
  <outline>
    <contour>
      <point x="49.14285714285714" y="250.0" type="line"/>
      <point x="109.71428571428571" y="250.0" type="line"/>
      <point x="353.57142857142856" y="640.0" type="line"/>
      <point x="311.14285714285717" y="640.0" type="line"/>
      <point x="417.57142857142856" y="250.0" type="line"/>
      <point x="473.7142857142857" y="250.0" type="line"/>
      <point x="359.2857142857143" y="670.0" type="line"/>
      <point x="311.0" y="670.0" type="line"/>
    </contour>
  </outline>
</glyph>
<glyph name="underscore" format="2">
  <advance width="500.0"/>
  <unicode hex="005F"/>
  <outline>
    <contour>
      <point x="25.0" y="-133.0" type="line"/>
      <point x="461.0" y="-133.0" type="line"/>
      <point x="468.0" y="-97.0" type="line"/>
      <point x="32.0" y="-97.0" type="line"/>
    </contour>
  </outline>
</glyph>
<glyph name="a" format="2">
  <advance width="530.5714285714286"/>
  <unicode hex="0061"/>
  <anchor x="326.14285714285717" y="510.0" name="top"/>
  <anchor x="430.57142857142856" y="0.0" name="right"/>
  <anchor x="248.28571428571428" y="0.0" name="bottom"/>
  <outline>
    <contour>
      <point x="131.71428571428572" y="-10.0" type="curve" smooth="yes"/>
      <point x="193.57142857142858" y="-10.0"/>
      <point x="242.42857142857142" y="28.57142857142857"/>
      <point x="297.57142857142856" y="106.0" type="curve"/>
      <point x="325.14285714285717" y="106.0" type="line"/>
      <point x="325.14285714285717" y="182.85714285714286" type="line"/>
      <point x="293.7142857142857" y="132.14285714285714"/>
      <point x="248.85714285714286" y="74.42857142857143"/>
      <point x="203.57142857142856" y="74.42857142857143" type="curve" smooth="yes"/>
      <point x="167.28571428571428" y="74.42857142857143"/>
      <point x="156.0" y="104.85714285714286"/>
      <point x="156.0" y="171.71428571428572" type="curve" smooth="yes"/>
      <point x="156.0" y="300.1428571428571"/>
      <point x="208.42857142857142" y="420.57142857142856"/>
      <point x="284.57142857142856" y="420.57142857142856" type="curve" smooth="yes"/>
      <point x="316.14285714285717" y="420.57142857142856"/>
      <point x="336.2857142857143" y="405.57142857142856"/>
      <point x="356.0" y="378.57142857142856" type="curve"/>
      <point x="350.85714285714283" y="399.7142857142857" type="line"/>
      <point x="301.2857142857143" y="115.14285714285714" type="line" smooth="yes"/>
      <point x="287.2857142857143" y="35.0"/>
      <point x="314.14285714285717" y="-10.0"/>
      <point x="374.42857142857144" y="-10.0" type="curve" smooth="yes"/>
      <point x="433.42857142857144" y="-10.0"/>
      <point x="479.7142857142857" y="41.857142857142854"/>
      <point x="517.4285714285714" y="141.0" type="curve"/>
      <point x="500.57142857142856" y="147.42857142857142" type="line"/>
      <point x="476.57142857142856" y="95.14285714285714"/>
      <point x="452.42857142857144" y="74.14285714285714"/>
      <point x="431.57142857142856" y="74.14285714285714" type="curve" smooth="yes"/>
      <point x="414.42857142857144" y="74.14285714285714"/>
      <point x="409.57142857142856" y="91.0"/>
      <point x="415.2857142857143" y="124.14285714285714" type="curve" smooth="yes"/>
      <point x="474.57142857142856" y="460.0" type="line"/>
      <point x="453.42857142857144" y="460.0" type="line"/>
      <point x="384.85714285714283" y="429.57142857142856" type="line"/>
      <point x="425.42857142857144" y="424.57142857142856" type="line"/>
      <point x="404.85714285714283" y="447.7142857142857"/>
      <point x="364.2857142857143" y="464.2857142857143"/>
      <point x="318.2857142857143" y="464.2857142857143" type="curve" smooth="yes"/>
      <point x="179.42857142857142" y="464.2857142857143"/>
      <point x="39.714285714285715" y="306.2857142857143"/>
      <point x="39.714285714285715" y="122.42857142857143" type="curve" smooth="yes"/>
      <point x="39.714285714285715" y="36.0"/>
      <point x="77.42857142857143" y="-10.0"/>
    </contour>
  </outline>
</glyph>
<glyph name="b" format="2">
  <advance width="508.0"/>
  <unicode hex="0062"/>
  <outline>
    <contour>
      <point x="209.42857142857142" y="-10.0" type="curve" smooth="yes"/>
      <point x="348.2857142857143" y="-10.0"/>
      <point x="466.57142857142856" y="147.57142857142858"/>
      <point x="466.57142857142856" y="321.57142857142856" type="curve" smooth="yes"/>
      <point x="466.57142857142856" y="414.0"/>
      <point x="426.7142857142857" y="464.2857142857143"/>
      <point x="369.0" y="464.2857142857143" type="curve" smooth="yes"/>
      <point x="300.7142857142857" y="464.2857142857143"/>
      <point x="261.1428571428571" y="419.2857142857143"/>
      <point x="211.0" y="352.14285714285717" type="curve"/>
      <point x="180.71428571428572" y="352.14285714285717" type="line"/>
      <point x="180.71428571428572" y="274.42857142857144" type="line"/>
      <point x="218.14285714285714" y="337.1428571428571"/>
      <point x="264.7142857142857" y="379.8571428571429"/>
      <point x="302.2857142857143" y="379.8571428571429" type="curve" smooth="yes"/>
      <point x="339.0" y="379.8571428571429"/>
      <point x="352.42857142857144" y="349.42857142857144"/>
      <point x="352.42857142857144" y="286.42857142857144" type="curve" smooth="yes"/>
      <point x="352.42857142857144" y="142.0"/>
      <point x="292.42857142857144" y="31.142857142857142"/>
      <point x="223.42857142857142" y="31.142857142857142" type="curve" smooth="yes"/>
      <point x="192.71428571428572" y="31.142857142857142"/>
      <point x="173.42857142857142" y="48.42857142857143"/>
      <point x="153.42857142857144" y="86.42857142857142" type="curve"/>
      <point x="154.57142857142856" y="59.714285714285715" type="line"/>
      <point x="275.42857142857144" y="750.0" type="line"/>
      <point x="272.42857142857144" y="750.0" type="line"/>
      <point x="74.71428571428572" y="715.7142857142857" type="line"/>
      <point x="74.71428571428572" y="705.4285714285714" type="line"/>
      <point x="148.28571428571428" y="671.8571428571429" type="line"/>
      <point x="30.0" y="-5.7142857142857135" type="line"/>
      <point x="40.28571428571429" y="-5.7142857142857135" type="line"/>
      <point x="128.28571428571428" y="31.142857142857142" type="line"/>
      <point x="82.57142857142857" y="37.42857142857143" type="line"/>
      <point x="107.85714285714286" y="9.571428571428571"/>
      <point x="154.0" y="-10.0"/>
    </contour>
  </outline>
</glyph>
<glyph name="e" format="2">
  <advance width="440.42857142857144"/>
  <unicode hex="0065"/>
  <anchor x="285.1428571428571" y="0.0" name="right"/>
  <anchor x="202.0" y="0.0" name="bottom"/>
  <anchor x="313.7142857142857" y="510.0" name="top"/>
  <outline>
    <contour>
      <point x="195.14285714285714" y="-10.0" type="curve" smooth="yes"/>
      <point x="277.7142857142857" y="-10.0"/>
      <point x="350.42857142857144" y="54.857142857142854"/>
      <point x="395.0" y="134.28571428571428" type="curve"/>
      <point x="381.57142857142856" y="146.57142857142856" type="line"/>
      <point x="379.14285714285717" y="146.57142857142856" type="line"/>
      <point x="334.14285714285717" y="101.57142857142857"/>
      <point x="297.2857142857143" y="81.57142857142857"/>
      <point x="255.0" y="81.57142857142857" type="curve" smooth="yes"/>
      <point x="191.14285714285714" y="81.57142857142857"/>
      <point x="152.57142857142856" y="128.71428571428572"/>
      <point x="152.57142857142856" y="203.0" type="curve" smooth="yes"/>
      <point x="152.57142857142856" y="331.14285714285717"/>
      <point x="208.57142857142856" y="425.0"/>
      <point x="278.0" y="425.0" type="curve" smooth="yes"/>
      <point x="307.57142857142856" y="425.0"/>
      <point x="320.0" y="406.7142857142857"/>
      <point x="320.0" y="384.85714285714283" type="curve" smooth="yes"/>
      <point x="320.0" y="330.42857142857144"/>
      <point x="276.14285714285717" y="294.42857142857144"/>
      <point x="130.28571428571428" y="264.0" type="curve"/>
      <point x="132.0" y="229.71428571428572" type="line"/>
      <point x="354.7142857142857" y="272.85714285714283"/>
      <point x="413.2857142857143" y="321.7142857142857"/>
      <point x="413.2857142857143" y="385.14285714285717" type="curve" smooth="yes"/>
      <point x="413.2857142857143" y="428.2857142857143"/>
      <point x="377.57142857142856" y="464.2857142857143"/>
      <point x="309.2857142857143" y="464.2857142857143" type="curve" smooth="yes"/>
      <point x="154.14285714285714" y="464.2857142857143"/>
      <point x="39.285714285714285" y="309.2857142857143"/>
      <point x="39.285714285714285" y="157.85714285714286" type="curve" smooth="yes"/>
      <point x="39.285714285714285" y="54.85714285714286"/>
      <point x="88.0" y="-10.0"/>
    </contour>
  </outline>
</glyph>
<glyph name="g" format="2">
  <advance width="462.14285714285717"/>
  <unicode hex="0067"/>
  <anchor x="283.85714285714283" y="510.0" name="top"/>
  <outline>
    <contour>
      <point x="223.42857142857142" y="155.14285714285714" type="curve" smooth="yes"/>
      <point x="345.7142857142857" y="155.14285714285714"/>
      <point x="423.85714285714283" y="249.28571428571428"/>
      <point x="423.85714285714283" y="329.0" type="curve" smooth="yes"/>
      <point x="423.85714285714283" y="366.2857142857143"/>
      <point x="408.85714285714283" y="399.57142857142856"/>
      <point x="382.7142857142857" y="419.7142857142857" type="curve"/>
      <point x="359.0" y="443.7142857142857" type="line"/>
      <point x="336.14285714285717" y="456.14285714285717"/>
      <point x="301.14285714285717" y="464.2857142857143"/>
      <point x="268.7142857142857" y="464.2857142857143" type="curve" smooth="yes"/>
      <point x="156.28571428571428" y="464.2857142857143"/>
      <point x="72.42857142857143" y="373.2857142857143"/>
      <point x="72.42857142857143" y="286.7142857142857" type="curve" smooth="yes"/>
      <point x="72.42857142857143" y="213.14285714285714"/>
      <point x="126.0" y="155.14285714285714"/>
    </contour>
    <contour>
      <point x="238.0" y="195.42857142857142" type="curve" smooth="yes"/>
      <point x="195.57142857142856" y="195.42857142857142"/>
      <point x="174.0" y="231.14285714285714"/>
      <point x="174.0" y="285.7142857142857" type="curve" smooth="yes"/>
      <point x="174.0" y="356.42857142857144"/>
      <point x="207.71428571428572" y="425.2857142857143"/>
      <point x="258.85714285714283" y="425.2857142857143" type="curve" smooth="yes"/>
      <point x="300.57142857142856" y="425.2857142857143"/>
      <point x="321.14285714285717" y="392.0"/>
      <point x="321.14285714285717" y="335.7142857142857" type="curve" smooth="yes"/>
      <point x="321.14285714285717" y="267.57142857142856"/>
      <point x="286.2857142857143" y="195.42857142857142"/>
    </contour>
    <contour>
      <point x="493.2857142857143" y="410.2857142857143" type="line"/>
      <point x="493.2857142857143" y="454.2857142857143" type="line"/>
      <point x="322.42857142857144" y="454.2857142857143" type="line"/>
      <point x="322.42857142857144" y="394.7142857142857" type="line"/>
      <point x="382.7142857142857" y="394.7142857142857" type="line"/>
      <point x="402.57142857142856" y="410.2857142857143" type="line"/>
    </contour>
    <contour>
      <point x="159.28571428571428" y="-240.0" type="curve" smooth="yes"/>
      <point x="321.85714285714283" y="-240.0"/>
      <point x="406.1428571428571" y="-148.14285714285714"/>
      <point x="406.1428571428571" y="-63.85714285714286" type="curve" smooth="yes"/>
      <point x="406.1428571428571" y="98.0"/>
      <point x="117.85714285714286" y="34.28571428571428"/>
      <point x="117.85714285714286" y="120.14285714285714" type="curve" smooth="yes"/>
      <point x="117.85714285714286" y="144.0"/>
      <point x="135.28571428571428" y="167.57142857142856"/>
      <point x="173.42857142857142" y="179.28571428571428" type="curve"/>
      <point x="173.42857142857142" y="191.71428571428572" type="line"/>
      <point x="124.0" y="191.71428571428572" type="line"/>
      <point x="124.0" y="179.42857142857142" type="line"/>
      <point x="58.714285714285715" y="145.85714285714286" type="line"/>
      <point x="35.85714285714286" y="122.57142857142857"/>
      <point x="25.714285714285715" y="100.28571428571429"/>
      <point x="25.714285714285715" y="68.0" type="curve" smooth="yes"/>
      <point x="25.714285714285715" y="-72.85714285714286"/>
      <point x="300.57142857142856" y="12.428571428571429"/>
      <point x="300.57142857142856" y="-110.85714285714286" type="curve" smooth="yes"/>
      <point x="300.57142857142856" y="-161.85714285714286"/>
      <point x="258.42857142857144" y="-207.28571428571428"/>
      <point x="175.85714285714286" y="-207.28571428571428" type="curve" smooth="yes"/>
      <point x="108.42857142857143" y="-207.28571428571428"/>
      <point x="69.28571428571428" y="-172.14285714285714"/>
      <point x="69.28571428571428" y="-126.14285714285714" type="curve" smooth="yes"/>
      <point x="69.28571428571428" y="-85.28571428571428"/>
      <point x="80.14285714285714" y="-49.0"/>
      <point x="140.14285714285714" y="-14.857142857142856" type="curve"/>
      <point x="140.14285714285714" y="-3.1428571428571423" type="line"/>
      <point x="94.71428571428572" y="-3.1428571428571423" type="line"/>
      <point x="94.71428571428572" y="-15.428571428571429" type="line"/>
      <point x="24.57142857142857" y="-54.42857142857143" type="line"/>
      <point x="-4.33777114564" y="-85.05205685994285"/>
      <point x="-14.714285714285714" y="-103.978021978"/>
      <point x="-14.714285714285714" y="-140.14285714285714" type="curve" smooth="yes"/>
      <point x="-14.714285714285714" y="-198.322489392"/>
      <point x="42.85714285714286" y="-240.0"/>
    </contour>
  </outline>
</glyph>
<glyph name="i" format="2">
  <advance width="297.42857142857144"/>
  <unicode hex="0069"/>
  <anchor x="186.71428571428572" y="510.0" name="top"/>
  <anchor x="146.57142857142856" y="0.0" name="right"/>
  <anchor x="125.57142857142857" y="0.0" name="bottom"/>
  <outline>
    <contour>
      <point x="134.42857142857144" y="-10.0" type="curve" smooth="yes"/>
      <point x="193.42857142857142" y="-10.0"/>
      <point x="239.71428571428572" y="41.857142857142854"/>
      <point x="277.42857142857144" y="141.0" type="curve"/>
      <point x="260.57142857142856" y="147.42857142857142" type="line"/>
      <point x="236.57142857142856" y="95.14285714285714"/>
      <point x="212.42857142857144" y="74.14285714285714"/>
      <point x="191.57142857142856" y="74.14285714285714" type="curve" smooth="yes"/>
      <point x="174.42857142857142" y="74.14285714285714"/>
      <point x="169.57142857142856" y="91.0"/>
      <point x="175.28571428571428" y="124.14285714285714" type="curve" smooth="yes"/>
      <point x="235.85714285714286" y="464.2857142857143" type="line"/>
      <point x="232.85714285714286" y="464.2857142857143" type="line"/>
      <point x="34.57142857142857" y="430.0" type="line"/>
      <point x="34.57142857142857" y="419.7142857142857" type="line"/>
      <point x="109.14285714285714" y="386.14285714285717" type="line"/>
      <point x="61.285714285714285" y="115.14285714285714" type="line" smooth="yes"/>
      <point x="46.85714285714286" y="35.0"/>
      <point x="74.14285714285714" y="-10.0"/>
    </contour>
    <contour>
      <point x="202.42857142857144" y="573.0" type="curve" smooth="yes"/>
      <point x="239.42857142857144" y="573.0"/>
      <point x="268.42857142857144" y="601.5714285714286"/>
      <point x="268.42857142857144" y="639.0" type="curve" smooth="yes"/>
      <point x="268.42857142857144" y="676.4285714285714"/>
      <point x="239.42857142857144" y="705.4285714285714"/>
      <point x="202.42857142857144" y="705.4285714285714" type="curve" smooth="yes"/>
      <point x="165.42857142857142" y="705.4285714285714"/>
      <point x="136.0" y="676.4285714285714"/>
      <point x="136.0" y="639.0" type="curve" smooth="yes"/>
      <point x="136.0" y="601.5714285714286"/>
      <point x="165.42857142857142" y="573.0"/>
    </contour>
  </outline>
</glyph>
<glyph name="k" format="2">
  <advance width="502.1428571428571"/>
  <unicode hex="006B"/>
  <anchor x="211.71428571428572" y="0.0" name="bottom"/>
  <outline>
    <contour>
      <point x="25.714285714285715" y="0.0" type="line"/>
      <point x="139.0" y="0.0" type="line"/>
      <point x="270.14285714285717" y="749.4285714285714" type="line"/>
      <point x="267.1428571428571" y="749.4285714285714" type="line"/>
      <point x="68.85714285714286" y="715.1428571428571" type="line"/>
      <point x="68.85714285714286" y="704.8571428571429" type="line"/>
      <point x="143.0" y="670.7142857142858" type="line"/>
    </contour>
    <contour>
      <point x="365.0" y="-10.0" type="curve" smooth="yes"/>
      <point x="420.0" y="-10.0"/>
      <point x="454.1428571428571" y="32.57142857142857"/>
      <point x="488.0" y="140.57142857142856" type="curve"/>
      <point x="471.1428571428571" y="146.14285714285714" type="line"/>
      <point x="452.2857142857143" y="94.71428571428572"/>
      <point x="436.1428571428571" y="74.14285714285714"/>
      <point x="414.7142857142857" y="74.14285714285714" type="curve" smooth="yes"/>
      <point x="396.50579150600004" y="74.14285714285714"/>
      <point x="386.0523718772857" y="89.53912180542856"/>
      <point x="369.8571428571429" y="120.14285714285714" type="curve" smooth="yes"/>
      <point x="270.7142857142857" y="316.2857142857143" type="line"/>
      <point x="231.57142857142856" y="273.7142857142857" type="line"/>
      <point x="333.42857142857144" y="358.14285714285717" type="line" smooth="yes"/>
      <point x="351.83092426471427" y="372.92294013214286"/>
      <point x="370.02739726028574" y="378.42857142857144"/>
      <point x="388.7142857142857" y="378.42857142857144" type="curve" smooth="yes"/>
      <point x="409.5652173912857" y="378.42857142857144"/>
      <point x="421.69272276528574" y="375.47862901914283"/>
      <point x="430.1428571428571" y="371.8571428571429" type="curve" smooth="yes"/>
      <point x="446.42857142857144" y="365.2857142857143" type="line"/>
      <point x="451.0" y="367.57142857142856" type="line"/>
      <point x="474.42857142857144" y="426.2857142857143" type="line" smooth="yes"/>
      <point x="479.42857142857144" y="438.2857142857143"/>
      <point x="473.42857142857144" y="448.2857142857143"/>
      <point x="464.42857142857144" y="455.2857142857143" type="curve" smooth="yes"/>
      <point x="457.42857142857144" y="460.2857142857143"/>
      <point x="446.42857142857144" y="464.2857142857143"/>
      <point x="430.42857142857144" y="464.2857142857143" type="curve" smooth="yes"/>
      <point x="387.2857142857143" y="464.2857142857143"/>
      <point x="329.85714285714283" y="413.0"/>
      <point x="185.14285714285714" y="261.2857142857143" type="curve"/>
      <point x="185.14285714285714" y="256.2857142857143" type="line"/>
      <point x="267.2857142857143" y="80.71428571428571" type="line" smooth="yes"/>
      <point x="291.42857142857144" y="29.857142857142854"/>
      <point x="309.85714285714283" y="-10.0"/>
    </contour>
  </outline>
</glyph>
<glyph name="l" format="2">
  <advance width="279.42857142857144"/>
  <unicode hex="006C"/>
  <anchor x="218.85714285714286" y="765.0" name="top"/>
  <anchor x="390.42857142857144" y="740.0" name="right"/>
  <anchor x="302.0" y="300.0" name="mid"/>
  <anchor x="111.85714285714286" y="0.0" name="bottom"/>
  <outline>
    <contour>
      <point x="119.85714285714286" y="-10.0" type="curve" smooth="yes"/>
      <point x="178.85714285714286" y="-10.0"/>
      <point x="225.14285714285714" y="41.857142857142854"/>
      <point x="262.85714285714283" y="141.0" type="curve"/>
      <point x="246.0" y="147.42857142857142" type="line"/>
      <point x="222.0" y="95.14285714285714"/>
      <point x="197.85714285714286" y="74.14285714285714"/>
      <point x="177.0" y="74.14285714285714" type="curve" smooth="yes"/>
      <point x="159.85714285714286" y="74.14285714285714"/>
      <point x="155.0" y="91.0"/>
      <point x="160.71428571428572" y="124.14285714285714" type="curve" smooth="yes"/>
      <point x="271.2857142857143" y="750.0" type="line"/>
      <point x="268.2857142857143" y="750.0" type="line"/>
      <point x="64.85714285714286" y="715.7142857142857" type="line"/>
      <point x="64.85714285714286" y="705.4285714285714" type="line"/>
      <point x="144.14285714285714" y="671.8571428571429" type="line"/>
      <point x="46.714285714285715" y="115.14285714285714" type="line" smooth="yes"/>
      <point x="32.85714285714286" y="35.0"/>
      <point x="59.57142857142857" y="-10.0"/>
    </contour>
  </outline>
</glyph>
<glyph name="m" format="2">
  <advance width="802.5714285714286"/>
  <unicode hex="006D"/>
  <anchor x="352.0" y="0.0" name="bottom"/>
  <outline>
    <contour>
      <point x="37.42857142857143" y="0.0" type="line"/>
      <point x="150.71428571428572" y="0.0" type="line"/>
      <point x="210.71428571428572" y="352.2857142857143" type="line"/>
      <point x="210.71428571428572" y="464.2857142857143" type="line"/>
      <point x="207.71428571428572" y="464.2857142857143" type="line"/>
      <point x="35.714285714285715" y="430.0" type="line"/>
      <point x="35.714285714285715" y="419.7142857142857" type="line"/>
      <point x="105.14285714285714" y="385.57142857142856" type="line"/>
    </contour>
    <contour>
      <point x="295.14285714285717" y="0.0" type="line"/>
      <point x="408.85714285714283" y="0.0" type="line"/>
      <point x="464.42857142857144" y="316.2857142857143" type="line" smooth="yes"/>
      <point x="480.42857142857144" y="406.7142857142857"/>
      <point x="440.1428571428571" y="464.2857142857143"/>
      <point x="374.57142857142856" y="464.2857142857143" type="curve" smooth="yes"/>
      <point x="310.85714285714283" y="464.2857142857143"/>
      <point x="282.57142857142856" y="438.14285714285717"/>
      <point x="216.0" y="364.0" type="curve"/>
      <point x="195.71428571428572" y="364.0" type="line"/>
      <point x="195.71428571428572" y="307.2857142857143" type="line"/>
      <point x="224.28571428571428" y="340.2857142857143"/>
      <point x="263.7142857142857" y="387.0"/>
      <point x="303.57142857142856" y="387.0" type="curve" smooth="yes"/>
      <point x="347.57142857142856" y="387.0"/>
      <point x="358.14285714285717" y="351.7142857142857"/>
      <point x="351.42857142857144" y="312.42857142857144" type="curve" smooth="yes"/>
    </contour>
    <contour>
      <point x="648.1428571428571" y="-10.0" type="curve" smooth="yes"/>
      <point x="707.1428571428571" y="-10.0"/>
      <point x="753.4285714285714" y="41.857142857142854"/>
      <point x="791.1428571428571" y="141.0" type="curve"/>
      <point x="774.2857142857142" y="147.42857142857142" type="line"/>
      <point x="750.2857142857142" y="95.14285714285714"/>
      <point x="726.1428571428571" y="74.14285714285714"/>
      <point x="705.2857142857142" y="74.14285714285714" type="curve" smooth="yes"/>
      <point x="688.1428571428571" y="74.14285714285714"/>
      <point x="683.2857142857142" y="91.0"/>
      <point x="689.0" y="124.14285714285714" type="curve" smooth="yes"/>
      <point x="723.1428571428571" y="316.2857142857143" type="line" smooth="yes"/>
      <point x="739.1428571428571" y="406.7142857142857"/>
      <point x="698.4285714285714" y="464.2857142857143"/>
      <point x="633.2857142857142" y="464.2857142857143" type="curve" smooth="yes"/>
      <point x="569.5714285714286" y="464.2857142857143"/>
      <point x="540.0" y="438.14285714285717"/>
      <point x="473.42857142857144" y="364.0" type="curve"/>
      <point x="453.1428571428571" y="364.0" type="line"/>
      <point x="453.1428571428571" y="307.2857142857143" type="line"/>
      <point x="481.7142857142857" y="340.2857142857143"/>
      <point x="522.4285714285714" y="387.0"/>
      <point x="562.2857142857143" y="387.0" type="curve" smooth="yes"/>
      <point x="605.4285714285714" y="387.0"/>
      <point x="616.4285714285714" y="351.7142857142857"/>
      <point x="609.7142857142857" y="312.42857142857144" type="curve" smooth="yes"/>
      <point x="575.0" y="115.14285714285714" type="line" smooth="yes"/>
      <point x="560.5714285714286" y="35.0"/>
      <point x="587.8571428571429" y="-10.0"/>
    </contour>
  </outline>
</glyph>
<glyph name="n" format="2">
  <advance width="553.1428571428571"/>
  <unicode hex="006E"/>
  <anchor x="310.57142857142856" y="510.0" name="top"/>
  <anchor x="255.57142857142856" y="0.0" name="bottom"/>
  <outline>
    <contour>
      <point x="37.42857142857143" y="0.0" type="line"/>
      <point x="150.71428571428572" y="0.0" type="line"/>
      <point x="210.71428571428572" y="352.2857142857143" type="line"/>
      <point x="210.71428571428572" y="464.2857142857143" type="line"/>
      <point x="207.71428571428572" y="464.2857142857143" type="line"/>
      <point x="35.714285714285715" y="430.0" type="line"/>
      <point x="35.714285714285715" y="419.7142857142857" type="line"/>
      <point x="105.14285714285714" y="385.57142857142856" type="line"/>
    </contour>
    <contour>
      <point x="398.7142857142857" y="-10.0" type="curve" smooth="yes"/>
      <point x="457.7142857142857" y="-10.0"/>
      <point x="504.0" y="41.857142857142854"/>
      <point x="541.7142857142857" y="141.0" type="curve"/>
      <point x="524.8571428571429" y="147.42857142857142" type="line"/>
      <point x="500.85714285714283" y="95.14285714285714"/>
      <point x="476.7142857142857" y="74.14285714285714"/>
      <point x="455.8571428571429" y="74.14285714285714" type="curve" smooth="yes"/>
      <point x="438.7142857142857" y="74.14285714285714"/>
      <point x="433.8571428571429" y="91.0"/>
      <point x="439.57142857142856" y="124.14285714285714" type="curve" smooth="yes"/>
      <point x="473.7142857142857" y="316.2857142857143" type="line" smooth="yes"/>
      <point x="489.7142857142857" y="406.7142857142857"/>
      <point x="447.85714285714283" y="464.2857142857143"/>
      <point x="379.8571428571429" y="464.2857142857143" type="curve" smooth="yes"/>
      <point x="316.1428571428571" y="464.2857142857143"/>
      <point x="283.1428571428571" y="438.14285714285717"/>
      <point x="216.0" y="364.0" type="curve"/>
      <point x="195.71428571428572" y="364.0" type="line"/>
      <point x="195.71428571428572" y="307.2857142857143" type="line"/>
      <point x="224.28571428571428" y="340.2857142857143"/>
      <point x="269.0" y="387.0"/>
      <point x="308.85714285714283" y="387.0" type="curve" smooth="yes"/>
      <point x="355.42857142857144" y="387.0"/>
      <point x="366.42857142857144" y="351.7142857142857"/>
      <point x="360.2857142857143" y="312.42857142857144" type="curve" smooth="yes"/>
      <point x="325.57142857142856" y="115.14285714285714" type="line" smooth="yes"/>
      <point x="311.14285714285717" y="35.0"/>
      <point x="338.42857142857144" y="-10.0"/>
    </contour>
  </outline>
</glyph>
<glyph name="q" format="2">
  <advance width="503.85714285714283"/>
  <unicode hex="0071"/>
  <outline>
    <contour>
      <point x="171.85714285714286" y="-230.0" type="line"/>
      <point x="428.0" y="-230.0" type="line"/>
      <point x="428.0" y="-214.0" type="line"/>
      <point x="360.1428571428571" y="-183.57142857142858" type="line"/>
      <point x="474.57142857142856" y="460.0" type="line"/>
      <point x="464.2857142857143" y="460.0" type="line"/>
      <point x="384.85714285714283" y="429.57142857142856" type="line"/>
      <point x="425.42857142857144" y="424.57142857142856" type="line"/>
      <point x="404.8571428571429" y="447.7142857142857"/>
      <point x="364.2857142857143" y="464.2857142857143"/>
      <point x="318.2857142857143" y="464.2857142857143" type="curve" smooth="yes"/>
      <point x="179.42857142857142" y="464.2857142857143"/>
      <point x="39.714285714285715" y="306.2857142857143"/>
      <point x="39.714285714285715" y="122.42857142857143" type="curve" smooth="yes"/>
      <point x="39.714285714285715" y="36.0"/>
      <point x="77.42857142857143" y="-10.0"/>
      <point x="131.71428571428572" y="-10.0" type="curve" smooth="yes"/>
      <point x="191.85714285714286" y="-10.0"/>
      <point x="240.28571428571428" y="27.285714285714285"/>
      <point x="292.42857142857144" y="100.0" type="curve"/>
      <point x="325.14285714285717" y="100.0" type="line"/>
      <point x="325.14285714285717" y="182.85714285714286" type="line"/>
      <point x="293.7142857142857" y="132.14285714285714"/>
      <point x="248.85714285714286" y="74.42857142857143"/>
      <point x="203.57142857142856" y="74.42857142857143" type="curve" smooth="yes"/>
      <point x="167.28571428571428" y="74.42857142857143"/>
      <point x="156.0" y="104.47104247102857"/>
      <point x="156.0" y="171.71428571428572" type="curve" smooth="yes"/>
      <point x="156.0" y="302.5156345801429"/>
      <point x="207.4857142857143" y="421.0"/>
      <point x="284.14285714285717" y="421.0" type="curve" smooth="yes"/>
      <point x="317.42857142857144" y="421.0"/>
      <point x="337.7142857142857" y="403.7142857142857"/>
      <point x="358.0" y="375.14285714285717" type="curve"/>
      <point x="353.42857142857144" y="413.85714285714283" type="line"/>
      <point x="246.42857142857142" y="-184.85714285714286" type="line"/>
      <point x="171.85714285714286" y="-214.0" type="line"/>
    </contour>
  </outline>
</glyph>
<glyph name="r" format="2">
  <advance width="371.1428571428571"/>
  <unicode hex="0072"/>
  <anchor x="254.0" y="510.0" name="top"/>
  <anchor x="95.28571428571429" y="0.0" name="bottom"/>
  <outline>
    <contour>
      <point x="37.42857142857143" y="0.0" type="line"/>
      <point x="150.71428571428572" y="0.0" type="line"/>
      <point x="210.14285714285714" y="343.42857142857144" type="line"/>
      <point x="210.14285714285714" y="464.2857142857143" type="line"/>
      <point x="207.14285714285714" y="464.2857142857143" type="line"/>
      <point x="35.714285714285715" y="430.0" type="line"/>
      <point x="35.714285714285715" y="419.7142857142857" type="line"/>
      <point x="105.14285714285714" y="385.57142857142856" type="line"/>
    </contour>
    <contour>
      <point x="292.14285714285717" y="370.0" type="curve" smooth="yes"/>
      <point x="311.0" y="370.0"/>
      <point x="323.57142857142856" y="364.42857142857144"/>
      <point x="337.14285714285717" y="354.2857142857143" type="curve" smooth="yes"/>
      <point x="348.57142857142856" y="345.8571428571429" type="line"/>
      <point x="354.57142857142856" y="345.8571428571429" type="line"/>
      <point x="386.85714285714283" y="411.42857142857144" type="line" smooth="yes"/>
      <point x="389.7142857142857" y="417.57142857142856"/>
      <point x="390.7142857142857" y="422.0"/>
      <point x="390.7142857142857" y="427.14285714285717" type="curve" smooth="yes"/>
      <point x="390.7142857142857" y="445.0"/>
      <point x="366.2857142857143" y="464.2857142857143"/>
      <point x="338.42857142857144" y="464.2857142857143" type="curve" smooth="yes"/>
      <point x="305.14285714285717" y="464.2857142857143"/>
      <point x="278.0" y="453.57142857142856"/>
      <point x="215.85714285714286" y="352.85714285714283" type="curve"/>
      <point x="193.14285714285714" y="352.85714285714283" type="line"/>
      <point x="193.14285714285714" y="282.0" type="line"/>
      <point x="237.71428571428572" y="355.7142857142857"/>
      <point x="259.0" y="370.0"/>
    </contour>
  </outline>
</glyph>
<glyph name="s" format="2">
  <advance width="372.7142857142857"/>
  <unicode hex="0073"/>
  <anchor x="241.14285714285714" y="510.0" name="top"/>
  <anchor x="147.57142857142858" y="0.0" name="bottom"/>
  <outline>
    <contour>
      <point x="142.28571428571428" y="-10.0" type="curve"/>
      <point x="250.14285714285714" y="-10.0"/>
      <point x="323.85714285714283" y="67.14285714285714"/>
      <point x="323.85714285714283" y="149.28571428571428" type="curve" smooth="yes"/>
      <point x="323.85714285714283" y="218.85714285714286"/>
      <point x="284.57142857142856" y="247.85714285714286"/>
      <point x="222.0" y="283.0" type="curve" smooth="yes"/>
      <point x="173.71428571428572" y="309.0"/>
      <point x="151.85714285714286" y="331.6828885400314"/>
      <point x="151.85714285714286" y="365.57142857142856" type="curve" smooth="yes"/>
      <point x="151.85714285714286" y="397.4884792627143"/>
      <point x="176.04511278200002" y="419.14285714285717"/>
      <point x="209.42857142857142" y="419.14285714285717" type="curve" smooth="yes"/>
      <point x="239.18226601" y="419.14285714285717"/>
      <point x="255.83221167657143" y="404.93989576714284"/>
      <point x="275.85714285714283" y="379.85714285714283" type="curve" smooth="yes"/>
      <point x="299.57142857142856" y="349.7142857142857" type="line"/>
      <point x="306.57142857142856" y="349.7142857142857" type="line"/>
      <point x="339.7142857142857" y="373.0" type="line" smooth="yes"/>
      <point x="347.14285714285717" y="377.14285714285717"/>
      <point x="349.42857142857144" y="385.14285714285717"/>
      <point x="349.42857142857144" y="392.85714285714283" type="curve" smooth="yes"/>
      <point x="349.42857142857144" y="401.7142857142857"/>
      <point x="345.2857142857143" y="411.7142857142857"/>
      <point x="336.1428571428571" y="424.0" type="curve" smooth="yes"/>
      <point x="319.7142857142857" y="446.42857142857144"/>
      <point x="293.42857142857144" y="464.2857142857143"/>
      <point x="241.42857142857142" y="464.2857142857143" type="curve" smooth="yes"/>
      <point x="148.85714285714286" y="464.2857142857143"/>
      <point x="60.142857142857146" y="386.14285714285717"/>
      <point x="60.142857142857146" y="321.2857142857143" type="curve" smooth="yes"/>
      <point x="60.142857142857146" y="258.2283464566929"/>
      <point x="82.64308166152414" y="232.20756791984692"/>
      <point x="149.71428571428572" y="192.28571428571428" type="curve" smooth="yes"/>
      <point x="209.34027997172745" y="158.1333545873907"/>
      <point x="237.85714285714286" y="140.40616246498598"/>
      <point x="237.85714285714286" y="97.0" type="curve" smooth="yes"/>
      <point x="237.85714285714286" y="58.42857142857143"/>
      <point x="209.85714285714286" y="34.0"/>
      <point x="164.14285714285714" y="34.0" type="curve" smooth="yes"/>
      <point x="130.28571428571428" y="34.0"/>
      <point x="98.42857142857143" y="51.285714285714285"/>
      <point x="76.71428571428572" y="83.57142857142857" type="curve" smooth="yes"/>
      <point x="59.714285714285715" y="109.14285714285714" type="line"/>
      <point x="53.14285714285714" y="109.14285714285714" type="line"/>
      <point x="20.42857142857143" y="86.42857142857143" type="line" smooth="yes"/>
      <point x="10.714285714285715" y="80.42857142857143"/>
      <point x="8.857142857142858" y="71.85714285714286"/>
      <point x="8.857142857142858" y="63.857142857142854" type="curve" smooth="yes"/>
      <point x="8.857142857142858" y="53.14285714285714"/>
      <point x="14.714285714285715" y="43.142857142857146"/>
      <point x="27.42857142857143" y="30.714285714285715" type="curve" smooth="yes"/>
      <point x="47.285714285714285" y="7.714285714285714"/>
      <point x="84.57142857142857" y="-10.0"/>
    </contour>
  </outline>
</glyph>
<glyph name="t" format="2">
  <advance width="335.42857142857144"/>
  <unicode hex="0074"/>
  <anchor x="221.57142857142856" y="610.0" name="top"/>
  <anchor x="402.0" y="740.0" name="right"/>
  <anchor x="141.42857142857142" y="0.0" name="bottom"/>
  <outline>
    <contour>
      <point x="143.85714285714286" y="-10.0" type="curve" smooth="yes"/>
      <point x="214.14285714285714" y="-10.0"/>
      <point x="273.57142857142856" y="49.57142857142857"/>
      <point x="314.57142857142856" y="172.57142857142856" type="curve"/>
      <point x="297.2857142857143" y="179.0" type="line"/>
      <point x="270.0" y="113.42857142857143"/>
      <point x="235.28571428571428" y="84.42857142857143"/>
      <point x="205.28571428571428" y="84.42857142857143" type="curve" smooth="yes"/>
      <point x="183.85714285714283" y="84.42857142857143"/>
      <point x="172.0" y="97.28571428571428"/>
      <point x="172.0" y="128.85714285714286" type="curve" smooth="yes"/>
      <point x="172.0" y="138.57142857142856"/>
      <point x="173.0" y="150.42857142857144"/>
      <point x="176.42857142857142" y="170.85714285714286" type="curve" smooth="yes"/>
      <point x="218.85714285714286" y="410.2857142857143" type="line"/>
      <point x="349.2857142857143" y="410.2857142857143" type="line"/>
      <point x="349.2857142857143" y="454.2857142857143" type="line"/>
      <point x="226.85714285714286" y="454.2857142857143" type="line"/>
      <point x="245.42857142857144" y="561.2857142857143" type="line"/>
      <point x="230.85714285714286" y="561.2857142857143" type="line"/>
      <point x="141.0" y="468.0" type="line"/>
      <point x="40.57142857142857" y="421.85714285714283" type="line"/>
      <point x="38.85714285714286" y="410.2857142857143" type="line"/>
      <point x="106.0" y="410.2857142857143" type="line"/>
      <point x="57.714285714285715" y="135.85714285714286" type="line" smooth="yes"/>
      <point x="55.285714285714285" y="119.71428571428571"/>
      <point x="53.285714285714285" y="104.57142857142857"/>
      <point x="53.285714285714285" y="91.42857142857142" type="curve" smooth="yes"/>
      <point x="53.285714285714285" y="26.0"/>
      <point x="85.71428571428571" y="-10.0"/>
    </contour>
  </outline>
</glyph>
<glyph name="v" format="2">
  <advance width="457.0"/>
  <unicode hex="0076"/>
  <outline>
    <contour>
      <point x="187.14285714285714" y="0.0" type="line"/>
      <point x="213.0" y="0.0" type="line"/>
      <point x="281.42857142857144" y="102.42857142857143" type="line"/>
      <point x="281.42857142857144" y="135.0" type="line"/>
      <point x="271.0" y="135.0" type="line"/>
      <point x="190.71428571428572" y="464.2857142857143" type="line"/>
      <point x="187.71428571428572" y="464.2857142857143" type="line"/>
      <point x="15.285714285714285" y="430.0" type="line"/>
      <point x="15.285714285714285" y="419.7142857142857" type="line"/>
      <point x="116.71428571428572" y="381.0" type="line"/>
      <point x="81.28571428571428" y="420.85714285714283" type="line"/>
    </contour>
    <contour>
      <point x="220.57142857142856" y="0.0" type="line"/>
      <point x="382.57142857142856" y="229.28571428571428" type="line" smooth="yes"/>
      <point x="435.57142857142856" y="304.85714285714283"/>
      <point x="453.2857142857143" y="343.42857142857144"/>
      <point x="453.2857142857143" y="380.57142857142856" type="curve" smooth="yes"/>
      <point x="453.2857142857143" y="419.57142857142856"/>
      <point x="421.57142857142856" y="464.2857142857143"/>
      <point x="387.85714285714283" y="464.2857142857143" type="curve" smooth="yes"/>
      <point x="371.1428571428571" y="464.2857142857143"/>
      <point x="365.7142857142857" y="460.2857142857143"/>
      <point x="354.0" y="437.85714285714283" type="curve" smooth="yes"/>
      <point x="331.57142857142856" y="394.14285714285717" type="line"/>
      <point x="331.57142857142856" y="389.7142857142857" type="line"/>
      <point x="346.2857142857143" y="381.2857142857143" type="line" smooth="yes"/>
      <point x="364.85714285714283" y="370.42857142857144"/>
      <point x="375.57142857142856" y="356.0"/>
      <point x="375.57142857142856" y="332.42857142857144" type="curve" smooth="yes"/>
      <point x="375.57142857142856" y="310.42857142857144"/>
      <point x="372.1428571428571" y="278.42857142857144"/>
      <point x="333.7142857142857" y="220.85714285714286" type="curve" smooth="yes"/>
      <point x="207.57142857142856" y="31.57142857142857" type="line"/>
      <point x="207.57142857142856" y="0.0" type="line"/>
    </contour>
  </outline>
</glyph>
<glyph name="w" format="2">
  <advance width="673.4285714285714"/>
  <unicode hex="0077"/>
  <anchor x="415.0" y="510.0" name="top"/>
  <outline>
    <contour>
      <point x="172.28571428571428" y="0.0" type="line"/>
      <point x="199.42857142857144" y="0.0" type="line"/>
      <point x="260.42857142857144" y="114.42857142857142" type="line"/>
      <point x="260.42857142857144" y="158.42857142857142" type="line"/>
      <point x="250.85714285714283" y="158.42857142857142" type="line"/>
      <point x="190.71428571428572" y="464.2857142857143" type="line"/>
      <point x="187.71428571428572" y="464.2857142857143" type="line"/>
      <point x="15.285714285714285" y="430.0" type="line"/>
      <point x="15.285714285714285" y="419.7142857142857" type="line"/>
      <point x="117.57142857142857" y="380.14285714285717" type="line"/>
      <point x="82.71428571428572" y="417.42857142857144" type="line"/>
    </contour>
    <contour>
      <point x="394.57142857142856" y="454.2857142857143" type="line"/>
      <point x="193.14285714285714" y="28.71428571428571" type="line"/>
      <point x="193.14285714285714" y="0.0" type="line"/>
      <point x="205.71428571428572" y="0.0" type="line"/>
      <point x="366.57142857142856" y="302.0" type="line"/>
      <point x="343.2857142857143" y="302.0" type="line"/>
      <point x="428.0" y="0.0" type="line"/>
      <point x="452.1428571428571" y="0.0" type="line"/>
      <point x="513.8571428571429" y="112.14285714285714" type="line"/>
      <point x="424.0" y="454.2857142857143" type="line"/>
    </contour>
    <contour>
      <point x="461.42857142857144" y="0.0" type="line"/>
      <point x="599.0" y="229.28571428571428" type="line" smooth="yes"/>
      <point x="645.5714285714286" y="307.8571428571429"/>
      <point x="669.7142857142857" y="343.42857142857144"/>
      <point x="669.7142857142857" y="380.57142857142856" type="curve" smooth="yes"/>
      <point x="669.7142857142857" y="419.57142857142856"/>
      <point x="638.0" y="464.2857142857143"/>
      <point x="604.2857142857143" y="464.2857142857143" type="curve" smooth="yes"/>
      <point x="587.5714285714286" y="464.2857142857143"/>
      <point x="582.1428571428571" y="460.2857142857143"/>
      <point x="570.4285714285714" y="437.85714285714283" type="curve" smooth="yes"/>
      <point x="548.0" y="394.14285714285717" type="line"/>
      <point x="548.0" y="389.7142857142857" type="line"/>
      <point x="562.7142857142857" y="381.2857142857143" type="line" smooth="yes"/>
      <point x="581.2857142857143" y="370.42857142857144"/>
      <point x="592.0" y="356.0"/>
      <point x="592.0" y="332.42857142857144" type="curve" smooth="yes"/>
      <point x="592.0" y="310.42857142857144"/>
      <point x="583.0" y="281.0"/>
      <point x="551.2857142857142" y="220.85714285714286" type="curve" smooth="yes"/>
      <point x="511.0" y="144.28571428571428" type="line"/>
      <point x="444.57142857142856" y="144.28571428571428" type="line"/>
      <point x="444.57142857142856" y="0.0" type="line"/>
    </contour>
  </outline>
</glyph>
<glyph name="x" format="2">
  <advance width="473.7142857142857"/>
  <unicode hex="0078"/>
  <outline>
    <contour>
      <point x="275.2857142857143" y="-4.285714285714286" type="line"/>
      <point x="278.2857142857143" y="-4.285714285714286" type="line"/>
      <point x="436.42857142857144" y="30.0" type="line"/>
      <point x="436.42857142857144" y="40.285714285714285" type="line"/>
      <point x="347.42857142857144" y="77.57142857142857" type="line"/>
      <point x="369.42857142857144" y="62.0" type="line"/>
      <point x="210.57142857142856" y="464.2857142857143" type="line"/>
      <point x="208.14285714285714" y="464.2857142857143" type="line"/>
      <point x="47.142857142857146" y="430.0" type="line"/>
      <point x="47.142857142857146" y="419.7142857142857" type="line"/>
      <point x="139.0" y="381.2857142857143" type="line"/>
      <point x="112.42857142857143" y="402.0" type="line"/>
    </contour>
    <contour>
      <point x="459.2857142857143" y="454.2857142857143" type="curve"/>
      <point x="388.42857142857144" y="454.2857142857143" type="line"/>
      <point x="374.67511672642854" y="424.49811465557144"/>
      <point x="375.49836682585715" y="407.7904689561429"/>
      <point x="250.85714285714286" y="251.28571428571428" type="curve"/>
      <point x="276.57142857142856" y="241.28571428571428" type="line"/>
      <point x="423.2857142857143" y="405.85714285714283"/>
      <point x="457.42857142857144" y="424.2857142857143"/>
    </contour>
    <contour>
      <point x="-7.428571428571427" y="0.0" type="curve"/>
      <point x="67.28571428571428" y="0.0" type="line"/>
      <point x="83.14285714285714" y="34.0"/>
      <point x="84.42857142857143" y="49.0"/>
      <point x="229.42857142857142" y="231.0" type="curve"/>
      <point x="203.28571428571428" y="241.0" type="line"/>
      <point x="37.285714285714285" y="54.42857142857143"/>
      <point x="-5.571428571428571" y="34.0"/>
    </contour>
  </outline>
</glyph>
<glyph name="y" format="2">
  <advance width="459.85714285714283"/>
  <unicode hex="0079"/>
  <anchor x="302.57142857142856" y="510.0" name="top"/>
  <anchor x="273.0" y="-20.285714285714285" name="bottom"/>
  <outline>
    <contour>
      <point x="14.0" y="419.7142857142857" type="line"/>
      <point x="115.0" y="378.8571428571429" type="line"/>
      <point x="80.0" y="419.2857142857143" type="line"/>
      <point x="192.0" y="-22.71428571428571" type="line"/>
      <point x="279.42857142857144" y="94.42857142857143" type="line"/>
      <point x="279.42857142857144" y="126.42857142857143" type="line"/>
      <point x="269.7142857142857" y="126.42857142857143" type="line"/>
      <point x="186.85714285714286" y="464.2857142857143" type="line"/>
      <point x="183.85714285714286" y="464.2857142857143" type="line"/>
      <point x="14.0" y="430.0" type="line"/>
    </contour>
    <contour>
      <point x="2.714285714285708" y="-240.0" type="curve" smooth="yes"/>
      <point x="41.42857142857143" y="-240.0"/>
      <point x="79.0" y="-221.57142857142858"/>
      <point x="112.42857142857143" y="-183.0" type="curve" smooth="yes"/>
      <point x="148.85714285714286" y="-141.0"/>
      <point x="154.14285714285714" y="-124.85714285714286"/>
      <point x="184.0" y="-79.0" type="curve" smooth="yes"/>
      <point x="382.57142857142856" y="229.28571428571428" type="line" smooth="yes"/>
      <point x="431.7142857142857" y="305.8571428571429"/>
      <point x="453.2857142857143" y="343.42857142857144"/>
      <point x="453.2857142857143" y="380.57142857142856" type="curve" smooth="yes"/>
      <point x="453.2857142857143" y="420.7142857142857"/>
      <point x="422.7142857142857" y="464.2857142857143"/>
      <point x="387.85714285714283" y="464.2857142857143" type="curve" smooth="yes"/>
      <point x="371.1428571428571" y="464.2857142857143"/>
      <point x="365.7142857142857" y="460.2857142857143"/>
      <point x="354.0" y="437.85714285714283" type="curve" smooth="yes"/>
      <point x="331.57142857142856" y="394.14285714285717" type="line"/>
      <point x="331.57142857142856" y="389.7142857142857" type="line"/>
      <point x="346.2857142857143" y="381.2857142857143" type="line" smooth="yes"/>
      <point x="364.85714285714283" y="370.42857142857144"/>
      <point x="375.57142857142856" y="356.0"/>
      <point x="375.57142857142856" y="332.42857142857144" type="curve" smooth="yes"/>
      <point x="375.57142857142856" y="310.42857142857144"/>
      <point x="370.0" y="278.2857142857143"/>
      <point x="334.1428571428571" y="220.85714285714286" type="curve" smooth="yes"/>
      <point x="165.0" y="-47.714285714285715" type="line" smooth="yes"/>
      <point x="109.57142857142857" y="-135.28571428571428"/>
      <point x="106.0" y="-139.85714285714286"/>
      <point x="35.28571428571428" y="-139.85714285714286" type="curve" smooth="yes"/>
      <point x="-18.285714285714292" y="-139.85714285714286" type="line"/>
      <point x="-25.285714285714292" y="-145.85714285714286" type="line"/>
      <point x="-25.285714285714292" y="-211.0" type="line" smooth="yes"/>
      <point x="-25.285714285714292" y="-232.0"/>
      <point x="-17.285714285714292" y="-240.0"/>
    </contour>
  </outline>
</glyph>
<glyph name="z" format="2">
  <advance width="429.7142857142857"/>
  <unicode hex="007A"/>
  <anchor x="258.57142857142856" y="510.0" name="top"/>
  <anchor x="169.57142857142858" y="0.0" name="bottom"/>
  <outline>
    <contour>
      <point x="24.285714285714285" y="-4.857142857142857" type="line"/>
      <point x="39.714285714285715" y="12.142857142857142" type="line" smooth="yes"/>
      <point x="61.0" y="35.57142857142857"/>
      <point x="77.28571428571429" y="47.285714285714285"/>
      <point x="101.42857142857143" y="47.285714285714285" type="curve" smooth="yes"/>
      <point x="111.28571428571429" y="47.285714285714285"/>
      <point x="122.14285714285714" y="45.285714285714285"/>
      <point x="137.14285714285714" y="41.857142857142854" type="curve" smooth="yes"/>
      <point x="340.7142857142857" y="-5.0" type="line"/>
      <point x="376.42857142857144" y="181.28571428571428" type="line"/>
      <point x="360.42857142857144" y="181.28571428571428" type="line"/>
      <point x="290.14285714285717" y="64.71428571428571" type="line"/>
      <point x="345.42857142857144" y="92.42857142857143" type="line"/>
      <point x="136.71428571428572" y="141.85714285714286" type="line"/>
      <point x="136.71428571428572" y="110.0" type="line"/>
      <point x="398.85714285714283" y="433.57142857142856" type="line"/>
      <point x="390.0" y="454.2857142857143" type="line"/>
      <point x="91.14285714285714" y="454.2857142857143" type="line"/>
      <point x="65.0" y="289.57142857142856" type="line"/>
      <point x="81.0" y="289.57142857142856" type="line"/>
      <point x="137.14285714285714" y="391.14285714285717" type="line"/>
      <point x="97.14285714285714" y="360.42857142857144" type="line"/>
      <point x="319.0" y="360.42857142857144" type="line"/>
      <point x="319.0" y="400.57142857142856" type="line"/>
      <point x="6.142857142857144" y="12.0" type="line"/>
    </contour>
  </outline>
</glyph>
<glyph name="braceleft" format="2">
  <advance width="265.0"/>
  <unicode hex="007B"/>
  <outline>
    <contour>
      <point x="185.42857142857142" y="-150.0" type="line"/>
      <point x="189.42857142857142" y="-127.0" type="line"/>
      <point x="167.28571428571428" y="-127.0" type="line" smooth="yes"/>
      <point x="119.57142857142857" y="-127.0"/>
      <point x="94.71428571428572" y="-107.57142857142857"/>
      <point x="94.71428571428572" y="-60.285714285714285" type="curve" smooth="yes"/>
      <point x="94.71428571428572" y="9.857142857142858"/>
      <point x="176.71428571428572" y="133.57142857142858"/>
      <point x="176.71428571428572" y="199.28571428571428" type="curve" smooth="yes"/>
      <point x="176.71428571428572" y="243.71428571428572"/>
      <point x="162.0" y="274.2857142857143"/>
      <point x="110.14285714285714" y="295.0" type="curve"/>
      <point x="192.0" y="331.85714285714283"/>
      <point x="215.42857142857142" y="387.0"/>
      <point x="215.42857142857142" y="448.0" type="curve" smooth="yes"/>
      <point x="215.42857142857142" y="491.85714285714283"/>
      <point x="203.85714285714286" y="535.2857142857143"/>
      <point x="203.42857142857142" y="584.1428571428571" type="curve" smooth="yes"/>
      <point x="202.57142857142856" y="662.7142857142857"/>
      <point x="233.0" y="717.0"/>
      <point x="306.85714285714283" y="717.0" type="curve" smooth="yes"/>
      <point x="329.42857142857144" y="717.0" type="line"/>
      <point x="333.42857142857144" y="740.0" type="line"/>
      <point x="312.0" y="740.0" type="line" smooth="yes"/>
      <point x="191.42857142857142" y="740.0"/>
      <point x="137.85714285714286" y="670.8571428571429"/>
      <point x="137.85714285714286" y="568.1428571428571" type="curve" smooth="yes"/>
      <point x="137.85714285714286" y="515.5714285714286"/>
      <point x="152.0" y="467.0"/>
      <point x="152.0" y="421.14285714285717" type="curve" smooth="yes"/>
      <point x="152.0" y="362.57142857142856"/>
      <point x="129.0" y="307.0"/>
      <point x="53.0" y="307.0" type="curve" smooth="yes"/>
      <point x="30.0" y="307.0" type="line"/>
      <point x="26.0" y="284.0" type="line"/>
      <point x="50.0" y="284.0" type="line" smooth="yes"/>
      <point x="101.71428571428571" y="284.0"/>
      <point x="118.0" y="256.42857142857144"/>
      <point x="118.0" y="221.85714285714286" type="curve" smooth="yes"/>
      <point x="118.0" y="137.42857142857142"/>
      <point x="34.0" y="44.42857142857143"/>
      <point x="34.0" y="-47.0" type="curve" smooth="yes"/>
      <point x="34.0" y="-109.0"/>
      <point x="73.0" y="-150.0"/>
      <point x="164.0" y="-150.0" type="curve" smooth="yes"/>
    </contour>
  </outline>
</glyph>
<glyph name="bar" format="2">
  <advance width="250.0"/>
  <unicode hex="007C"/>
  <outline>
    <contour>
      <point x="12.571428571428573" y="-250.0" type="line"/>
      <point x="60.85714285714286" y="-250.0" type="line"/>
      <point x="237.42857142857142" y="750.0" type="line"/>
      <point x="188.57142857142858" y="750.0" type="line"/>
    </contour>
  </outline>
</glyph>
<glyph name="braceright" format="2">
  <advance width="265.0"/>
  <unicode hex="007D"/>
  <outline>
    <contour>
      <point x="-48.42857142857143" y="-150.0" type="line"/>
      <point x="-27.0" y="-150.0" type="line" smooth="yes"/>
      <point x="93.57142857142857" y="-150.0"/>
      <point x="147.14285714285714" y="-80.85714285714286"/>
      <point x="147.14285714285714" y="21.857142857142858" type="curve" smooth="yes"/>
      <point x="147.14285714285714" y="74.42857142857143"/>
      <point x="133.0" y="123.0"/>
      <point x="133.0" y="168.85714285714286" type="curve" smooth="yes"/>
      <point x="133.0" y="227.42857142857142"/>
      <point x="156.0" y="283.0"/>
      <point x="232.0" y="283.0" type="curve" smooth="yes"/>
      <point x="255.0" y="283.0" type="line"/>
      <point x="259.0" y="306.0" type="line"/>
      <point x="235.0" y="306.0" type="line" smooth="yes"/>
      <point x="183.28571428571428" y="306.0"/>
      <point x="167.0" y="333.57142857142856"/>
      <point x="167.0" y="368.14285714285717" type="curve" smooth="yes"/>
      <point x="167.0" y="452.57142857142856"/>
      <point x="251.0" y="545.5714285714286"/>
      <point x="251.0" y="637.0" type="curve" smooth="yes"/>
      <point x="251.0" y="699.0"/>
      <point x="212.0" y="740.0"/>
      <point x="121.0" y="740.0" type="curve" smooth="yes"/>
      <point x="99.57142857142857" y="740.0" type="line"/>
      <point x="95.57142857142857" y="717.0" type="line"/>
      <point x="117.71428571428571" y="717.0" type="line" smooth="yes"/>
      <point x="165.42857142857142" y="717.0"/>
      <point x="190.28571428571428" y="697.5714285714286"/>
      <point x="190.28571428571428" y="650.2857142857143" type="curve" smooth="yes"/>
      <point x="190.28571428571428" y="580.1428571428571"/>
      <point x="108.28571428571428" y="456.42857142857144"/>
      <point x="108.28571428571428" y="390.7142857142857" type="curve" smooth="yes"/>
      <point x="108.28571428571428" y="346.2857142857143"/>
      <point x="123.0" y="315.7142857142857"/>
      <point x="174.85714285714286" y="295.0" type="curve"/>
      <point x="93.0" y="258.14285714285717"/>
      <point x="69.57142857142857" y="203.0"/>
      <point x="69.57142857142857" y="142.0" type="curve" smooth="yes"/>
      <point x="69.57142857142857" y="98.14285714285714"/>
      <point x="81.14285714285714" y="54.714285714285715"/>
      <point x="81.57142857142857" y="5.857142857142858" type="curve" smooth="yes"/>
      <point x="82.42857142857143" y="-72.71428571428572"/>
      <point x="52.0" y="-127.0"/>
      <point x="-21.857142857142858" y="-127.0" type="curve" smooth="yes"/>
      <point x="-44.42857142857143" y="-127.0" type="line"/>
    </contour>
  </outline>
</glyph>
<glyph name="asciitilde" format="2">
  <advance width="542.8571428571429"/>
  <unicode hex="007E"/>
  <outline>
    <contour>
      <point x="354.57142857142856" y="201.0" type="curve" smooth="yes"/>
      <point x="424.7142857142857" y="201.0"/>
      <point x="471.7142857142857" y="253.0"/>
      <point x="485.7142857142857" y="343.0" type="curve"/>
      <point x="435.0" y="343.0" type="line"/>
      <point x="426.42857142857144" y="289.2857142857143"/>
      <point x="405.2857142857143" y="250.57142857142856"/>
      <point x="359.85714285714283" y="250.57142857142856" type="curve" smooth="yes"/>
      <point x="288.7142857142857" y="250.57142857142856"/>
      <point x="271.85714285714283" y="343.0"/>
      <point x="173.57142857142858" y="343.0" type="curve" smooth="yes"/>
      <point x="103.42857142857143" y="343.0"/>
      <point x="56.857142857142854" y="291.0"/>
      <point x="42.85714285714286" y="201.0" type="curve"/>
      <point x="93.57142857142857" y="201.0" type="line"/>
      <point x="102.14285714285714" y="254.71428571428572"/>
      <point x="123.28571428571428" y="293.42857142857144"/>
      <point x="168.71428571428572" y="293.42857142857144" type="curve" smooth="yes"/>
      <point x="239.42857142857142" y="293.42857142857144"/>
      <point x="256.2857142857143" y="201.0"/>
    </contour>
  </outline>
</glyph>
<glyph name="exclamdown" format="2">
  <advance width="237.57142857142856"/>
  <unicode hex="00A1"/>
  <outline>
    <contour>
      <point x="-34.0" y="-203.57142857142858" type="line"/>
      <point x="90.42857142857143" y="-203.57142857142858" type="line"/>
      <point x="119.28571428571428" y="243.57142857142858" type="line"/>
      <point x="94.0" y="243.57142857142858" type="line"/>
    </contour>
    <contour>
      <point x="126.71428571428571" y="332.2857142857143" type="curve" smooth="yes"/>
      <point x="167.0" y="332.2857142857143"/>
      <point x="195.0" y="367.57142857142856"/>
      <point x="195.0" y="405.42857142857144" type="curve" smooth="yes"/>
      <point x="195.0" y="437.85714285714283"/>
      <point x="178.28571428571428" y="461.42857142857144"/>
      <point x="141.0" y="461.42857142857144" type="curve" smooth="yes"/>
      <point x="99.71428571428571" y="461.42857142857144"/>
      <point x="72.71428571428571" y="428.2857142857143"/>
      <point x="72.71428571428571" y="388.2857142857143" type="curve" smooth="yes"/>
      <point x="72.71428571428571" y="355.85714285714283"/>
      <point x="89.42857142857143" y="332.2857142857143"/>
    </contour>
  </outline>
</glyph>
<glyph name="cent" format="2">
  <advance width="542.8571428571429"/>
  <unicode hex="00A2"/>
  <outline>
    <contour>
      <point x="247.71428571428572" y="92.85714285714286" type="curve" smooth="yes"/>
      <point x="330.7142857142857" y="92.85714285714286"/>
      <point x="395.85714285714283" y="155.85714285714286"/>
      <point x="446.7142857142857" y="246.28571428571428" type="curve"/>
      <point x="429.85714285714283" y="260.85714285714283" type="line"/>
      <point x="427.42857142857144" y="260.85714285714283" type="line"/>
      <point x="379.57142857142856" y="206.14285714285714"/>
      <point x="346.1428571428571" y="187.28571428571428"/>
      <point x="300.42857142857144" y="187.28571428571428" type="curve" smooth="yes"/>
      <point x="241.71428571428572" y="187.28571428571428"/>
      <point x="205.42857142857144" y="234.42857142857144"/>
      <point x="205.42857142857144" y="313.85714285714283" type="curve" smooth="yes"/>
      <point x="205.42857142857144" y="422.57142857142856"/>
      <point x="263.1428571428571" y="521.5714285714286"/>
      <point x="324.7142857142857" y="521.5714285714286" type="curve" smooth="yes"/>
      <point x="359.85714285714283" y="521.5714285714286"/>
      <point x="370.85714285714283" y="501.42857142857144"/>
      <point x="389.2857142857143" y="471.0" type="curve" smooth="yes"/>
      <point x="410.14285714285717" y="435.14285714285717" type="line"/>
      <point x="416.7142857142857" y="435.14285714285717" type="line"/>
      <point x="457.2857142857143" y="464.14285714285717" type="line" smooth="yes"/>
      <point x="468.2857142857143" y="471.42857142857144"/>
      <point x="472.2857142857143" y="482.0"/>
      <point x="472.2857142857143" y="491.42857142857144" type="curve" smooth="yes"/>
      <point x="472.2857142857143" y="499.57142857142856"/>
      <point x="471.1428571428571" y="505.7142857142857"/>
      <point x="463.1428571428571" y="518.1428571428571" type="curve" smooth="yes"/>
      <point x="444.1428571428571" y="548.0"/>
      <point x="408.7142857142857" y="567.1428571428571"/>
      <point x="355.0" y="567.1428571428571" type="curve" smooth="yes"/>
      <point x="217.85714285714286" y="567.1428571428571"/>
      <point x="89.85714285714286" y="414.14285714285717"/>
      <point x="89.85714285714286" y="267.14285714285717" type="curve" smooth="yes"/>
      <point x="89.85714285714286" y="155.28571428571428"/>
      <point x="141.42857142857142" y="92.85714285714286"/>
    </contour>
    <contour>
      <point x="145.14285714285714" y="26.0" type="line"/>
      <point x="185.42857142857144" y="26.0" type="line"/>
      <point x="435.0" y="635.0" type="line"/>
      <point x="394.7142857142857" y="635.0" type="line"/>
    </contour>
  </outline>
</glyph>
<glyph name="currency" format="2">
  <advance width="542.8571428571429"/>
  <unicode hex="00A4"/>
  <outline>
    <contour>
      <point x="394.14285714285717" y="62.0" type="line"/>
      <point x="435.42857142857144" y="95.28571428571428" type="line"/>
      <point x="380.14285714285717" y="164.85714285714286" type="line"/>
      <point x="412.7142857142857" y="198.42857142857142"/>
      <point x="427.7142857142857" y="242.42857142857142"/>
      <point x="427.7142857142857" y="289.0" type="curve" smooth="yes"/>
      <point x="427.7142857142857" y="317.0"/>
      <point x="420.7142857142857" y="343.57142857142856"/>
      <point x="408.1428571428571" y="366.57142857142856" type="curve"/>
      <point x="497.14285714285717" y="445.57142857142856" type="line"/>
      <point x="466.2857142857143" y="482.85714285714283" type="line"/>
      <point x="377.2857142857143" y="403.42857142857144" type="line"/>
      <point x="353.2857142857143" y="423.0"/>
      <point x="319.2857142857143" y="434.0"/>
      <point x="282.7142857142857" y="434.0" type="curve" smooth="yes"/>
      <point x="248.14285714285714" y="434.0"/>
      <point x="218.57142857142856" y="426.0"/>
      <point x="193.57142857142856" y="411.42857142857144" type="curve"/>
      <point x="137.71428571428572" y="482.42857142857144" type="line"/>
      <point x="96.42857142857142" y="449.14285714285717" type="line"/>
      <point x="152.28571428571428" y="379.57142857142856" type="line"/>
      <point x="119.71428571428572" y="346.0"/>
      <point x="104.71428571428572" y="302.0"/>
      <point x="104.71428571428572" y="256.0" type="curve" smooth="yes"/>
      <point x="104.71428571428572" y="227.42857142857142"/>
      <point x="111.71428571428571" y="200.85714285714286"/>
      <point x="124.28571428571428" y="178.42857142857142" type="curve"/>
      <point x="34.71428571428571" y="98.85714285714286" type="line"/>
      <point x="65.57142857142857" y="61.57142857142857" type="line"/>
      <point x="155.14285714285714" y="141.57142857142858" type="line"/>
      <point x="179.14285714285714" y="122.0"/>
      <point x="213.14285714285714" y="110.42857142857143"/>
      <point x="250.28571428571428" y="110.42857142857143" type="curve" smooth="yes"/>
      <point x="284.2857142857143" y="110.42857142857143"/>
      <point x="313.85714285714283" y="118.42857142857143"/>
      <point x="338.85714285714283" y="133.0" type="curve"/>
    </contour>
    <contour>
      <point x="256.2857142857143" y="155.57142857142856" type="curve" smooth="yes"/>
      <point x="194.71428571428572" y="155.57142857142856"/>
      <point x="155.42857142857142" y="193.71428571428572"/>
      <point x="155.42857142857142" y="260.0" type="curve" smooth="yes"/>
      <point x="155.42857142857142" y="334.0"/>
      <point x="204.71428571428572" y="388.85714285714283"/>
      <point x="276.7142857142857" y="388.85714285714283" type="curve" smooth="yes"/>
      <point x="337.7142857142857" y="388.85714285714283"/>
      <point x="377.0" y="350.7142857142857"/>
      <point x="377.0" y="285.0" type="curve" smooth="yes"/>
      <point x="377.0" y="210.42857142857142"/>
      <point x="327.7142857142857" y="155.57142857142856"/>
    </contour>
  </outline>
</glyph>
<glyph name="yen" format="2">
  <advance width="542.8571428571429"/>
  <unicode hex="00A5"/>
  <outline>
    <contour>
      <point x="89.71428571428571" y="0.0" type="line"/>
      <point x="363.1428571428571" y="0.0" type="line"/>
      <point x="366.1428571428571" y="16.0" type="line"/>
      <point x="292.57142857142856" y="56.857142857142854" type="line"/>
      <point x="357.1428571428571" y="433.7142857142857" type="line"/>
      <point x="322.2857142857143" y="361.42857142857144" type="line"/>
      <point x="549.0" y="636.0" type="line"/>
      <point x="483.85714285714283" y="601.2857142857143" type="line"/>
      <point x="593.4285714285714" y="644.0" type="line"/>
      <point x="596.0" y="660.0" type="line"/>
      <point x="413.85714285714283" y="660.0" type="line"/>
      <point x="411.2857142857143" y="644.0" type="line"/>
      <point x="467.7142857142857" y="615.8571428571429" type="line"/>
      <point x="467.1428571428571" y="612.4285714285714" type="line"/>
      <point x="321.85714285714283" y="419.7142857142857" type="line"/>
      <point x="343.42857142857144" y="429.2857142857143" type="line"/>
      <point x="249.28571428571428" y="615.7142857142857" type="line"/>
      <point x="249.71428571428572" y="618.5714285714286" type="line"/>
      <point x="313.8571428571429" y="644.4285714285714" type="line"/>
      <point x="316.42857142857144" y="660.0" type="line"/>
      <point x="80.71428571428571" y="660.0" type="line"/>
      <point x="78.14285714285714" y="644.0" type="line"/>
      <point x="153.71428571428572" y="601.2857142857143" type="line"/>
      <point x="110.85714285714286" y="636.0" type="line"/>
      <point x="260.2857142857143" y="355.42857142857144" type="line"/>
      <point x="244.28571428571428" y="433.7142857142857" type="line"/>
      <point x="179.71428571428572" y="56.857142857142854" type="line"/>
      <point x="92.71428571428571" y="16.0" type="line"/>
    </contour>
    <contour>
      <point x="78.42857142857143" y="238.14285714285714" type="line"/>
      <point x="455.57142857142856" y="238.14285714285714" type="line"/>
      <point x="463.0" y="278.7142857142857" type="line"/>
      <point x="85.85714285714286" y="278.7142857142857" type="line"/>
    </contour>
    <contour>
      <point x="103.85714285714286" y="387.7142857142857" type="line"/>
      <point x="480.42857142857144" y="387.7142857142857" type="line"/>
      <point x="488.42857142857144" y="428.2857142857143" type="line"/>
      <point x="111.28571428571429" y="428.2857142857143" type="line"/>
    </contour>
  </outline>
</glyph>
<glyph name="brokenbar" format="2">
  <advance width="250.0"/>
  <unicode hex="00A6"/>
  <outline>
    <contour>
      <point x="118.57142857142857" y="350.0" type="line"/>
      <point x="167.42857142857142" y="350.0" type="line"/>
      <point x="237.42857142857142" y="750.0" type="line"/>
      <point x="188.57142857142858" y="750.0" type="line"/>
    </contour>
    <contour>
      <point x="12.571428571428573" y="-250.0" type="line"/>
      <point x="60.85714285714286" y="-250.0" type="line"/>
      <point x="130.85714285714286" y="150.0" type="line"/>
      <point x="82.57142857142857" y="150.0" type="line"/>
    </contour>
  </outline>
</glyph>
<glyph name="section" format="2">
  <advance width="527.7874603542857"/>
  <unicode hex="00A7"/>
  <outline>
    <contour>
      <point x="483.57142857142856" y="310.0" type="curve" smooth="yes"/>
      <point x="483.57142857142856" y="468.0"/>
      <point x="234.28571428571428" y="420.57142857142856"/>
      <point x="234.28571428571428" y="538.2857142857143" type="curve" smooth="yes"/>
      <point x="234.28571428571428" y="587.1428571428571"/>
      <point x="271.42857142857144" y="620.0"/>
      <point x="323.57142857142856" y="620.0" type="curve" smooth="yes"/>
      <point x="369.7142857142857" y="620.0"/>
      <point x="391.57142857142856" y="585.0"/>
      <point x="408.2857142857143" y="562.7142857142857" type="curve" smooth="yes"/>
      <point x="420.85714285714283" y="545.4285714285714" type="line"/>
      <point x="427.42857142857144" y="544.1428571428571" type="line"/>
      <point x="473.7142857142857" y="582.2857142857143" type="line" smooth="yes"/>
      <point x="484.1428571428571" y="591.7142857142857"/>
      <point x="490.0" y="598.7142857142857"/>
      <point x="490.57142857142856" y="606.8571428571429" type="curve" smooth="yes"/>
      <point x="491.1428571428571" y="614.5714285714286"/>
      <point x="487.0" y="621.2857142857143"/>
      <point x="480.57142857142856" y="630.4285714285714" type="curve" smooth="yes"/>
      <point x="462.42857142857144" y="650.2857142857143"/>
      <point x="431.57142857142856" y="670.0"/>
      <point x="375.7142857142857" y="670.0" type="curve" smooth="yes"/>
      <point x="238.28571428571428" y="670.0"/>
      <point x="140.14285714285714" y="578.5714285714286"/>
      <point x="140.14285714285714" y="483.57142857142856" type="curve" smooth="yes"/>
      <point x="140.14285714285714" y="325.8571428571429"/>
      <point x="384.85714285714283" y="387.2857142857143"/>
      <point x="384.85714285714283" y="257.7142857142857" type="curve" smooth="yes"/>
      <point x="384.85714285714283" y="213.71428571428572"/>
      <point x="341.7142857142857" y="177.57142857142858"/>
      <point x="292.0" y="172.85714285714286" type="curve"/>
      <point x="278.7142857142857" y="134.0" type="line"/>
      <point x="401.57142857142856" y="150.14285714285714"/>
      <point x="483.57142857142856" y="219.42857142857142"/>
    </contour>
    <contour>
      <point x="139.0" y="-120.85714285714286" type="curve" smooth="yes"/>
      <point x="261.0" y="-120.85714285714286"/>
      <point x="377.8571428571429" y="-29.714285714285715"/>
      <point x="377.8571428571429" y="66.57142857142857" type="curve" smooth="yes"/>
      <point x="377.8571428571429" y="222.57142857142858"/>
      <point x="129.85714285714283" y="164.14285714285714"/>
      <point x="129.85714285714283" y="293.57142857142856" type="curve" smooth="yes"/>
      <point x="129.85714285714283" y="340.14285714285717"/>
      <point x="165.57142857142856" y="379.0"/>
      <point x="225.71428571428572" y="386.14285714285717" type="curve"/>
      <point x="242.57142857142856" y="420.2857142857143" type="line"/>
      <point x="116.28571428571428" y="406.2857142857143"/>
      <point x="30.0" y="329.2857142857143"/>
      <point x="30.0" y="239.14285714285714" type="curve" smooth="yes"/>
      <point x="30.0" y="81.42857142857143"/>
      <point x="278.85714285714283" y="130.28571428571428"/>
      <point x="280.0" y="15.571428571428577" type="curve" smooth="yes"/>
      <point x="280.57142857142856" y="-30.142857142857142"/>
      <point x="246.28571428571428" y="-68.57142857142857"/>
      <point x="189.14285714285714" y="-68.57142857142857" type="curve" smooth="yes"/>
      <point x="142.0" y="-68.57142857142857"/>
      <point x="116.28571428571428" y="-31.285714285714292"/>
      <point x="100.0" y="-7.857142857142861" type="curve" smooth="yes"/>
      <point x="86.42857142857143" y="10.57142857142857" type="line"/>
      <point x="79.71428571428571" y="11.857142857142854" type="line"/>
      <point x="31.714285714285715" y="-28.0" type="line" smooth="yes"/>
      <point x="20.285714285714285" y="-36.85714285714286"/>
      <point x="14.857142857142858" y="-46.0"/>
      <point x="14.857142857142858" y="-53.14285714285714" type="curve" smooth="yes"/>
      <point x="13.714285714285714" y="-60.85714285714286"/>
      <point x="16.857142857142858" y="-68.14285714285714"/>
      <point x="25.42857142857143" y="-78.42857142857143" type="curve" smooth="yes"/>
      <point x="43.57142857142857" y="-98.85714285714286"/>
      <point x="81.42857142857143" y="-120.85714285714286"/>
    </contour>
  </outline>
</glyph>
<glyph name="copyright" format="2">
  <advance width="806.0"/>
  <unicode hex="00A9"/>
  <outline>
    <contour>
      <point x="361.42857142857144" y="-10.0" type="curve" smooth="yes"/>
      <point x="589.0" y="-10.0"/>
      <point x="742.1428571428571" y="168.14285714285714"/>
      <point x="742.1428571428571" y="373.57142857142856" type="curve" smooth="yes"/>
      <point x="742.1428571428571" y="543.0"/>
      <point x="618.7142857142857" y="670.0"/>
      <point x="444.42857142857144" y="670.0" type="curve" smooth="yes"/>
      <point x="216.42857142857142" y="670.0"/>
      <point x="63.857142857142854" y="491.85714285714283"/>
      <point x="63.857142857142854" y="286.57142857142856" type="curve" smooth="yes"/>
      <point x="63.857142857142854" y="117.0"/>
      <point x="186.71428571428572" y="-10.0"/>
    </contour>
    <contour>
      <point x="364.7142857142857" y="24.428571428571427" type="curve" smooth="yes"/>
      <point x="211.14285714285714" y="24.428571428571427"/>
      <point x="105.28571428571428" y="138.42857142857142"/>
      <point x="105.28571428571428" y="290.14285714285717" type="curve" smooth="yes"/>
      <point x="105.28571428571428" y="485.2857142857143"/>
      <point x="247.85714285714286" y="634.7142857142857"/>
      <point x="440.7142857142857" y="634.7142857142857" type="curve" smooth="yes"/>
      <point x="595.0" y="634.7142857142857"/>
      <point x="700.7142857142857" y="520.5714285714286"/>
      <point x="700.7142857142857" y="370.0" type="curve" smooth="yes"/>
      <point x="700.7142857142857" y="174.71428571428572"/>
      <point x="557.7142857142857" y="24.428571428571427"/>
    </contour>
    <contour>
      <point x="378.0" y="129.0" type="curve" smooth="yes"/>
      <point x="432.84729064057143" y="129.0"/>
      <point x="468.608749012" y="142.16890867885715"/>
      <point x="509.2857142857143" y="164.57142857142858" type="curve"/>
      <point x="534.7142857142857" y="266.0" type="line"/>
      <point x="508.7142857142857" y="266.0" type="line"/>
      <point x="430.8571428571429" y="164.42857142857142" type="line"/>
      <point x="482.0" y="210.0" type="line"/>
      <point x="458.49039553085714" y="195.18407321085715"/>
      <point x="433.6904761902857" y="175.0"/>
      <point x="391.85714285714283" y="175.0" type="curve" smooth="yes"/>
      <point x="334.85714285714283" y="175.0"/>
      <point x="299.85714285714283" y="219.28571428571428"/>
      <point x="299.85714285714283" y="296.42857142857144" type="curve" smooth="yes"/>
      <point x="299.85714285714283" y="413.57142857142856"/>
      <point x="360.7142857142857" y="495.42857142857144"/>
      <point x="442.57142857142856" y="495.42857142857144" type="curve" smooth="yes"/>
      <point x="472.14285714285717" y="495.42857142857144"/>
      <point x="489.22859336" y="484.37242939771426"/>
      <point x="520.0" y="458.42857142857144" type="curve"/>
      <point x="494.7142857142857" y="489.42857142857144" type="line"/>
      <point x="524.7142857142857" y="394.0" type="line"/>
      <point x="550.7142857142857" y="394.0" type="line"/>
      <point x="567.7142857142857" y="509.0" type="line"/>
      <point x="535.4285714285714" y="528.0"/>
      <point x="507.42857142857144" y="540.0"/>
      <point x="451.14285714285717" y="540.0" type="curve" smooth="yes"/>
      <point x="311.2857142857143" y="540.0"/>
      <point x="209.85714285714286" y="423.14285714285717"/>
      <point x="209.85714285714286" y="298.85714285714283" type="curve" smooth="yes"/>
      <point x="209.85714285714286" y="196.57142857142858"/>
      <point x="269.83421516742857" y="129.0"/>
    </contour>
  </outline>
</glyph>
<glyph name="ordfeminine" format="2">
  <advance width="400.0"/>
  <unicode hex="00AA"/>
  <outline>
    <contour>
      <point x="150.14285714285714" y="417.0" type="curve" smooth="yes"/>
      <point x="184.784126984" y="417.0"/>
      <point x="212.62488189885715" y="436.6506186862857"/>
      <point x="239.14285714285714" y="475.7142857142857" type="curve"/>
      <point x="258.7142857142857" y="475.7142857142857" type="line"/>
      <point x="258.7142857142857" y="535.0" type="line"/>
      <point x="243.42857142857142" y="508.57142857142856"/>
      <point x="222.71428571428572" y="468.2857142857143"/>
      <point x="195.0" y="468.2857142857143" type="curve" smooth="yes"/>
      <point x="180.57142857142856" y="468.2857142857143"/>
      <point x="175.57142857142856" y="484.1428571428571"/>
      <point x="175.57142857142856" y="512.0" type="curve" smooth="yes"/>
      <point x="175.57142857142856" y="571.5714285714286"/>
      <point x="199.28571428571428" y="646.4285714285714"/>
      <point x="241.14285714285714" y="646.4285714285714" type="curve" smooth="yes"/>
      <point x="254.85714285714286" y="646.4285714285714"/>
      <point x="265.85714285714283" y="638.5714285714286"/>
      <point x="272.14285714285717" y="620.8571428571429" type="curve"/>
      <point x="271.0" y="639.2857142857143" type="line"/>
      <point x="243.0" y="483.14285714285717" type="line" smooth="yes"/>
      <point x="237.0" y="451.14285714285717"/>
      <point x="245.14285714285714" y="417.0"/>
      <point x="288.85714285714283" y="417.0" type="curve" smooth="yes"/>
      <point x="319.42857142857144" y="417.0"/>
      <point x="350.2857142857143" y="438.2857142857143"/>
      <point x="372.85714285714283" y="492.85714285714283" type="curve"/>
      <point x="359.85714285714283" y="497.85714285714283" type="line"/>
      <point x="346.14285714285717" y="469.85714285714283"/>
      <point x="336.0" y="458.57142857142856"/>
      <point x="326.0" y="458.57142857142856" type="curve" smooth="yes"/>
      <point x="316.0" y="458.57142857142856"/>
      <point x="312.0" y="467.57142857142856"/>
      <point x="316.0" y="488.57142857142856" type="curve" smooth="yes"/>
      <point x="349.57142857142856" y="670.0" type="line"/>
      <point x="336.57142857142856" y="670.0" type="line"/>
      <point x="283.7142857142857" y="645.0" type="line"/>
      <point x="308.14285714285717" y="648.5714285714286" type="line"/>
      <point x="298.0" y="660.7142857142857"/>
      <point x="272.85714285714283" y="670.0"/>
      <point x="248.14285714285714" y="670.0" type="curve" smooth="yes"/>
      <point x="165.28571428571428" y="670.0"/>
      <point x="101.71428571428571" y="580.0"/>
      <point x="101.71428571428571" y="491.0" type="curve" smooth="yes"/>
      <point x="101.71428571428571" y="442.0"/>
      <point x="120.71428571428571" y="417.0"/>
    </contour>
    <contour>
      <point x="75.71428571428571" y="292.0" type="line"/>
      <point x="315.57142857142856" y="292.0" type="line"/>
      <point x="324.57142857142856" y="342.0" type="line"/>
      <point x="84.71428571428571" y="342.0" type="line"/>
    </contour>
  </outline>
</glyph>
<glyph name="logicalnot" format="2">
  <advance width="542.8571428571429"/>
  <unicode hex="00AC"/>
  <outline>
    <contour>
      <point x="381.42857142857144" y="62.0" type="line"/>
      <point x="436.0" y="62.0" type="line"/>
      <point x="477.42857142857144" y="297.14285714285717" type="line"/>
      <point x="58.57142857142857" y="297.14285714285717" type="line"/>
      <point x="49.714285714285715" y="246.85714285714286" type="line"/>
      <point x="414.0" y="246.85714285714286" type="line"/>
    </contour>
  </outline>
</glyph>
<glyph name="registered" format="2">
  <advance width="500.0"/>
  <unicode hex="00AE"/>
  <outline>
    <contour>
      <point x="243.57142857142858" y="230.28571428571428" type="curve" smooth="yes"/>
      <point x="390.85714285714283" y="230.28571428571428"/>
      <point x="489.7142857142857" y="344.14285714285717"/>
      <point x="489.7142857142857" y="478.57142857142856" type="curve" smooth="yes"/>
      <point x="489.7142857142857" y="587.7142857142857"/>
      <point x="410.0" y="670.0"/>
      <point x="297.42857142857144" y="670.0" type="curve" smooth="yes"/>
      <point x="150.14285714285714" y="670.0"/>
      <point x="50.85714285714286" y="556.0"/>
      <point x="50.85714285714286" y="421.7142857142857" type="curve" smooth="yes"/>
      <point x="50.85714285714286" y="312.0"/>
      <point x="130.57142857142858" y="230.28571428571428"/>
    </contour>
    <contour>
      <point x="247.0" y="259.57142857142856" type="curve" smooth="yes"/>
      <point x="150.28571428571428" y="259.57142857142856"/>
      <point x="84.57142857142857" y="331.42857142857144"/>
      <point x="84.57142857142857" y="423.0" type="curve" smooth="yes"/>
      <point x="84.57142857142857" y="549.5714285714286"/>
      <point x="175.14285714285714" y="640.2857142857143"/>
      <point x="293.42857142857144" y="640.2857142857143" type="curve" smooth="yes"/>
      <point x="389.7142857142857" y="640.2857142857143"/>
      <point x="455.85714285714283" y="568.8571428571429"/>
      <point x="455.85714285714283" y="477.2857142857143" type="curve" smooth="yes"/>
      <point x="455.85714285714283" y="350.7142857142857"/>
      <point x="364.85714285714283" y="259.57142857142856"/>
    </contour>
    <contour>
      <point x="138.42857142857144" y="324.7142857142857" type="line"/>
      <point x="249.14285714285714" y="324.7142857142857" type="line"/>
      <point x="250.57142857142856" y="331.7142857142857" type="line"/>
      <point x="223.57142857142858" y="347.7142857142857" type="line"/>
      <point x="264.57142857142856" y="579.7142857142857" type="line"/>
      <point x="183.42857142857144" y="579.7142857142857" type="line"/>
      <point x="182.42857142857144" y="573.7142857142857" type="line"/>
      <point x="210.85714285714286" y="557.7142857142857" type="line"/>
      <point x="173.42857142857142" y="347.7142857142857" type="line"/>
      <point x="139.85714285714286" y="331.7142857142857" type="line"/>
    </contour>
    <contour>
      <point x="373.0" y="522.7142857142857" type="curve" smooth="yes"/>
      <point x="373.0" y="557.4285714285714"/>
      <point x="346.2857142857143" y="579.7142857142857"/>
      <point x="295.57142857142856" y="579.7142857142857" type="curve" smooth="yes"/>
      <point x="231.0" y="579.7142857142857" type="line"/>
      <point x="227.0" y="556.7142857142857" type="line"/>
      <point x="276.14285714285717" y="556.7142857142857" type="line" smooth="yes"/>
      <point x="303.2857142857143" y="556.7142857142857"/>
      <point x="320.14285714285717" y="544.8571428571429"/>
      <point x="320.14285714285717" y="521.1428571428571" type="curve" smooth="yes"/>
      <point x="320.14285714285717" y="484.85714285714283"/>
      <point x="294.85714285714283" y="464.7142857142857"/>
      <point x="259.57142857142856" y="464.7142857142857" type="curve"/>
      <point x="214.0" y="464.7142857142857" type="line"/>
      <point x="210.0" y="441.7142857142857" type="line"/>
      <point x="278.14285714285717" y="441.7142857142857" type="line"/>
      <point x="278.14285714285717" y="447.2857142857143" type="line"/>
      <point x="336.57142857142856" y="453.2857142857143"/>
      <point x="373.0" y="480.0"/>
    </contour>
    <contour>
      <point x="293.14285714285717" y="324.7142857142857" type="line"/>
      <point x="366.14285714285717" y="324.7142857142857" type="line"/>
      <point x="367.57142857142856" y="331.7142857142857" type="line"/>
      <point x="344.14285714285717" y="344.7142857142857" type="line"/>
      <point x="307.0" y="458.42857142857144" type="line"/>
      <point x="255.85714285714286" y="458.42857142857144" type="line"/>
    </contour>
  </outline>
</glyph>
<glyph name="degree" format="2">
  <advance width="500.0"/>
  <unicode hex="00B0"/>
  <outline>
    <contour>
      <point x="285.7142857142857" y="410.0" type="curve" smooth="yes"/>
      <point x="360.7142857142857" y="410.0"/>
      <point x="415.7142857142857" y="470.0"/>
      <point x="415.7142857142857" y="540.0" type="curve" smooth="yes"/>
      <point x="415.7142857142857" y="610.0"/>
      <point x="360.7142857142857" y="670.0"/>
      <point x="285.7142857142857" y="670.0" type="curve" smooth="yes"/>
      <point x="210.71428571428572" y="670.0"/>
      <point x="155.71428571428572" y="610.0"/>
      <point x="155.71428571428572" y="540.0" type="curve" smooth="yes"/>
      <point x="155.71428571428572" y="470.0"/>
      <point x="210.71428571428572" y="410.0"/>
    </contour>
    <contour>
      <point x="285.7142857142857" y="452.0" type="curve" smooth="yes"/>
      <point x="239.28571428571428" y="452.0"/>
      <point x="202.42857142857142" y="485.7142857142857"/>
      <point x="202.42857142857142" y="540.0" type="curve" smooth="yes"/>
      <point x="202.42857142857142" y="594.2857142857143"/>
      <point x="239.28571428571428" y="628.0"/>
      <point x="285.7142857142857" y="628.0" type="curve" smooth="yes"/>
      <point x="332.14285714285717" y="628.0"/>
      <point x="369.0" y="594.2857142857143"/>
      <point x="369.0" y="540.0" type="curve" smooth="yes"/>
      <point x="369.0" y="485.7142857142857"/>
      <point x="332.14285714285717" y="452.0"/>
    </contour>
  </outline>
</glyph>
<glyph name="plusminus" format="2">
  <advance width="542.8571428571429"/>
  <unicode hex="00B1"/>
  <outline>
    <contour>
      <point x="437.42857142857144" y="61.85714285714286" type="line"/>
      <point x="446.2857142857143" y="112.14285714285714" type="line"/>
      <point x="27.428571428571427" y="112.14285714285714" type="line"/>
      <point x="18.57142857142857" y="61.85714285714286" type="line"/>
    </contour>
    <contour>
      <point x="476.85714285714283" y="286.85714285714283" type="line"/>
      <point x="485.7142857142857" y="337.14285714285717" type="line"/>
      <point x="66.85714285714286" y="337.14285714285717" type="line"/>
      <point x="58.0" y="286.85714285714283" type="line"/>
    </contour>
    <contour>
      <point x="274.85714285714283" y="482.0" type="line"/>
      <point x="216.85714285714286" y="152.0" type="line"/>
      <point x="271.42857142857144" y="152.0" type="line"/>
      <point x="329.42857142857144" y="482.0" type="line"/>
    </contour>
  </outline>
</glyph>
<glyph name="paragraph" format="2">
  <advance width="499.8571428571429"/>
  <unicode hex="00B6"/>
  <outline>
    <contour>
      <point x="170.85714285714286" y="-110.0" type="line"/>
      <point x="223.0" y="-110.0" type="line"/>
      <point x="362.42857142857144" y="660.0" type="line"/>
      <point x="253.71428571428572" y="660.0" type="line" smooth="yes"/>
      <point x="138.42857142857142" y="660.0"/>
      <point x="58.285714285714285" y="595.0"/>
      <point x="58.285714285714285" y="491.2857142857143" type="curve" smooth="yes"/>
      <point x="58.285714285714285" y="411.85714285714283"/>
      <point x="120.42857142857143" y="359.0"/>
      <point x="215.0" y="359.0" type="curve" smooth="yes"/>
      <point x="255.57142857142856" y="359.0" type="line"/>
    </contour>
    <contour>
      <point x="278.7142857142857" y="-110.0" type="line"/>
      <point x="331.42857142857144" y="-110.0" type="line"/>
      <point x="460.2857142857143" y="603.1428571428571" type="line"/>
      <point x="545.0" y="644.0" type="line"/>
      <point x="548.0" y="660.0" type="line"/>
      <point x="418.1428571428571" y="660.0" type="line"/>
    </contour>
  </outline>
</glyph>
<glyph name="periodcentered" format="2">
  <advance width="250.0"/>
  <unicode hex="00B7"/>
  <outline>
    <contour>
      <point x="117.57142857142857" y="207.14285714285714" type="curve" smooth="yes"/>
      <point x="158.85714285714286" y="207.14285714285714"/>
      <point x="185.85714285714286" y="242.42857142857142"/>
      <point x="185.85714285714286" y="280.2857142857143" type="curve" smooth="yes"/>
      <point x="185.85714285714286" y="312.7142857142857"/>
      <point x="169.14285714285714" y="336.2857142857143"/>
      <point x="131.85714285714286" y="336.2857142857143" type="curve" smooth="yes"/>
      <point x="91.57142857142857" y="336.2857142857143"/>
      <point x="63.57142857142857" y="301.0"/>
      <point x="63.57142857142857" y="263.14285714285717" type="curve" smooth="yes"/>
      <point x="63.57142857142857" y="230.71428571428572"/>
      <point x="80.28571428571429" y="207.14285714285714"/>
    </contour>
  </outline>
</glyph>
<glyph name="ordmasculine" format="2">
  <advance width="400.0"/>
  <unicode hex="00BA"/>
  <outline>
    <contour>
      <point x="210.57142857142856" y="417.0" type="curve" smooth="yes"/>
      <point x="298.42857142857144" y="417.0"/>
      <point x="353.42857142857144" y="488.85714285714283"/>
      <point x="353.42857142857144" y="563.0" type="curve" smooth="yes"/>
      <point x="353.42857142857144" y="625.7142857142857"/>
      <point x="317.85714285714283" y="670.0"/>
      <point x="244.71428571428572" y="670.0" type="curve" smooth="yes"/>
      <point x="158.42857142857142" y="670.0"/>
      <point x="101.42857142857143" y="601.1428571428571"/>
      <point x="101.42857142857143" y="525.0" type="curve" smooth="yes"/>
      <point x="101.42857142857143" y="461.2857142857143"/>
      <point x="137.0" y="417.0"/>
    </contour>
    <contour>
      <point x="214.71428571428572" y="440.85714285714283" type="curve" smooth="yes"/>
      <point x="189.28571428571428" y="440.85714285714283"/>
      <point x="182.14285714285714" y="474.0"/>
      <point x="182.14285714285714" y="516.1428571428571" type="curve" smooth="yes"/>
      <point x="182.14285714285714" y="579.4285714285714"/>
      <point x="201.85714285714286" y="647.1428571428571"/>
      <point x="241.57142857142856" y="647.1428571428571" type="curve" smooth="yes"/>
      <point x="266.57142857142856" y="647.1428571428571"/>
      <point x="272.7142857142857" y="615.0"/>
      <point x="272.7142857142857" y="573.7142857142857" type="curve" smooth="yes"/>
      <point x="272.7142857142857" y="513.4285714285714"/>
      <point x="253.57142857142858" y="440.85714285714283"/>
    </contour>
    <contour>
      <point x="63.714285714285715" y="292.0" type="line"/>
      <point x="303.57142857142856" y="292.0" type="line"/>
      <point x="312.57142857142856" y="342.0" type="line"/>
      <point x="72.71428571428571" y="342.0" type="line"/>
    </contour>
  </outline>
</glyph>
<glyph name="questiondown" format="2">
  <advance width="399.2857142857143"/>
  <unicode hex="00BF"/>
  <outline>
    <contour>
      <point x="214.14285714285714" y="-210.28571428571428" type="curve" smooth="yes"/>
      <point x="262.14285714285717" y="-210.28571428571428"/>
      <point x="275.14285714285717" y="-199.28571428571428"/>
      <point x="275.14285714285717" y="-184.28571428571428" type="curve" smooth="yes"/>
      <point x="275.14285714285717" y="-179.28571428571428"/>
      <point x="273.7142857142857" y="-172.85714285714286"/>
      <point x="270.14285714285717" y="-165.28571428571428" type="curve" smooth="yes"/>
      <point x="246.85714285714286" y="-111.28571428571428" type="line"/>
      <point x="233.0" y="-105.85714285714286" type="line"/>
      <point x="191.57142857142858" y="-114.42857142857143" type="line" smooth="yes"/>
      <point x="175.85714285714286" y="-118.0"/>
      <point x="151.71428571428572" y="-119.42857142857143"/>
      <point x="138.57142857142858" y="-119.42857142857143" type="curve" smooth="yes"/>
      <point x="85.0" y="-119.42857142857143"/>
      <point x="33.142857142857146" y="-100.57142857142858"/>
      <point x="33.142857142857146" y="-56.85714285714286" type="curve" smooth="yes"/>
      <point x="33.142857142857146" y="26.85714285714286"/>
      <point x="259.7142857142857" y="-9.0"/>
      <point x="259.7142857142857" y="141.0" type="curve" smooth="yes"/>
      <point x="259.7142857142857" y="181.57142857142858"/>
      <point x="239.42857142857142" y="217.71428571428572"/>
      <point x="205.0" y="252.0" type="curve"/>
      <point x="182.57142857142858" y="245.14285714285714" type="line"/>
      <point x="195.0" y="229.42857142857142"/>
      <point x="202.42857142857142" y="213.71428571428572"/>
      <point x="202.42857142857142" y="191.85714285714286" type="curve" smooth="yes"/>
      <point x="202.42857142857142" y="74.57142857142857"/>
      <point x="-11.571428571428571" y="132.42857142857144"/>
      <point x="-11.571428571428571" y="-28.571428571428573" type="curve" smooth="yes"/>
      <point x="-11.571428571428571" y="-128.0"/>
      <point x="117.42857142857143" y="-210.28571428571428"/>
    </contour>
    <contour>
      <point x="220.14285714285714" y="335.57142857142856" type="curve" smooth="yes"/>
      <point x="260.42857142857144" y="335.57142857142856"/>
      <point x="288.42857142857144" y="370.42857142857144"/>
      <point x="288.42857142857144" y="408.7142857142857" type="curve" smooth="yes"/>
      <point x="288.42857142857144" y="441.14285714285717"/>
      <point x="271.7142857142857" y="464.7142857142857"/>
      <point x="234.42857142857142" y="464.7142857142857" type="curve" smooth="yes"/>
      <point x="193.14285714285714" y="464.7142857142857"/>
      <point x="166.14285714285714" y="429.42857142857144"/>
      <point x="166.14285714285714" y="391.57142857142856" type="curve" smooth="yes"/>
      <point x="166.14285714285714" y="359.14285714285717"/>
      <point x="182.85714285714286" y="335.57142857142856"/>
    </contour>
  </outline>
</glyph>
<glyph name="AE" format="2">
  <advance width="955.5714285714286"/>
  <unicode hex="00C6"/>
  <anchor x="598.2857142857143" y="710.0" name="top"/>
  <outline>
    <contour>
      <point x="-27.857142857142854" y="0.0" type="line"/>
      <point x="169.57142857142858" y="0.0" type="line"/>
      <point x="173.0" y="16.0" type="line"/>
      <point x="81.71428571428572" y="56.285714285714285" type="line"/>
      <point x="90.0" y="28.0" type="line"/>
      <point x="525.7142857142857" y="605.5714285714286" type="line"/>
      <point x="509.2857142857143" y="599.8571428571429" type="line"/>
      <point x="413.85714285714283" y="56.857142857142854" type="line"/>
      <point x="329.14285714285717" y="16.0" type="line"/>
      <point x="326.14285714285717" y="0.0" type="line"/>
      <point x="525.7142857142857" y="0.0" type="line"/>
      <point x="642.2857142857142" y="660.0" type="line"/>
      <point x="504.57142857142856" y="660.0" type="line"/>
      <point x="22.857142857142858" y="28.0" type="line"/>
      <point x="87.85714285714286" y="72.71428571428571" type="line"/>
      <point x="-24.285714285714285" y="16.0" type="line"/>
    </contour>
    <contour>
      <point x="222.0" y="233.28571428571428" type="line"/>
      <point x="505.42857142857144" y="233.28571428571428" type="line"/>
      <point x="515.8571428571429" y="285.42857142857144" type="line"/>
      <point x="232.42857142857142" y="285.42857142857144" type="line"/>
    </contour>
    <contour>
      <point x="883.0" y="487.14285714285717" type="line"/>
      <point x="898.5714285714286" y="487.14285714285717" type="line"/>
      <point x="929.1428571428571" y="660.0" type="line"/>
      <point x="573.7142857142857" y="660.0" type="line"/>
      <point x="564.2857142857143" y="607.8571428571429" type="line"/>
      <point x="839.1428571428571" y="607.8571428571429" type="line"/>
    </contour>
    <contour>
      <point x="763.1428571428571" y="229.85714285714286" type="line"/>
      <point x="779.1428571428571" y="229.85714285714286" type="line"/>
      <point x="819.0" y="453.14285714285717" type="line"/>
      <point x="803.0" y="453.14285714285717" type="line"/>
      <point x="734.1428571428571" y="366.85714285714283" type="line"/>
      <point x="529.7142857142857" y="366.85714285714283" type="line"/>
      <point x="520.2857142857143" y="314.7142857142857" type="line"/>
      <point x="725.2857142857142" y="314.7142857142857" type="line"/>
    </contour>
    <contour>
      <point x="847.7142857142857" y="0.0" type="line"/>
      <point x="882.7142857142858" y="197.85714285714286" type="line"/>
      <point x="866.7142857142857" y="197.85714285714286" type="line"/>
      <point x="773.4285714285714" y="52.14285714285714" type="line"/>
      <point x="492.0" y="52.14285714285714" type="line"/>
      <point x="483.85714285714283" y="0.0" type="line"/>
    </contour>
  </outline>
</glyph>
<glyph name="Ccedilla" format="2">
  <advance width="666.0"/>
  <unicode hex="00C7"/>
  <outline>
    <contour>
      <point x="323.85714285714283" y="-10.0" type="curve" smooth="yes"/>
      <point x="420.57142857142856" y="-10.0"/>
      <point x="491.0" y="9.428571428571429"/>
      <point x="548.8571428571429" y="41.142857142857146" type="curve"/>
      <point x="588.5714285714286" y="207.0" type="line"/>
      <point x="571.7142857142857" y="207.0" type="line"/>
      <point x="471.14285714285717" y="78.28571428571428" type="line"/>
      <point x="435.57142857142856" y="57.14285714285714"/>
      <point x="394.7142857142857" y="39.0"/>
      <point x="349.14285714285717" y="39.0" type="curve" smooth="yes"/>
      <point x="247.14285714285714" y="39.0"/>
      <point x="180.42857142857144" y="124.14285714285714"/>
      <point x="180.42857142857144" y="263.7142857142857" type="curve" smooth="yes"/>
      <point x="180.42857142857144" y="459.57142857142856"/>
      <point x="278.57142857142856" y="623.1428571428571"/>
      <point x="434.7142857142857" y="623.1428571428571" type="curve" smooth="yes"/>
      <point x="477.14285714285717" y="623.1428571428571"/>
      <point x="502.0" y="611.1428571428571"/>
      <point x="528.1428571428571" y="586.4285714285714" type="curve"/>
      <point x="585.2857142857143" y="438.8571428571429" type="line"/>
      <point x="602.1428571428571" y="438.8571428571429" type="line"/>
      <point x="624.2857142857143" y="622.0" type="line"/>
      <point x="568.8571428571429" y="653.5714285714286"/>
      <point x="526.1428571428571" y="670.0"/>
      <point x="448.0" y="670.0" type="curve" smooth="yes"/>
      <point x="231.42857142857142" y="670.0"/>
      <point x="51.42857142857143" y="481.0"/>
      <point x="51.42857142857143" y="259.42857142857144" type="curve" smooth="yes"/>
      <point x="51.42857142857143" y="102.28571428571428"/>
      <point x="153.14285714285714" y="-10.0"/>
    </contour>
    <contour>
      <point x="291.57142857142856" y="-240.0" type="curve" smooth="yes"/>
      <point x="359.14285714285717" y="-240.0"/>
      <point x="402.85714285714283" y="-198.71428571428572"/>
      <point x="402.85714285714283" y="-145.0" type="curve" smooth="yes"/>
      <point x="402.85714285714283" y="-96.28571428571429"/>
      <point x="373.7142857142857" y="-65.0"/>
      <point x="298.7142857142857" y="-44.85714285714286" type="curve"/>
      <point x="305.7142857142857" y="-65.57142857142857" type="line"/>
      <point x="359.2857142857143" y="23.0" type="line"/>
      <point x="327.57142857142856" y="23.0" type="line"/>
      <point x="252.0" y="-100.14285714285714" type="line"/>
      <point x="316.2857142857143" y="-117.14285714285714"/>
      <point x="338.42857142857144" y="-136.71428571428572"/>
      <point x="338.42857142857144" y="-165.85714285714286" type="curve" smooth="yes"/>
      <point x="338.42857142857144" y="-194.14285714285714"/>
      <point x="316.42857142857144" y="-210.85714285714286"/>
      <point x="277.85714285714283" y="-210.85714285714286" type="curve" smooth="yes"/>
      <point x="255.57142857142858" y="-210.85714285714286"/>
      <point x="236.85714285714286" y="-206.14285714285714"/>
      <point x="222.0" y="-199.0" type="curve"/>
      <point x="218.57142857142858" y="-199.0" type="line"/>
      <point x="215.71428571428572" y="-214.71428571428572" type="line"/>
      <point x="231.0" y="-230.28571428571428"/>
      <point x="258.0" y="-240.0"/>
    </contour>
  </outline>
</glyph>
<glyph name="multiply" format="2">
  <advance width="542.8571428571429"/>
  <unicode hex="00D7"/>
  <outline>
    <contour>
      <point x="85.71428571428571" y="86.28571428571429" type="line"/>
      <point x="476.0" y="418.7142857142857" type="line"/>
      <point x="444.0" y="458.57142857142856" type="line"/>
      <point x="54.14285714285714" y="126.14285714285714" type="line"/>
    </contour>
    <contour>
      <point x="108.14285714285714" y="422.7142857142857" type="line"/>
      <point x="379.57142857142856" y="86.28571428571429" type="line"/>
      <point x="422.0" y="122.14285714285714" type="line"/>
      <point x="150.57142857142856" y="458.57142857142856" type="line"/>
    </contour>
  </outline>
</glyph>
